<svg width="182" height="42" viewBox="0 0 182 42" fill="none"
    xmlns="http://www.w3.org/2000/svg">
    <path d="M0 4C0 1.79086 1.79086 0 4 0H178C180.209 0 182 1.79086 182 4V21C182 23.2091 180.209 25 178 25H0V4Z" fill="#F3D309"/>
    <path d="M13.396 17L11.134 12.736L13.578 11.306L16.854 17H13.396ZM7.728 17V7.9H10.796V17H7.728ZM9.912 13.711V11.293H13.357V13.711H9.912ZM13.877 12.775L11.056 12.489L13.669 7.9H16.867L13.877 12.775ZM22.0444 17.208C21.3077 17.208 20.623 17.091 19.9904 16.857C19.3664 16.623 18.8247 16.2937 18.3654 15.869C17.906 15.4357 17.5464 14.9287 17.2864 14.348C17.035 13.7673 16.9094 13.1347 16.9094 12.45C16.9094 11.7567 17.035 11.124 17.2864 10.552C17.5464 9.97133 17.906 9.46867 18.3654 9.044C18.8247 8.61067 19.3664 8.277 19.9904 8.043C20.623 7.809 21.3077 7.692 22.0444 7.692C22.7897 7.692 23.4744 7.809 24.0984 8.043C24.7224 8.277 25.264 8.61067 25.7234 9.044C26.1827 9.46867 26.538 9.97133 26.7894 10.552C27.0494 11.124 27.1794 11.7567 27.1794 12.45C27.1794 13.1347 27.0494 13.7673 26.7894 14.348C26.538 14.9287 26.1827 15.4357 25.7234 15.869C25.264 16.2937 24.7224 16.623 24.0984 16.857C23.4744 17.091 22.7897 17.208 22.0444 17.208ZM22.0444 14.725C22.3304 14.725 22.5947 14.673 22.8374 14.569C23.0887 14.465 23.3054 14.3177 23.4874 14.127C23.678 13.9277 23.8254 13.6893 23.9294 13.412C24.0334 13.126 24.0854 12.8053 24.0854 12.45C24.0854 12.0947 24.0334 11.7783 23.9294 11.501C23.8254 11.215 23.678 10.9767 23.4874 10.786C23.3054 10.5867 23.0887 10.435 22.8374 10.331C22.5947 10.227 22.3304 10.175 22.0444 10.175C21.7584 10.175 21.4897 10.227 21.2384 10.331C20.9957 10.435 20.779 10.5867 20.5884 10.786C20.4064 10.9767 20.2634 11.215 20.1594 11.501C20.0554 11.7783 20.0034 12.0947 20.0034 12.45C20.0034 12.8053 20.0554 13.126 20.1594 13.412C20.2634 13.6893 20.4064 13.9277 20.5884 14.127C20.779 14.3177 20.9957 14.465 21.2384 14.569C21.4897 14.673 21.7584 14.725 22.0444 14.725ZM28.2835 17V7.9H30.8055L34.4455 13.841H33.1195L36.6555 7.9H39.1775L39.2035 17H36.4085L36.3825 12.112H36.8245L34.4065 16.181H33.0545L30.5325 12.112H31.0785V17H28.2835ZM40.8011 17V7.9H43.3231L46.9631 13.841H45.6371L49.1731 7.9H51.6951L51.7211 17H48.9261L48.9001 12.112H49.3421L46.9241 16.181H45.5721L43.0501 12.112H43.5961V17H40.8011ZM56.1267 11.28H60.1827V13.49H56.1267V11.28ZM56.3347 14.686H60.8847V17H53.3187V7.9H60.7157V10.214H56.3347V14.686ZM62.1292 17V7.9H66.5102C67.3596 7.9 68.0919 8.03867 68.7072 8.316C69.3312 8.59333 69.8122 8.992 70.1502 9.512C70.4882 10.0233 70.6572 10.63 70.6572 11.332C70.6572 12.034 70.4882 12.6407 70.1502 13.152C69.8122 13.6633 69.3312 14.062 68.7072 14.348C68.0919 14.6253 67.3596 14.764 66.5102 14.764H63.8322L65.1972 13.451V17H62.1292ZM65.1972 13.789L63.8322 12.398H66.3152C66.7399 12.398 67.0519 12.3027 67.2512 12.112C67.4592 11.9213 67.5632 11.6613 67.5632 11.332C67.5632 11.0027 67.4592 10.7427 67.2512 10.552C67.0519 10.3613 66.7399 10.266 66.3152 10.266H63.8322L65.1972 8.875V13.789ZM77.2438 13.945C76.8538 14.0837 76.4898 14.1877 76.1518 14.257C75.8224 14.3263 75.5018 14.361 75.1898 14.361C73.8551 14.361 72.8368 14.0447 72.1348 13.412C71.4414 12.7793 71.0948 11.8563 71.0948 10.643V7.9H74.1108V10.305C74.1108 10.8597 74.2321 11.2713 74.4748 11.54C74.7174 11.8 75.0858 11.93 75.5798 11.93C75.9178 11.93 76.2211 11.8997 76.4898 11.839C76.7584 11.7697 76.9838 11.6743 77.1658 11.553L77.2438 13.945ZM76.8408 17V7.9H79.8568V17H76.8408ZM84.2722 11.28H88.3282V13.49H84.2722V11.28ZM84.4802 14.686H89.0302V17H81.4642V7.9H88.8612V10.214H84.4802V14.686ZM94.8508 17.208C94.1228 17.208 93.4468 17.0953 92.8228 16.87C92.2074 16.636 91.6701 16.3067 91.2108 15.882C90.7601 15.4573 90.4091 14.9547 90.1578 14.374C89.9064 13.7933 89.7808 13.152 89.7808 12.45C89.7808 11.748 89.9064 11.1067 90.1578 10.526C90.4091 9.94533 90.7601 9.44267 91.2108 9.018C91.6701 8.59333 92.2074 8.26833 92.8228 8.043C93.4468 7.809 94.1228 7.692 94.8508 7.692C95.7434 7.692 96.5321 7.848 97.2168 8.16C97.9101 8.472 98.4821 8.92267 98.9328 9.512L96.9958 11.241C96.7271 10.903 96.4281 10.643 96.0988 10.461C95.7781 10.2703 95.4141 10.175 95.0068 10.175C94.6861 10.175 94.3958 10.227 94.1358 10.331C93.8758 10.435 93.6504 10.5867 93.4598 10.786C93.2778 10.9853 93.1348 11.228 93.0308 11.514C92.9268 11.7913 92.8748 12.1033 92.8748 12.45C92.8748 12.7967 92.9268 13.113 93.0308 13.399C93.1348 13.6763 93.2778 13.9147 93.4598 14.114C93.6504 14.3133 93.8758 14.465 94.1358 14.569C94.3958 14.673 94.6861 14.725 95.0068 14.725C95.4141 14.725 95.7781 14.634 96.0988 14.452C96.4281 14.2613 96.7271 13.997 96.9958 13.659L98.9328 15.388C98.4821 15.9687 97.9101 16.4193 97.2168 16.74C96.5321 17.052 95.7434 17.208 94.8508 17.208ZM105.45 17L103.188 12.736L105.632 11.306L108.908 17H105.45ZM99.7817 17V7.9H102.85V17H99.7817ZM101.966 13.711V11.293H105.411V13.711H101.966ZM105.931 12.775L103.11 12.489L105.723 7.9H108.921L105.931 12.775ZM109.534 17V7.9H112.55V12.632L115.683 7.9H118.569V17H115.553V12.281L112.433 17H109.534ZM120.185 17V7.9H123.201V12.632L126.334 7.9H129.22V17H126.204V12.281L123.084 17H120.185ZM124.696 7.38C123.665 7.38 122.932 7.18933 122.499 6.808C122.074 6.418 121.862 5.86333 121.862 5.144H123.903C123.903 5.43 123.959 5.64233 124.072 5.781C124.193 5.911 124.401 5.976 124.696 5.976C124.999 5.976 125.212 5.911 125.333 5.781C125.454 5.64233 125.515 5.43 125.515 5.144H127.556C127.556 5.86333 127.335 6.418 126.893 6.808C126.46 7.18933 125.727 7.38 124.696 7.38Z" fill="black"/>
    <rect x="133" y="6" width="44" height="13" rx="6.5" fill="black"/>
    <path d="M138.638 15L137.07 10.1H138.771L140.038 14.237H139.184L140.528 10.1H142.047L143.3 14.237H142.481L143.804 10.1H145.372L143.804 15H142.033L141.011 11.612H141.487L140.409 15H138.638ZM147.08 15L145.512 10.1H147.213L148.48 14.237H147.626L148.97 10.1H150.489L151.742 14.237H150.923L152.246 10.1H153.814L152.246 15H150.475L149.453 11.612H149.929L148.851 15H147.08ZM155.523 15L153.955 10.1H155.656L156.923 14.237H156.069L157.413 10.1H158.932L160.185 14.237H159.366L160.689 10.1H162.257L160.689 15H158.918L157.896 11.612H158.372L157.294 15H155.523ZM163.111 15.07C162.85 15.07 162.63 14.986 162.453 14.818C162.276 14.6453 162.187 14.426 162.187 14.16C162.187 13.8893 162.276 13.6723 162.453 13.509C162.63 13.3457 162.85 13.264 163.111 13.264C163.372 13.264 163.592 13.3457 163.769 13.509C163.946 13.6723 164.035 13.8893 164.035 14.16C164.035 14.426 163.946 14.6453 163.769 14.818C163.592 14.986 163.372 15.07 163.111 15.07Z" fill="#F3D309"/>
    <g filter="url(#filter0_d_0_1)">
        <path fill-rule="evenodd" clip-rule="evenodd" d="M170.14 15.0754L172 14.4791L167 12L168.458 16.9751L169.549 15.4914L170.856 17L171.447 16.584L170.14 15.0754Z" fill="#F3D309"/>
    </g>
    <path d="M0 25H139V38C139 40.2091 137.209 42 135 42H4C1.79086 42 0 40.2091 0 38V25Z" fill="#F3D309"/>
    <ellipse cx="124" cy="24" rx="18" ry="5" fill="#F3D309"/>
    <path d="M29.434 34.208C28.6973 34.208 28.0127 34.091 27.38 33.857C26.756 33.623 26.2143 33.2937 25.755 32.869C25.2957 32.4357 24.936 31.9287 24.676 31.348C24.4247 30.7673 24.299 30.1347 24.299 29.45C24.299 28.7567 24.4247 28.124 24.676 27.552C24.936 26.9713 25.2957 26.4687 25.755 26.044C26.2143 25.6107 26.756 25.277 27.38 25.043C28.0127 24.809 28.6973 24.692 29.434 24.692C30.1793 24.692 30.864 24.809 31.488 25.043C32.112 25.277 32.6537 25.6107 33.113 26.044C33.5723 26.4687 33.9277 26.9713 34.179 27.552C34.439 28.124 34.569 28.7567 34.569 29.45C34.569 30.1347 34.439 30.7673 34.179 31.348C33.9277 31.9287 33.5723 32.4357 33.113 32.869C32.6537 33.2937 32.112 33.623 31.488 33.857C30.864 34.091 30.1793 34.208 29.434 34.208ZM29.434 31.725C29.72 31.725 29.9843 31.673 30.227 31.569C30.4783 31.465 30.695 31.3177 30.877 31.127C31.0677 30.9277 31.215 30.6893 31.319 30.412C31.423 30.126 31.475 29.8053 31.475 29.45C31.475 29.0947 31.423 28.7783 31.319 28.501C31.215 28.215 31.0677 27.9767 30.877 27.786C30.695 27.5867 30.4783 27.435 30.227 27.331C29.9843 27.227 29.72 27.175 29.434 27.175C29.148 27.175 28.8793 27.227 28.628 27.331C28.3853 27.435 28.1687 27.5867 27.978 27.786C27.796 27.9767 27.653 28.215 27.549 28.501C27.445 28.7783 27.393 29.0947 27.393 29.45C27.393 29.8053 27.445 30.126 27.549 30.412C27.653 30.6893 27.796 30.9277 27.978 31.127C28.1687 31.3177 28.3853 31.465 28.628 31.569C28.8793 31.673 29.148 31.725 29.434 31.725ZM35.6732 34V24.9H44.4742V34H41.4582V26.629L42.1212 27.279H38.0262L38.6892 26.629V34H35.6732ZM50.9843 27.695C52.0937 27.695 52.9603 27.9463 53.5843 28.449C54.217 28.943 54.5333 29.6927 54.5333 30.698C54.5333 31.7813 54.178 32.6047 53.4673 33.168C52.7567 33.7227 51.799 34 50.5943 34H46.0833V24.9H49.0993V27.695H50.9843ZM50.3863 31.855C50.6897 31.855 50.941 31.7597 51.1403 31.569C51.3483 31.3697 51.4523 31.0967 51.4523 30.75C51.4523 30.4033 51.3483 30.165 51.1403 30.035C50.941 29.905 50.6897 29.84 50.3863 29.84H49.0993V31.855H50.3863ZM55.3653 34V24.9H58.3813V34H55.3653ZM62.0644 34V26.616L62.7274 27.279H59.3994V24.9H67.7454V27.279H64.4174L65.0804 26.616V34H62.0644ZM72.5636 33.012V30.802L78.3616 28.813V30.087L72.5636 28.098V25.888L79.1936 28.293V30.607L72.5636 33.012ZM84.1716 34V32.115L87.4606 29.073C87.6686 28.8737 87.8203 28.7003 87.9156 28.553C88.0196 28.4057 88.089 28.2757 88.1236 28.163C88.1583 28.0417 88.1756 27.929 88.1756 27.825C88.1756 27.5997 88.102 27.4263 87.9546 27.305C87.8073 27.175 87.5863 27.11 87.2916 27.11C87.023 27.11 86.7673 27.1837 86.5246 27.331C86.282 27.4697 86.0913 27.6777 85.9526 27.955L83.6386 26.798C83.968 26.174 84.462 25.667 85.1206 25.277C85.7793 24.887 86.5983 24.692 87.5776 24.692C88.297 24.692 88.934 24.809 89.4886 25.043C90.0433 25.277 90.4766 25.6063 90.7886 26.031C91.1006 26.4557 91.2566 26.9583 91.2566 27.539C91.2566 27.8337 91.2176 28.1283 91.1396 28.423C91.0703 28.7177 90.923 29.0297 90.6976 29.359C90.4723 29.6797 90.1386 30.0393 89.6966 30.438L87.2266 32.687L86.7456 31.621H91.4646V34H84.1716ZM92.3018 31.348V29.138H96.2018V31.348H92.3018ZM96.3624 34L99.7164 29.606L99.6384 31.296L96.4404 26.889H99.7554L101.328 29.242L100.106 29.333L101.835 26.889H104.916L101.705 31.153V29.528L104.981 34H101.614L99.9894 31.491L101.224 31.66L99.5474 34H96.3624ZM110.325 34.169C110.134 34.169 109.93 34.156 109.714 34.13C109.497 34.104 109.267 34.0607 109.025 34L109.181 31.543C109.302 31.569 109.415 31.582 109.519 31.582C109.857 31.582 110.108 31.4433 110.273 31.166C110.437 30.8887 110.55 30.516 110.611 30.048C110.671 29.5713 110.71 29.0383 110.728 28.449L110.845 24.9H118.528V34H115.512V26.629L116.175 27.279H112.86L113.458 26.59L113.406 28.332C113.38 29.2073 113.319 30.0047 113.224 30.724C113.137 31.4347 112.985 32.05 112.769 32.57C112.552 33.0813 112.244 33.4757 111.846 33.753C111.456 34.0303 110.949 34.169 110.325 34.169ZM122.943 28.28H126.999V30.49H122.943V28.28ZM123.151 31.686H127.701V34H120.135V24.9H127.532V27.214H123.151V31.686ZM131.013 34V26.616L131.676 27.279H128.348V24.9H136.694V27.279H133.366L134.029 26.616V34H131.013Z" fill="black"/>
    <circle cx="14" cy="29" r="7" fill="black"/>
    <path d="M12.1467 25.6667H15.85C17.0367 25.6667 17.3334 25.9633 17.3334 27.1467V29.2567C17.3334 30.4433 17.0367 30.7367 15.8534 30.7367H12.1467C10.9634 30.74 10.6667 30.4433 10.6667 29.26V27.1467C10.6667 25.9633 10.9634 25.6667 12.1467 25.6667Z" stroke="#F3D309" stroke-linecap="round" stroke-linejoin="round"/>
    <path d="M14 30.74V32.3333" stroke="#F3D309" stroke-linecap="round" stroke-linejoin="round"/>
    <path d="M10.6667 29.3333H17.3334" stroke="#F3D309" stroke-linecap="round" stroke-linejoin="round"/>
    <path d="M12.5 32.3333H15.5" stroke="#F3D309" stroke-linecap="round" stroke-linejoin="round"/>
    <defs>
        <filter id="filter0_d_0_1" x="164" y="10" width="11" height="11" filterUnits="userSpaceOnUse" color-interpolation-filters="sRGB">
            <feFlood flood-opacity="0" result="BackgroundImageFix"/>
            <feColorMatrix in="SourceAlpha" type="matrix" values="0 0 0 0 0 0 0 0 0 0 0 0 0 0 0 0 0 0 127 0" result="hardAlpha"/>
            <feOffset dy="1"/>
            <feGaussianBlur stdDeviation="1.5"/>
            <feColorMatrix type="matrix" values="0 0 0 0 0 0 0 0 0 0 0 0 0 0 0 0 0 0 0.2 0"/>
            <feBlend mode="normal" in2="BackgroundImageFix" result="effect1_dropShadow_0_1"/>
            <feBlend mode="normal" in="SourceGraphic" in2="effect1_dropShadow_0_1" result="shape"/>
        </filter>
    </defs>
</svg>
