<svg width="24" height="22" viewBox="0 0 24 22" fill="none"
    xmlns="http://www.w3.org/2000/svg">
    <path d="M19.6031 7.30609C19.35 7.22172 19.0969 7.14203 18.8438 7.06703C18.8859 6.89359 18.9234 6.72015 18.9609 6.54672C19.5375 3.75297 19.1578 1.50765 17.8781 0.767029C16.6453 0.0592161 14.6344 0.795154 12.6 2.56703C12.3984 2.74047 12.2016 2.92328 12.0141 3.10609C11.8875 2.98422 11.7562 2.86234 11.625 2.74515C9.49219 0.851404 7.35469 0.0545286 6.075 0.799841C4.84688 1.51234 4.48125 3.6264 4.99687 6.27015C5.04844 6.53265 5.10469 6.79047 5.17031 7.05297C4.87031 7.13734 4.575 7.23109 4.29844 7.32953C1.79531 8.19672 0 9.56547 0 10.9811C0 12.4436 1.9125 13.9108 4.51406 14.8014C4.725 14.8717 4.93594 14.942 5.15156 15.003C5.08125 15.2842 5.02031 15.5608 4.96406 15.8467C4.47188 18.4483 4.85625 20.5108 6.08438 21.2186C7.35 21.9498 9.47812 21.1998 11.55 19.3858C11.7141 19.2405 11.8781 19.0905 12.0422 18.9311C12.2484 19.1327 12.4641 19.3248 12.6797 19.5123C14.6859 21.2373 16.6688 21.9358 17.8922 21.228C19.1578 20.4967 19.5703 18.2795 19.0359 15.5795C18.9938 15.3733 18.9469 15.1623 18.8953 14.9467C19.0453 14.9045 19.1906 14.8577 19.3359 14.8108C22.0406 13.9155 24 12.467 24 10.9811C24 9.56078 22.1531 8.18265 19.6031 7.30609V7.30609ZM13.2609 3.3264C15.0047 1.80765 16.6313 1.21234 17.3719 1.6389C18.1641 2.09359 18.4687 3.93109 17.9719 6.34515C17.9391 6.50453 17.9063 6.65922 17.8641 6.8139C16.8234 6.57953 15.7687 6.41078 14.7094 6.31703C14.1 5.44515 13.4344 4.61078 12.7125 3.82797C12.8953 3.65453 13.0734 3.49047 13.2609 3.3264V3.3264ZM7.8375 13.4139C8.07656 13.8217 8.32031 14.2295 8.57812 14.628C7.84687 14.5483 7.12031 14.4311 6.40313 14.2764C6.60938 13.6014 6.86719 12.903 7.16719 12.1905C7.38281 12.603 7.60312 13.0108 7.8375 13.4139V13.4139ZM6.41719 7.77484C7.09219 7.62484 7.80938 7.50297 8.55469 7.40922C8.30625 7.79828 8.0625 8.19672 7.83281 8.59984C7.60313 8.99828 7.37812 9.40609 7.16719 9.81859C6.87187 9.12015 6.62344 8.43578 6.41719 7.77484ZM7.70156 11.0045C8.01094 10.3577 8.34844 9.72484 8.70469 9.1014C9.06094 8.47797 9.44531 7.87328 9.84844 7.27797C10.5516 7.2264 11.2687 7.19828 12 7.19828C12.7313 7.19828 13.4531 7.2264 14.1516 7.27797C14.55 7.86859 14.9297 8.47328 15.2906 9.09203C15.6516 9.71078 15.9891 10.3436 16.3078 10.9858C15.9937 11.6327 15.6562 12.2702 15.2953 12.8983C14.9391 13.5217 14.5594 14.1264 14.1609 14.7264C13.4625 14.778 12.7359 14.8014 12 14.8014C11.2641 14.8014 10.5516 14.778 9.8625 14.7358C9.45469 14.1405 9.07031 13.5311 8.70938 12.9077C8.34844 12.2842 8.01563 11.6514 7.70156 11.0045ZM16.1672 13.4045C16.4062 12.992 16.6313 12.5748 16.8516 12.153C17.1516 12.8327 17.4141 13.5217 17.6437 14.2295C16.9172 14.3936 16.1812 14.5202 15.4406 14.6045C15.6937 14.2108 15.9328 13.8077 16.1672 13.4045ZM16.8422 9.81859C16.6219 9.40609 16.3969 8.99359 16.1625 8.59047C15.9328 8.19203 15.6938 7.79828 15.4453 7.40922C16.2 7.50297 16.9219 7.62953 17.5969 7.78422C17.3812 8.47797 17.1281 9.15297 16.8422 9.81859V9.81859ZM12.0094 4.54515C12.5016 5.07953 12.9656 5.64203 13.3969 6.22328C12.4687 6.18109 11.5359 6.18109 10.6078 6.22328C11.0672 5.61859 11.5406 5.05609 12.0094 4.54515ZM6.57187 1.67172C7.35937 1.21234 9.10781 1.86859 10.95 3.49984C11.0672 3.60297 11.1844 3.71547 11.3062 3.82797C10.5797 4.61078 9.90938 5.44515 9.29531 6.31703C8.23594 6.41078 7.18594 6.57484 6.14531 6.80453C6.08438 6.56547 6.03281 6.32172 5.98125 6.07797C5.54062 3.80922 5.83125 2.09828 6.57187 1.67172V1.67172ZM5.42344 14.028C5.22656 13.9717 5.03438 13.9108 4.84219 13.8452C3.84375 13.5311 2.70937 13.0342 1.88906 12.3827C1.41562 12.0545 1.09687 11.5483 1.00781 10.9811C1.00781 10.1233 2.48906 9.0264 4.62656 8.28109C4.89375 8.18734 5.16562 8.10297 5.4375 8.02328C5.75625 9.04047 6.14062 10.0389 6.58594 11.0045C6.13594 11.9842 5.74687 12.9967 5.42344 14.028V14.028ZM10.8891 18.6217C10.1156 19.3295 9.22031 19.892 8.24531 20.2764C7.725 20.5248 7.125 20.5483 6.59063 20.3373C5.84531 19.9061 5.53594 18.2514 5.95781 16.0248C6.00937 15.7623 6.06563 15.4998 6.13125 15.242C7.18125 15.467 8.24062 15.6217 9.31406 15.7014C9.93281 16.578 10.6125 17.417 11.3391 18.2045C11.1891 18.3498 11.0391 18.4905 10.8891 18.6217ZM12.0375 17.4827C11.5594 16.967 11.0812 16.3952 10.6172 15.7811C11.0672 15.7998 11.5312 15.8092 12 15.8092C12.4828 15.8092 12.9562 15.7998 13.425 15.7764C12.9937 16.3717 12.5297 16.9389 12.0375 17.4827V17.4827ZM18.1641 18.8889C18.1219 19.4608 17.8406 19.9952 17.3906 20.3561C16.6453 20.7873 15.0563 20.2248 13.3406 18.753C13.1438 18.5842 12.9469 18.4014 12.7453 18.2139C13.4625 17.4217 14.1234 16.5827 14.7234 15.7014C15.7969 15.6123 16.8656 15.4483 17.9203 15.2092C17.9672 15.4014 18.0094 15.5936 18.0469 15.7811C18.2766 16.7936 18.3141 17.8483 18.1641 18.8889V18.8889ZM19.0172 13.8498C18.8859 13.892 18.7547 13.9342 18.6188 13.9717C18.2906 12.9498 17.8875 11.9514 17.4234 10.9811C17.8734 10.0248 18.2531 9.04047 18.5719 8.03265C18.8156 8.10297 19.05 8.17797 19.275 8.25297C21.4594 9.00297 22.9922 10.1186 22.9922 10.9717C22.9922 11.8905 21.3563 13.0764 19.0172 13.8498ZM12 13.1467C13.1859 13.1467 14.1469 12.1858 14.1469 10.9998C14.1469 9.8139 13.1859 8.85297 12 8.85297C10.8141 8.85297 9.85312 9.8139 9.85312 10.9998C9.85312 12.1858 10.8141 13.1467 12 13.1467Z" fill="#70cdc5"/>
</svg>
