<svg width="142" height="75" viewBox="0 0 142 75" fill="none"
    xmlns="http://www.w3.org/2000/svg">
    <rect width="142" height="75" rx="4" fill="#70CDC5"/>
    <path d="M123.794 61.7002L123.794 61.7002L124.681 60.8135C124.681 60.8135 124.681 60.8135 124.681 60.8135C124.817 60.6777 124.917 60.5032 124.983 60.3438C125.049 60.1846 125.102 59.991 125.102 59.8008V58.5467C125.102 58.3095 125.298 58.1133 125.535 58.1133H126.789C126.979 58.1133 127.173 58.061 127.332 57.995C127.492 57.9289 127.666 57.8285 127.802 57.6927L127.802 57.6927L128.689 56.806C128.689 56.806 128.689 56.806 128.689 56.806C128.855 56.6396 129.133 56.6396 129.3 56.806L130.186 57.6927C130.322 57.8285 130.497 57.9289 130.656 57.995C130.815 58.061 131.009 58.1133 131.199 58.1133H132.453C132.69 58.1133 132.887 58.3094 132.887 58.5467V59.8008C132.887 59.991 132.939 60.1846 133.005 60.3438C133.071 60.5032 133.171 60.6777 133.307 60.8135L134.194 61.7002C134.36 61.8666 134.36 62.145 134.194 62.3114L133.307 63.1981L133.307 63.1981C133.171 63.3339 133.071 63.5084 133.005 63.6678C132.939 63.827 132.887 64.0206 132.887 64.2108V65.465C132.887 65.7022 132.691 65.8983 132.453 65.8983H131.199C131.009 65.8983 130.815 65.9506 130.656 66.0167C130.497 66.0828 130.322 66.1831 130.186 66.3189L129.3 67.2056C129.133 67.372 128.855 67.372 128.689 67.2056L127.802 66.3189L127.448 66.6725L127.802 66.3189C127.666 66.1831 127.492 66.0828 127.332 66.0167C127.173 65.9506 126.979 65.8983 126.789 65.8983H125.535C125.298 65.8983 125.102 65.7022 125.102 65.465V64.2108C125.102 64.0192 125.05 63.8246 124.983 63.6635C124.918 63.505 124.817 63.3301 124.678 63.1952L123.794 62.3114C123.794 62.3114 123.794 62.3114 123.794 62.3114C123.628 62.145 123.628 61.8666 123.794 61.7002Z" fill="black" stroke="black"/>
    <path d="M20.123 23.272C19.171 23.272 18.287 23.1247 17.471 22.83C16.6663 22.524 15.9637 22.0933 15.363 21.538C14.7737 20.9827 14.3147 20.3253 13.986 19.566C13.6573 18.8067 13.493 17.968 13.493 17.05C13.493 16.132 13.6573 15.2933 13.986 14.534C14.3147 13.7747 14.7737 13.1173 15.363 12.562C15.9637 12.0067 16.6663 11.5817 17.471 11.287C18.287 10.981 19.171 10.828 20.123 10.828C21.2903 10.828 22.3217 11.032 23.217 11.44C24.1237 11.848 24.8717 12.4373 25.461 13.208L22.928 15.469C22.5767 15.027 22.1857 14.687 21.755 14.449C21.3357 14.1997 20.8597 14.075 20.327 14.075C19.9077 14.075 19.528 14.143 19.188 14.279C18.848 14.415 18.5533 14.6133 18.304 14.874C18.066 15.1347 17.879 15.452 17.743 15.826C17.607 16.1887 17.539 16.5967 17.539 17.05C17.539 17.5033 17.607 17.917 17.743 18.291C17.879 18.6537 18.066 18.9653 18.304 19.226C18.5533 19.4867 18.848 19.685 19.188 19.821C19.528 19.957 19.9077 20.025 20.327 20.025C20.8597 20.025 21.3357 19.906 21.755 19.668C22.1857 19.4187 22.5767 19.073 22.928 18.631L25.461 20.892C24.8717 21.6513 24.1237 22.2407 23.217 22.66C22.3217 23.068 21.2903 23.272 20.123 23.272ZM26.6194 23V11.1H30.6314V19.889H36.0034V23H26.6194ZM40.7836 15.52H46.0876V18.41H40.7836V15.52ZM41.0556 19.974H47.0056V23H37.1116V11.1H46.7846V14.126H41.0556V19.974ZM47.2581 23L52.4601 11.1H56.4041L61.6061 23H57.4581L53.6161 13.004H55.1801L51.3381 23H47.2581ZM50.3521 20.926L51.3721 18.036H56.8461L57.8661 20.926H50.3521ZM62.2463 23V11.1H65.5443L71.5963 18.342H70.0663V11.1H73.9763V23H70.6783L64.6263 15.758H66.1563V23H62.2463ZM20.123 44.272C19.171 44.272 18.287 44.1247 17.471 43.83C16.6663 43.524 15.9637 43.0933 15.363 42.538C14.7737 41.9827 14.3147 41.3253 13.986 40.566C13.6573 39.8067 13.493 38.968 13.493 38.05C13.493 37.132 13.6573 36.2933 13.986 35.534C14.3147 34.7747 14.7737 34.1173 15.363 33.562C15.9637 33.0067 16.6663 32.5817 17.471 32.287C18.287 31.981 19.171 31.828 20.123 31.828C21.2903 31.828 22.3217 32.032 23.217 32.44C24.1237 32.848 24.8717 33.4373 25.461 34.208L22.928 36.469C22.5767 36.027 22.1857 35.687 21.755 35.449C21.3357 35.1997 20.8597 35.075 20.327 35.075C19.9077 35.075 19.528 35.143 19.188 35.279C18.848 35.415 18.5533 35.6133 18.304 35.874C18.066 36.1347 17.879 36.452 17.743 36.826C17.607 37.1887 17.539 37.5967 17.539 38.05C17.539 38.5033 17.607 38.917 17.743 39.291C17.879 39.6537 18.066 39.9653 18.304 40.226C18.5533 40.4867 18.848 40.685 19.188 40.821C19.528 40.957 19.9077 41.025 20.327 41.025C20.8597 41.025 21.3357 40.906 21.755 40.668C22.1857 40.4187 22.5767 40.073 22.928 39.631L25.461 41.892C24.8717 42.6513 24.1237 43.2407 23.217 43.66C22.3217 44.068 21.2903 44.272 20.123 44.272ZM32.6094 44.272C31.646 44.272 30.7507 44.119 29.9234 43.813C29.1074 43.507 28.399 43.0763 27.7984 42.521C27.1977 41.9543 26.7274 41.2913 26.3874 40.532C26.0587 39.7727 25.8944 38.9453 25.8944 38.05C25.8944 37.1433 26.0587 36.316 26.3874 35.568C26.7274 34.8087 27.1977 34.1513 27.7984 33.596C28.399 33.0293 29.1074 32.593 29.9234 32.287C30.7507 31.981 31.646 31.828 32.6094 31.828C33.584 31.828 34.4794 31.981 35.2954 32.287C36.1114 32.593 36.8197 33.0293 37.4204 33.596C38.021 34.1513 38.4857 34.8087 38.8144 35.568C39.1544 36.316 39.3244 37.1433 39.3244 38.05C39.3244 38.9453 39.1544 39.7727 38.8144 40.532C38.4857 41.2913 38.021 41.9543 37.4204 42.521C36.8197 43.0763 36.1114 43.507 35.2954 43.813C34.4794 44.119 33.584 44.272 32.6094 44.272ZM32.6094 41.025C32.9834 41.025 33.329 40.957 33.6464 40.821C33.975 40.685 34.2584 40.4923 34.4964 40.243C34.7457 39.9823 34.9384 39.6707 35.0744 39.308C35.2104 38.934 35.2784 38.5147 35.2784 38.05C35.2784 37.5853 35.2104 37.1717 35.0744 36.809C34.9384 36.435 34.7457 36.1233 34.4964 35.874C34.2584 35.6133 33.975 35.415 33.6464 35.279C33.329 35.143 32.9834 35.075 32.6094 35.075C32.2354 35.075 31.884 35.143 31.5554 35.279C31.238 35.415 30.9547 35.6133 30.7054 35.874C30.4674 36.1233 30.2804 36.435 30.1444 36.809C30.0084 37.1717 29.9404 37.5853 29.9404 38.05C29.9404 38.5147 30.0084 38.934 30.1444 39.308C30.2804 39.6707 30.4674 39.9823 30.7054 40.243C30.9547 40.4923 31.238 40.685 31.5554 40.821C31.884 40.957 32.2354 41.025 32.6094 41.025ZM40.7805 44V32.1H46.6455C47.9715 32.1 49.1389 32.3437 50.1475 32.831C51.1562 33.307 51.9439 33.987 52.5105 34.871C53.0772 35.755 53.3605 36.809 53.3605 38.033C53.3605 39.2683 53.0772 40.3337 52.5105 41.229C51.9439 42.113 51.1562 42.7987 50.1475 43.286C49.1389 43.762 47.9715 44 46.6455 44H40.7805ZM44.7925 40.872H46.4755C47.0422 40.872 47.5352 40.7643 47.9545 40.549C48.3852 40.3337 48.7195 40.0163 48.9575 39.597C49.1955 39.1663 49.3145 38.645 49.3145 38.033C49.3145 37.4323 49.1955 36.9223 48.9575 36.503C48.7195 36.0837 48.3852 35.7663 47.9545 35.551C47.5352 35.3357 47.0422 35.228 46.4755 35.228H44.7925V40.872ZM58.4974 36.52H63.8014V39.41H58.4974V36.52ZM58.7694 40.974H64.7194V44H54.8254V32.1H64.4984V35.126H58.7694V40.974ZM76.8686 44.051C76.0186 44.051 75.2309 43.898 74.5056 43.592C73.7803 43.286 73.1456 42.861 72.6016 42.317C72.0576 41.7617 71.6326 41.1213 71.3266 40.396C71.0319 39.6707 70.8846 38.8887 70.8846 38.05C70.8846 37.2113 71.0376 36.4293 71.3436 35.704C71.6496 34.9787 72.0746 34.344 72.6186 33.8C73.1626 33.2447 73.7973 32.814 74.5226 32.508C75.2593 32.202 76.0526 32.049 76.9026 32.049C77.7526 32.049 78.5403 32.202 79.2656 32.508C80.0023 32.8027 80.6369 33.222 81.1696 33.766C81.7136 34.31 82.1329 34.9447 82.4276 35.67C82.7336 36.384 82.8866 37.166 82.8866 38.016C82.8866 38.866 82.7336 39.6593 82.4276 40.396C82.1216 41.1213 81.6909 41.7617 81.1356 42.317C80.5916 42.861 79.9569 43.286 79.2316 43.592C78.5063 43.898 77.7186 44.051 76.8686 44.051ZM76.8686 42.555C77.5033 42.555 78.0869 42.4417 78.6196 42.215C79.1636 41.977 79.6339 41.654 80.0306 41.246C80.4273 40.838 80.7333 40.362 80.9486 39.818C81.1753 39.2627 81.2886 38.662 81.2886 38.016C81.2886 37.37 81.1809 36.775 80.9656 36.231C80.7503 35.687 80.4499 35.2167 80.0646 34.82C79.6793 34.412 79.2146 34.1003 78.6706 33.885C78.1379 33.6583 77.5486 33.545 76.9026 33.545C76.2566 33.545 75.6616 33.6583 75.1176 33.885C74.5849 34.1117 74.1203 34.429 73.7236 34.837C73.3269 35.245 73.0209 35.7267 72.8056 36.282C72.5903 36.826 72.4826 37.4153 72.4826 38.05C72.4826 38.6847 72.5903 39.2797 72.8056 39.835C73.0209 40.379 73.3213 40.855 73.7066 41.263C74.1033 41.671 74.5679 41.9883 75.1006 42.215C75.6446 42.4417 76.2339 42.555 76.8686 42.555ZM77.1406 41.416C76.4266 41.416 75.7919 41.2743 75.2366 40.991C74.6926 40.6963 74.2619 40.2997 73.9446 39.801C73.6273 39.291 73.4686 38.7073 73.4686 38.05C73.4686 37.3927 73.6273 36.8147 73.9446 36.316C74.2619 35.806 74.6926 35.4093 75.2366 35.126C75.7919 34.8313 76.4266 34.684 77.1406 34.684C77.8999 34.684 78.5459 34.854 79.0786 35.194C79.6226 35.534 79.9966 36.0043 80.2006 36.605L78.0246 37.71C77.9113 37.4607 77.7809 37.285 77.6336 37.183C77.4863 37.081 77.3163 37.03 77.1236 37.03C76.9763 37.03 76.8346 37.0697 76.6986 37.149C76.5739 37.217 76.4663 37.3303 76.3756 37.489C76.2963 37.6363 76.2566 37.8233 76.2566 38.05C76.2566 38.2767 76.2963 38.4693 76.3756 38.628C76.4663 38.7753 76.5739 38.8887 76.6986 38.968C76.8346 39.036 76.9763 39.07 77.1236 39.07C77.3163 39.07 77.4863 39.019 77.6336 38.917C77.7809 38.815 77.9113 38.6393 78.0246 38.39L80.2006 39.495C79.9966 40.0843 79.6226 40.5547 79.0786 40.906C78.5459 41.246 77.8999 41.416 77.1406 41.416Z" fill="black"/>
    <path d="M21.87 53.67L18.45 55.75L16.89 53.19C16.32 52.25 16.62 51.01 17.56 50.44C18.5 49.87 19.74 50.17 20.31 51.11L21.87 53.67Z" stroke="black" stroke-width="1.5" stroke-linecap="round" stroke-linejoin="round"/>
    <path d="M23.82 57.16L20.66 59.08C18.82 60.2 18.26 62.46 19.15 64.26L21.2 68.44C21.86 69.79 23.46 70.26 24.74 69.47L31.17 65.56C32.46 64.78 32.77 63.15 31.88 61.94L29.11 58.2C27.91 56.58 25.66 56.04 23.82 57.16Z" stroke="black" stroke-width="1.5" stroke-linecap="round" stroke-linejoin="round"/>
    <path d="M22.7567 53.098L17.6321 56.2186L19.7125 59.635L24.8371 56.5144L22.7567 53.098Z" stroke="black" stroke-width="1.5" stroke-linecap="round" stroke-linejoin="round"/>
    <path d="M26.31 64.81L27.96 67.52" stroke="black" stroke-width="1.5" stroke-linecap="round" stroke-linejoin="round"/>
    <path d="M23.75 66.37L25.4 69.08" stroke="black" stroke-width="1.5" stroke-linecap="round" stroke-linejoin="round"/>
    <path d="M28.87 63.25L30.52 65.96" stroke="black" stroke-width="1.5" stroke-linecap="round" stroke-linejoin="round"/>
</svg>
