<svg width="142" height="75" viewBox="0 0 142 75" fill="none"
    xmlns="http://www.w3.org/2000/svg">
    <rect width="142" height="75" rx="4" fill="#70CDC5"/>
    <path d="M123.794 61.7002L123.794 61.7002L124.681 60.8135C124.681 60.8135 124.681 60.8135 124.681 60.8135C124.817 60.6777 124.917 60.5032 124.983 60.3438C125.049 60.1846 125.102 59.991 125.102 59.8008V58.5467C125.102 58.3095 125.298 58.1133 125.535 58.1133H126.789C126.979 58.1133 127.173 58.061 127.332 57.995C127.492 57.9289 127.666 57.8285 127.802 57.6927L127.802 57.6927L128.689 56.806C128.855 56.6396 129.133 56.6396 129.3 56.806L130.186 57.6927C130.322 57.8285 130.497 57.9289 130.656 57.995C130.815 58.061 131.009 58.1133 131.199 58.1133H132.453C132.69 58.1133 132.887 58.3094 132.887 58.5467V59.8008C132.887 59.991 132.939 60.1846 133.005 60.3438C133.071 60.5032 133.171 60.6777 133.307 60.8135L134.194 61.7002C134.36 61.8666 134.36 62.145 134.194 62.3114C134.194 62.3114 134.194 62.3114 134.194 62.3114L133.307 63.1981L133.307 63.1981C133.171 63.3339 133.071 63.5084 133.005 63.6678C132.939 63.827 132.887 64.0206 132.887 64.2108V65.465C132.887 65.7022 132.691 65.8983 132.453 65.8983H131.199C131.009 65.8983 130.815 65.9506 130.656 66.0167C130.497 66.0828 130.322 66.1831 130.186 66.3189L129.3 67.2056C129.133 67.372 128.855 67.372 128.689 67.2056L127.802 66.3189L127.448 66.6725L127.802 66.3189C127.666 66.1831 127.492 66.0828 127.332 66.0167C127.173 65.9506 126.979 65.8983 126.789 65.8983H125.535C125.298 65.8983 125.102 65.7022 125.102 65.465V64.2108C125.102 64.0192 125.05 63.8246 124.983 63.6635C124.918 63.505 124.817 63.3301 124.678 63.1952L123.794 62.3114C123.628 62.145 123.628 61.8666 123.794 61.7002Z" fill="black" stroke="black"/>
    <path d="M21.534 19.005C21.024 19.1863 20.548 19.3223 20.106 19.413C19.6753 19.5037 19.256 19.549 18.848 19.549C17.1027 19.549 15.771 19.1353 14.853 18.308C13.9463 17.4807 13.493 16.2737 13.493 14.687V11.1H17.437V14.245C17.437 14.9703 17.5957 15.5087 17.913 15.86C18.2303 16.2 18.712 16.37 19.358 16.37C19.8 16.37 20.1967 16.3303 20.548 16.251C20.8993 16.1603 21.194 16.0357 21.432 15.877L21.534 19.005ZM21.007 23V11.1H24.951V23H21.007ZM27.053 23V11.1H30.997V17.288L35.094 11.1H38.868V23H34.924V16.829L30.844 23H27.053ZM46.9657 23.272C46.0137 23.272 45.1297 23.1247 44.3137 22.83C43.5091 22.524 42.8064 22.0933 42.2057 21.538C41.6164 20.9827 41.1574 20.3253 40.8287 19.566C40.5001 18.8067 40.3357 17.968 40.3357 17.05C40.3357 16.132 40.5001 15.2933 40.8287 14.534C41.1574 13.7747 41.6164 13.1173 42.2057 12.562C42.8064 12.0067 43.5091 11.5817 44.3137 11.287C45.1297 10.981 46.0137 10.828 46.9657 10.828C48.1331 10.828 49.1644 11.032 50.0597 11.44C50.9664 11.848 51.7144 12.4373 52.3037 13.208L49.7707 15.469C49.4194 15.027 49.0284 14.687 48.5977 14.449C48.1784 14.1997 47.7024 14.075 47.1697 14.075C46.7504 14.075 46.3707 14.143 46.0307 14.279C45.6907 14.415 45.3961 14.6133 45.1467 14.874C44.9087 15.1347 44.7217 15.452 44.5857 15.826C44.4497 16.1887 44.3817 16.5967 44.3817 17.05C44.3817 17.5033 44.4497 17.917 44.5857 18.291C44.7217 18.6537 44.9087 18.9653 45.1467 19.226C45.3961 19.4867 45.6907 19.685 46.0307 19.821C46.3707 19.957 46.7504 20.025 47.1697 20.025C47.7024 20.025 48.1784 19.906 48.5977 19.668C49.0284 19.4187 49.4194 19.073 49.7707 18.631L52.3037 20.892C51.7144 21.6513 50.9664 22.2407 50.0597 22.66C49.1644 23.068 48.1331 23.272 46.9657 23.272ZM56.1359 23V13.344L57.0029 14.211H52.6509V11.1H63.5649V14.211H59.2129L60.0799 13.344V23H56.1359ZM71.297 14.755C72.7477 14.755 73.881 15.0837 74.697 15.741C75.5243 16.387 75.938 17.3673 75.938 18.682C75.938 20.0987 75.4733 21.1753 74.544 21.912C73.6147 22.6373 72.3623 23 70.787 23H64.888V11.1H68.832V14.755H71.297ZM70.515 20.195C70.9117 20.195 71.2403 20.0703 71.501 19.821C71.773 19.5603 71.909 19.2033 71.909 18.75C71.909 18.2967 71.773 17.985 71.501 17.815C71.2403 17.645 70.9117 17.56 70.515 17.56H68.832V20.195H70.515ZM77.026 23V11.1H80.97V23H77.026ZM83.0833 23V11.1H87.0273V17.288L91.1243 11.1H94.8983V23H90.9543V16.829L86.8743 23H83.0833ZM88.9823 10.42C87.6336 10.42 86.676 10.1707 86.1093 9.672C85.554 9.162 85.2763 8.43667 85.2763 7.496H87.9453C87.9453 7.87 88.019 8.14767 88.1663 8.329C88.325 8.499 88.597 8.584 88.9823 8.584C89.379 8.584 89.6566 8.499 89.8153 8.329C89.974 8.14767 90.0533 7.87 90.0533 7.496H92.7223C92.7223 8.43667 92.4333 9.162 91.8553 9.672C91.2886 10.1707 90.331 10.42 88.9823 10.42ZM21.364 44L18.406 38.424L21.602 36.554L25.886 44H21.364ZM13.952 44V32.1H17.964V44H13.952ZM16.808 39.699V36.537H21.313V39.699H16.808ZM21.993 38.475L18.304 38.101L21.721 32.1H25.903L21.993 38.475ZM32.6734 44.272C31.71 44.272 30.8147 44.119 29.9874 43.813C29.1714 43.507 28.463 43.0763 27.8624 42.521C27.2617 41.9543 26.7914 41.2913 26.4514 40.532C26.1227 39.7727 25.9584 38.9453 25.9584 38.05C25.9584 37.1433 26.1227 36.316 26.4514 35.568C26.7914 34.8087 27.2617 34.1513 27.8624 33.596C28.463 33.0293 29.1714 32.593 29.9874 32.287C30.8147 31.981 31.71 31.828 32.6734 31.828C33.648 31.828 34.5434 31.981 35.3594 32.287C36.1754 32.593 36.8837 33.0293 37.4844 33.596C38.085 34.1513 38.5497 34.8087 38.8784 35.568C39.2184 36.316 39.3884 37.1433 39.3884 38.05C39.3884 38.9453 39.2184 39.7727 38.8784 40.532C38.5497 41.2913 38.085 41.9543 37.4844 42.521C36.8837 43.0763 36.1754 43.507 35.3594 43.813C34.5434 44.119 33.648 44.272 32.6734 44.272ZM32.6734 41.025C33.0474 41.025 33.3931 40.957 33.7104 40.821C34.039 40.685 34.3224 40.4923 34.5604 40.243C34.8097 39.9823 35.0024 39.6707 35.1384 39.308C35.2744 38.934 35.3424 38.5147 35.3424 38.05C35.3424 37.5853 35.2744 37.1717 35.1384 36.809C35.0024 36.435 34.8097 36.1233 34.5604 35.874C34.3224 35.6133 34.039 35.415 33.7104 35.279C33.3931 35.143 33.0474 35.075 32.6734 35.075C32.2994 35.075 31.948 35.143 31.6194 35.279C31.302 35.415 31.0187 35.6133 30.7694 35.874C30.5314 36.1233 30.3444 36.435 30.2084 36.809C30.0724 37.1717 30.0044 37.5853 30.0044 38.05C30.0044 38.5147 30.0724 38.934 30.2084 39.308C30.3444 39.6707 30.5314 39.9823 30.7694 40.243C31.0187 40.4923 31.302 40.685 31.6194 40.821C31.948 40.957 32.2994 41.025 32.6734 41.025ZM48.3373 42.3V35.211H45.6003L45.5663 36.061C45.5436 36.6843 45.504 37.268 45.4473 37.812C45.3906 38.356 45.3113 38.8547 45.2093 39.308C45.1186 39.7613 44.9996 40.1637 44.8523 40.515C44.705 40.855 44.5236 41.1383 44.3083 41.365L40.0753 40.889C40.4493 40.889 40.7553 40.7643 40.9933 40.515C41.2426 40.2543 41.441 39.8973 41.5883 39.444C41.7356 38.9793 41.8433 38.4353 41.9113 37.812C41.9906 37.1773 42.0473 36.4803 42.0813 35.721L42.2173 32.1H52.2813V42.3H48.3373ZM39.7353 46.329V40.889H53.8453V46.329H50.1733V44H43.4073V46.329H39.7353ZM65.7124 44.051C64.8624 44.051 64.0747 43.898 63.3494 43.592C62.624 43.286 61.9894 42.861 61.4454 42.317C60.9014 41.7617 60.4764 41.1213 60.1704 40.396C59.8757 39.6707 59.7284 38.8887 59.7284 38.05C59.7284 37.2113 59.8814 36.4293 60.1874 35.704C60.4934 34.9787 60.9184 34.344 61.4624 33.8C62.0064 33.2447 62.641 32.814 63.3664 32.508C64.103 32.202 64.8964 32.049 65.7464 32.049C66.5964 32.049 67.384 32.202 68.1094 32.508C68.846 32.8027 69.4807 33.222 70.0134 33.766C70.5574 34.31 70.9767 34.9447 71.2714 35.67C71.5774 36.384 71.7304 37.166 71.7304 38.016C71.7304 38.866 71.5774 39.6593 71.2714 40.396C70.9654 41.1213 70.5347 41.7617 69.9794 42.317C69.4354 42.861 68.8007 43.286 68.0754 43.592C67.35 43.898 66.5624 44.051 65.7124 44.051ZM65.7124 42.555C66.347 42.555 66.9307 42.4417 67.4634 42.215C68.0074 41.977 68.4777 41.654 68.8744 41.246C69.271 40.838 69.577 40.362 69.7924 39.818C70.019 39.2627 70.1324 38.662 70.1324 38.016C70.1324 37.37 70.0247 36.775 69.8094 36.231C69.594 35.687 69.2937 35.2167 68.9084 34.82C68.523 34.412 68.0584 34.1003 67.5144 33.885C66.9817 33.6583 66.3924 33.545 65.7464 33.545C65.1004 33.545 64.5054 33.6583 63.9614 33.885C63.4287 34.1117 62.964 34.429 62.5674 34.837C62.1707 35.245 61.8647 35.7267 61.6494 36.282C61.434 36.826 61.3264 37.4153 61.3264 38.05C61.3264 38.6847 61.434 39.2797 61.6494 39.835C61.8647 40.379 62.165 40.855 62.5504 41.263C62.947 41.671 63.4117 41.9883 63.9444 42.215C64.4884 42.4417 65.0777 42.555 65.7124 42.555ZM65.9844 41.416C65.2704 41.416 64.6357 41.2743 64.0804 40.991C63.5364 40.6963 63.1057 40.2997 62.7884 39.801C62.471 39.291 62.3124 38.7073 62.3124 38.05C62.3124 37.3927 62.471 36.8147 62.7884 36.316C63.1057 35.806 63.5364 35.4093 64.0804 35.126C64.6357 34.8313 65.2704 34.684 65.9844 34.684C66.7437 34.684 67.3897 34.854 67.9224 35.194C68.4664 35.534 68.8404 36.0043 69.0444 36.605L66.8684 37.71C66.755 37.4607 66.6247 37.285 66.4774 37.183C66.33 37.081 66.16 37.03 65.9674 37.03C65.82 37.03 65.6784 37.0697 65.5424 37.149C65.4177 37.217 65.31 37.3303 65.2194 37.489C65.14 37.6363 65.1004 37.8233 65.1004 38.05C65.1004 38.2767 65.14 38.4693 65.2194 38.628C65.31 38.7753 65.4177 38.8887 65.5424 38.968C65.6784 39.036 65.82 39.07 65.9674 39.07C66.16 39.07 66.33 39.019 66.4774 38.917C66.6247 38.815 66.755 38.6393 66.8684 38.39L69.0444 39.495C68.8404 40.0843 68.4664 40.5547 67.9224 40.906C67.3897 41.246 66.7437 41.416 65.9844 41.416Z" fill="black"/>
    <path d="M21.87 53.67L18.45 55.75L16.89 53.19C16.32 52.25 16.62 51.01 17.56 50.44C18.5 49.87 19.74 50.17 20.31 51.11L21.87 53.67Z" stroke="black" stroke-width="1.5" stroke-linecap="round" stroke-linejoin="round"/>
    <path d="M23.82 57.16L20.66 59.08C18.82 60.2 18.26 62.46 19.15 64.26L21.2 68.44C21.86 69.79 23.46 70.26 24.74 69.47L31.17 65.56C32.46 64.78 32.77 63.15 31.88 61.94L29.11 58.2C27.91 56.58 25.66 56.04 23.82 57.16Z" stroke="black" stroke-width="1.5" stroke-linecap="round" stroke-linejoin="round"/>
    <path d="M22.7567 53.098L17.6321 56.2186L19.7125 59.635L24.8371 56.5144L22.7567 53.098Z" stroke="black" stroke-width="1.5" stroke-linecap="round" stroke-linejoin="round"/>
    <path d="M26.31 64.81L27.96 67.52" stroke="black" stroke-width="1.5" stroke-linecap="round" stroke-linejoin="round"/>
    <path d="M23.75 66.37L25.4 69.08" stroke="black" stroke-width="1.5" stroke-linecap="round" stroke-linejoin="round"/>
    <path d="M28.87 63.25L30.52 65.96" stroke="black" stroke-width="1.5" stroke-linecap="round" stroke-linejoin="round"/>
</svg>
