<svg width="182" height="42" viewBox="0 0 182 42" fill="none"
    xmlns="http://www.w3.org/2000/svg">
    <path d="M0 4C0 1.79086 1.79086 0 4 0H178C180.209 0 182 1.79086 182 4V21C182 23.2091 180.209 25 178 25H0V4Z" fill="#F3D309"/>
    <path d="M7.741 17V7.9H12.122C12.9713 7.9 13.7037 8.03867 14.319 8.316C14.943 8.59333 15.424 8.992 15.762 9.512C16.1 10.0233 16.269 10.63 16.269 11.332C16.269 12.034 16.1 12.6407 15.762 13.152C15.424 13.6633 14.943 14.062 14.319 14.348C13.7037 14.6253 12.9713 14.764 12.122 14.764H9.444L10.809 13.451V17H7.741ZM10.809 13.789L9.444 12.398H11.927C12.3517 12.398 12.6637 12.3027 12.863 12.112C13.071 11.9213 13.175 11.6613 13.175 11.332C13.175 11.0027 13.071 10.7427 12.863 10.552C12.6637 10.3613 12.3517 10.266 11.927 10.266H9.444L10.809 8.875V13.789ZM17.3111 17V9.889H20.1061V12.034L19.6511 11.423C19.8678 10.8683 20.2145 10.4523 20.6911 10.175C21.1678 9.89767 21.7398 9.759 22.4071 9.759V12.359C22.2771 12.3417 22.1601 12.3287 22.0561 12.32C21.9608 12.3113 21.8611 12.307 21.7571 12.307C21.3151 12.307 20.9511 12.424 20.6651 12.658C20.3878 12.8833 20.2491 13.2777 20.2491 13.841V17H17.3111ZM26.9334 17.13C26.1274 17.13 25.4124 16.974 24.7884 16.662C24.173 16.3413 23.6877 15.9037 23.3324 15.349C22.977 14.7943 22.7994 14.1573 22.7994 13.438C22.7994 12.7187 22.977 12.0817 23.3324 11.527C23.6877 10.9723 24.173 10.539 24.7884 10.227C25.4124 9.915 26.1274 9.759 26.9334 9.759C27.7394 9.759 28.4544 9.915 29.0784 10.227C29.7024 10.539 30.1877 10.9723 30.5344 11.527C30.8897 12.0817 31.0674 12.7187 31.0674 13.438C31.0674 14.1573 30.8897 14.7943 30.5344 15.349C30.1877 15.9037 29.7024 16.3413 29.0784 16.662C28.4544 16.974 27.7394 17.13 26.9334 17.13ZM26.9334 14.842C27.15 14.842 27.345 14.79 27.5184 14.686C27.6917 14.582 27.8304 14.426 27.9344 14.218C28.0384 14.0013 28.0904 13.7413 28.0904 13.438C28.0904 13.126 28.0384 12.8703 27.9344 12.671C27.8304 12.463 27.6917 12.307 27.5184 12.203C27.345 12.099 27.15 12.047 26.9334 12.047C26.7167 12.047 26.5217 12.099 26.3484 12.203C26.175 12.307 26.0364 12.463 25.9324 12.671C25.8284 12.8703 25.7764 13.126 25.7764 13.438C25.7764 13.7413 25.8284 14.0013 25.9324 14.218C26.0364 14.426 26.175 14.582 26.3484 14.686C26.5217 14.79 26.7167 14.842 26.9334 14.842ZM32.3119 17V10.24C32.3119 9.32133 32.5849 8.589 33.1309 8.043C33.6856 7.497 34.4699 7.224 35.4839 7.224C35.7959 7.224 36.1079 7.25433 36.4199 7.315C36.7406 7.367 37.0092 7.45367 37.2259 7.575L36.5239 9.616C36.4286 9.57267 36.3246 9.53367 36.2119 9.499C36.0992 9.46433 35.9822 9.447 35.8609 9.447C35.6529 9.447 35.4839 9.512 35.3539 9.642C35.2239 9.772 35.1589 9.98 35.1589 10.266V10.604L35.2499 11.813V17H32.3119ZM31.3369 12.424V10.279H36.7059V12.424H31.3369ZM38.101 17V10.24C38.101 9.32133 38.374 8.589 38.92 8.043C39.4746 7.497 40.259 7.224 41.273 7.224C41.585 7.224 41.897 7.25433 42.209 7.315C42.5296 7.367 42.7983 7.45367 43.015 7.575L42.313 9.616C42.2176 9.57267 42.1136 9.53367 42.001 9.499C41.8883 9.46433 41.7713 9.447 41.65 9.447C41.442 9.447 41.273 9.512 41.143 9.642C41.013 9.772 40.948 9.98 40.948 10.266V10.604L41.039 11.813V17H38.101ZM37.126 12.424V10.279H42.495V12.424H37.126ZM47.1737 17.13C46.307 17.13 45.5487 16.9697 44.8987 16.649C44.2573 16.3283 43.759 15.8907 43.4037 15.336C43.0483 14.7727 42.8707 14.14 42.8707 13.438C42.8707 12.7187 43.044 12.0817 43.3907 11.527C43.746 10.9723 44.227 10.539 44.8337 10.227C45.449 9.915 46.138 9.759 46.9007 9.759C47.6027 9.759 48.2483 9.89767 48.8377 10.175C49.4357 10.4523 49.9123 10.864 50.2677 11.41C50.6317 11.956 50.8137 12.632 50.8137 13.438C50.8137 13.542 50.8093 13.659 50.8007 13.789C50.792 13.9103 50.7833 14.023 50.7747 14.127H45.3017V12.71H49.2147L48.1097 13.087C48.1097 12.8097 48.0577 12.5757 47.9537 12.385C47.8583 12.1857 47.724 12.034 47.5507 11.93C47.3773 11.8173 47.1693 11.761 46.9267 11.761C46.684 11.761 46.4717 11.8173 46.2897 11.93C46.1163 12.034 45.982 12.1857 45.8867 12.385C45.7913 12.5757 45.7437 12.8097 45.7437 13.087V13.529C45.7437 13.8323 45.8043 14.0923 45.9257 14.309C46.047 14.5257 46.2203 14.6903 46.4457 14.803C46.671 14.907 46.944 14.959 47.2647 14.959C47.594 14.959 47.8627 14.9157 48.0707 14.829C48.2873 14.7423 48.5127 14.6123 48.7467 14.439L50.2807 15.986C49.934 16.3587 49.505 16.6447 48.9937 16.844C48.491 17.0347 47.8843 17.13 47.1737 17.13ZM54.5228 17.13C53.9162 17.13 53.3182 17.065 52.7288 16.935C52.1395 16.805 51.6628 16.636 51.2988 16.428L52.1048 14.491C52.4428 14.6903 52.8328 14.8463 53.2748 14.959C53.7255 15.0717 54.1632 15.128 54.5878 15.128C54.9432 15.128 55.1815 15.0977 55.3028 15.037C55.4328 14.9763 55.4978 14.894 55.4978 14.79C55.4978 14.686 55.4242 14.6123 55.2768 14.569C55.1295 14.517 54.9345 14.478 54.6918 14.452C54.4492 14.426 54.1805 14.3957 53.8858 14.361C53.5998 14.3177 53.3095 14.257 53.0148 14.179C52.7202 14.101 52.4515 13.984 52.2088 13.828C51.9662 13.672 51.7712 13.464 51.6238 13.204C51.4765 12.9353 51.4028 12.5973 51.4028 12.19C51.4028 11.7393 51.5372 11.332 51.8058 10.968C52.0832 10.604 52.4905 10.3137 53.0278 10.097C53.5738 9.87167 54.2455 9.759 55.0428 9.759C55.5628 9.759 56.0828 9.80667 56.6028 9.902C57.1228 9.99733 57.5692 10.1447 57.9418 10.344L57.1358 12.281C56.7718 12.0817 56.4122 11.9473 56.0568 11.878C55.7102 11.8 55.3852 11.761 55.0818 11.761C54.7092 11.761 54.4535 11.7957 54.3148 11.865C54.1848 11.9343 54.1198 12.0123 54.1198 12.099C54.1198 12.203 54.1935 12.281 54.3408 12.333C54.4882 12.385 54.6832 12.424 54.9258 12.45C55.1685 12.476 55.4328 12.5107 55.7188 12.554C56.0135 12.5887 56.3038 12.6493 56.5898 12.736C56.8845 12.814 57.1532 12.931 57.3958 13.087C57.6385 13.243 57.8335 13.4553 57.9808 13.724C58.1282 13.984 58.2018 14.3177 58.2018 14.725C58.2018 15.1497 58.0675 15.5483 57.7988 15.921C57.5302 16.285 57.1228 16.5797 56.5768 16.805C56.0308 17.0217 55.3462 17.13 54.5228 17.13ZM59.0914 17V9.889H62.0294V17H59.0914ZM60.5604 9.317C60.0231 9.317 59.5941 9.174 59.2734 8.888C58.9527 8.602 58.7924 8.24667 58.7924 7.822C58.7924 7.39733 58.9527 7.042 59.2734 6.756C59.5941 6.47 60.0231 6.327 60.5604 6.327C61.0977 6.327 61.5267 6.46133 61.8474 6.73C62.1681 6.99867 62.3284 7.34533 62.3284 7.77C62.3284 8.22067 62.1681 8.59333 61.8474 8.888C61.5267 9.174 61.0977 9.317 60.5604 9.317ZM67.0886 17.13C66.2826 17.13 65.5676 16.974 64.9436 16.662C64.3283 16.3413 63.843 15.9037 63.4876 15.349C63.1323 14.7943 62.9546 14.1573 62.9546 13.438C62.9546 12.7187 63.1323 12.0817 63.4876 11.527C63.843 10.9723 64.3283 10.539 64.9436 10.227C65.5676 9.915 66.2826 9.759 67.0886 9.759C67.8946 9.759 68.6096 9.915 69.2336 10.227C69.8576 10.539 70.343 10.9723 70.6896 11.527C71.045 12.0817 71.2226 12.7187 71.2226 13.438C71.2226 14.1573 71.045 14.7943 70.6896 15.349C70.343 15.9037 69.8576 16.3413 69.2336 16.662C68.6096 16.974 67.8946 17.13 67.0886 17.13ZM67.0886 14.842C67.3053 14.842 67.5003 14.79 67.6736 14.686C67.847 14.582 67.9856 14.426 68.0896 14.218C68.1936 14.0013 68.2456 13.7413 68.2456 13.438C68.2456 13.126 68.1936 12.8703 68.0896 12.671C67.9856 12.463 67.847 12.307 67.6736 12.203C67.5003 12.099 67.3053 12.047 67.0886 12.047C66.872 12.047 66.677 12.099 66.5036 12.203C66.3303 12.307 66.1916 12.463 66.0876 12.671C65.9836 12.8703 65.9316 13.126 65.9316 13.438C65.9316 13.7413 65.9836 14.0013 66.0876 14.218C66.1916 14.426 66.3303 14.582 66.5036 14.686C66.677 14.79 66.872 14.842 67.0886 14.842ZM77.0822 9.759C77.6282 9.759 78.1222 9.87167 78.5642 10.097C79.0062 10.3137 79.3529 10.656 79.6042 11.124C79.8642 11.592 79.9942 12.1987 79.9942 12.944V17H77.0562V13.451C77.0562 13.009 76.9782 12.697 76.8222 12.515C76.6662 12.3243 76.4539 12.229 76.1852 12.229C75.9859 12.229 75.7995 12.2767 75.6262 12.372C75.4615 12.4587 75.3272 12.606 75.2232 12.814C75.1279 13.022 75.0802 13.3037 75.0802 13.659V17H72.1422V9.889H74.9372V11.969L74.3782 11.371C74.6555 10.8337 75.0282 10.4307 75.4962 10.162C75.9729 9.89333 76.5015 9.759 77.0822 9.759ZM85.5731 17V15.739L85.3651 15.401V13.009C85.3651 12.6623 85.2568 12.398 85.0401 12.216C84.8321 12.034 84.4898 11.943 84.0131 11.943C83.6925 11.943 83.3675 11.995 83.0381 12.099C82.7088 12.1943 82.4271 12.3287 82.1931 12.502L81.2571 10.565C81.6731 10.305 82.1715 10.1057 82.7521 9.967C83.3328 9.82833 83.9005 9.759 84.4551 9.759C85.6771 9.759 86.6218 10.032 87.2891 10.578C87.9651 11.124 88.3031 11.9907 88.3031 13.178V17H85.5731ZM83.5581 17.13C82.9775 17.13 82.4921 17.0303 82.1021 16.831C81.7121 16.6317 81.4175 16.3673 81.2181 16.038C81.0188 15.7 80.9191 15.3273 80.9191 14.92C80.9191 14.4607 81.0361 14.0707 81.2701 13.75C81.5041 13.4293 81.8595 13.1867 82.3361 13.022C82.8215 12.8573 83.4325 12.775 84.1691 12.775H85.6511V14.192H84.6371C84.3251 14.192 84.0955 14.244 83.9481 14.348C83.8095 14.4433 83.7401 14.5907 83.7401 14.79C83.7401 14.9547 83.8008 15.0933 83.9221 15.206C84.0521 15.31 84.2255 15.362 84.4421 15.362C84.6415 15.362 84.8235 15.31 84.9881 15.206C85.1615 15.0933 85.2871 14.92 85.3651 14.686L85.7421 15.557C85.6295 16.0857 85.3911 16.48 85.0271 16.74C84.6631 17 84.1735 17.13 83.5581 17.13ZM89.5729 17V7.354H92.5109V17H89.5729Z" fill="black"/>
    <rect x="133" y="6" width="44" height="13" rx="6.5" fill="black"/>
    <path d="M138.638 15L137.07 10.1H138.771L140.038 14.237H139.184L140.528 10.1H142.047L143.3 14.237H142.481L143.804 10.1H145.372L143.804 15H142.033L141.011 11.612H141.487L140.409 15H138.638ZM147.08 15L145.512 10.1H147.213L148.48 14.237H147.626L148.97 10.1H150.489L151.742 14.237H150.923L152.246 10.1H153.814L152.246 15H150.475L149.453 11.612H149.929L148.851 15H147.08ZM155.523 15L153.955 10.1H155.656L156.923 14.237H156.069L157.413 10.1H158.932L160.185 14.237H159.366L160.689 10.1H162.257L160.689 15H158.918L157.896 11.612H158.372L157.294 15H155.523ZM163.111 15.07C162.85 15.07 162.63 14.986 162.453 14.818C162.276 14.6453 162.187 14.426 162.187 14.16C162.187 13.8893 162.276 13.6723 162.453 13.509C162.63 13.3457 162.85 13.264 163.111 13.264C163.372 13.264 163.592 13.3457 163.769 13.509C163.946 13.6723 164.035 13.8893 164.035 14.16C164.035 14.426 163.946 14.6453 163.769 14.818C163.592 14.986 163.372 15.07 163.111 15.07Z" fill="#F3D309"/>
    <g filter="url(#filter0_d_0_1)">
        <path fill-rule="evenodd" clip-rule="evenodd" d="M170.14 15.0754L172 14.4791L167 12L168.458 16.9751L169.549 15.4914L170.856 17L171.447 16.584L170.14 15.0754Z" fill="#F3D309"/>
    </g>
    <path d="M0 25H139V38C139 40.2091 137.209 42 135 42H4C1.79086 42 0 40.2091 0 38V25Z" fill="#F3D309"/>
    <ellipse cx="124" cy="24" rx="18" ry="5" fill="#F3D309"/>
    <path d="M27.549 28.28H31.605V30.49H27.549V28.28ZM27.757 31.686H32.307V34H24.741V24.9H32.138V27.214H27.757V31.686ZM32.5796 34L36.6356 28.332L36.6226 30.477L32.6966 24.9H36.1416L38.4296 28.28L36.9606 28.293L39.1966 24.9H42.4986L38.5726 30.36V28.228L42.6936 34H39.1836L36.8956 30.464L38.3126 30.451L36.0766 34H32.5796ZM43.0603 34V24.9H47.4413C48.2907 24.9 49.023 25.0387 49.6383 25.316C50.2623 25.5933 50.7433 25.992 51.0813 26.512C51.4193 27.0233 51.5883 27.63 51.5883 28.332C51.5883 29.034 51.4193 29.6407 51.0813 30.152C50.7433 30.6633 50.2623 31.062 49.6383 31.348C49.023 31.6253 48.2907 31.764 47.4413 31.764H44.7633L46.1283 30.451V34H43.0603ZM46.1283 30.789L44.7633 29.398H47.2463C47.671 29.398 47.983 29.3027 48.1823 29.112C48.3903 28.9213 48.4943 28.6613 48.4943 28.332C48.4943 28.0027 48.3903 27.7427 48.1823 27.552C47.983 27.3613 47.671 27.266 47.2463 27.266H44.7633L46.1283 25.875V30.789ZM56.5929 33.012V30.802L62.3909 28.813V30.087L56.5929 28.098V25.888L63.2229 28.293V30.607L56.5929 33.012ZM68.2009 34V32.115L71.4899 29.073C71.6979 28.8737 71.8496 28.7003 71.9449 28.553C72.0489 28.4057 72.1182 28.2757 72.1529 28.163C72.1876 28.0417 72.2049 27.929 72.2049 27.825C72.2049 27.5997 72.1312 27.4263 71.9839 27.305C71.8366 27.175 71.6156 27.11 71.3209 27.11C71.0522 27.11 70.7966 27.1837 70.5539 27.331C70.3112 27.4697 70.1206 27.6777 69.9819 27.955L67.6679 26.798C67.9972 26.174 68.4912 25.667 69.1499 25.277C69.8086 24.887 70.6276 24.692 71.6069 24.692C72.3262 24.692 72.9632 24.809 73.5179 25.043C74.0726 25.277 74.5059 25.6063 74.8179 26.031C75.1299 26.4557 75.2859 26.9583 75.2859 27.539C75.2859 27.8337 75.2469 28.1283 75.1689 28.423C75.0996 28.7177 74.9522 29.0297 74.7269 29.359C74.5016 29.6797 74.1679 30.0393 73.7259 30.438L71.2559 32.687L70.7749 31.621H75.4939V34H68.2009ZM81.8536 36.652C81.4636 36.652 81.0649 36.5913 80.6576 36.47C80.2589 36.3573 79.9382 36.2057 79.6956 36.015L80.6706 34C80.8179 34.1127 80.9826 34.2037 81.1646 34.273C81.3552 34.3423 81.5372 34.377 81.7106 34.377C81.9706 34.377 82.1699 34.3207 82.3086 34.208C82.4472 34.104 82.5599 33.9437 82.6466 33.727L82.9456 32.973L83.1536 32.687L85.4286 26.889H88.2106L85.2856 34.143C85.0256 34.793 84.7222 35.3 84.3756 35.664C84.0376 36.028 83.6562 36.2837 83.2316 36.431C82.8156 36.5783 82.3562 36.652 81.8536 36.652ZM82.5426 34.325L79.4486 26.889H82.4646L84.5966 32.427L82.5426 34.325ZM92.3953 34.13C91.5287 34.13 90.7703 33.9697 90.1203 33.649C89.479 33.3283 88.9807 32.8907 88.6253 32.336C88.27 31.7727 88.0923 31.14 88.0923 30.438C88.0923 29.7187 88.2657 29.0817 88.6123 28.527C88.9677 27.9723 89.4487 27.539 90.0553 27.227C90.6707 26.915 91.3597 26.759 92.1223 26.759C92.8243 26.759 93.47 26.8977 94.0593 27.175C94.6573 27.4523 95.134 27.864 95.4893 28.41C95.8533 28.956 96.0353 29.632 96.0353 30.438C96.0353 30.542 96.031 30.659 96.0223 30.789C96.0137 30.9103 96.005 31.023 95.9963 31.127H90.5233V29.71H94.4363L93.3313 30.087C93.3313 29.8097 93.2793 29.5757 93.1753 29.385C93.08 29.1857 92.9457 29.034 92.7723 28.93C92.599 28.8173 92.391 28.761 92.1483 28.761C91.9057 28.761 91.6933 28.8173 91.5113 28.93C91.338 29.034 91.2037 29.1857 91.1083 29.385C91.013 29.5757 90.9653 29.8097 90.9653 30.087V30.529C90.9653 30.8323 91.026 31.0923 91.1473 31.309C91.2687 31.5257 91.442 31.6903 91.6673 31.803C91.8927 31.907 92.1657 31.959 92.4863 31.959C92.8157 31.959 93.0843 31.9157 93.2923 31.829C93.509 31.7423 93.7343 31.6123 93.9683 31.439L95.5023 32.986C95.1557 33.3587 94.7267 33.6447 94.2153 33.844C93.7127 34.0347 93.106 34.13 92.3953 34.13ZM101.075 34V32.739L100.867 32.401V30.009C100.867 29.6623 100.759 29.398 100.542 29.216C100.334 29.034 99.9917 28.943 99.5151 28.943C99.1944 28.943 98.8694 28.995 98.5401 29.099C98.2107 29.1943 97.9291 29.3287 97.6951 29.502L96.7591 27.565C97.1751 27.305 97.6734 27.1057 98.2541 26.967C98.8347 26.8283 99.4024 26.759 99.9571 26.759C101.179 26.759 102.124 27.032 102.791 27.578C103.467 28.124 103.805 28.9907 103.805 30.178V34H101.075ZM99.0601 34.13C98.4794 34.13 97.9941 34.0303 97.6041 33.831C97.2141 33.6317 96.9194 33.3673 96.7201 33.038C96.5207 32.7 96.4211 32.3273 96.4211 31.92C96.4211 31.4607 96.5381 31.0707 96.7721 30.75C97.0061 30.4293 97.3614 30.1867 97.8381 30.022C98.3234 29.8573 98.9344 29.775 99.6711 29.775H101.153V31.192H100.139C99.8271 31.192 99.5974 31.244 99.4501 31.348C99.3114 31.4433 99.2421 31.5907 99.2421 31.79C99.2421 31.9547 99.3027 32.0933 99.4241 32.206C99.5541 32.31 99.7274 32.362 99.9441 32.362C100.143 32.362 100.325 32.31 100.49 32.206C100.663 32.0933 100.789 31.92 100.867 31.686L101.244 32.557C101.131 33.0857 100.893 33.48 100.529 33.74C100.165 34 99.6754 34.13 99.0601 34.13ZM105.075 34V26.889H107.87V29.034L107.415 28.423C107.631 27.8683 107.978 27.4523 108.455 27.175C108.931 26.8977 109.503 26.759 110.171 26.759V29.359C110.041 29.3417 109.924 29.3287 109.82 29.32C109.724 29.3113 109.625 29.307 109.521 29.307C109.079 29.307 108.715 29.424 108.429 29.658C108.151 29.8833 108.013 30.2777 108.013 30.841V34H105.075ZM113.786 34.13C113.179 34.13 112.581 34.065 111.992 33.935C111.402 33.805 110.926 33.636 110.562 33.428L111.368 31.491C111.706 31.6903 112.096 31.8463 112.538 31.959C112.988 32.0717 113.426 32.128 113.851 32.128C114.206 32.128 114.444 32.0977 114.566 32.037C114.696 31.9763 114.761 31.894 114.761 31.79C114.761 31.686 114.687 31.6123 114.54 31.569C114.392 31.517 114.197 31.478 113.955 31.452C113.712 31.426 113.443 31.3957 113.149 31.361C112.863 31.3177 112.572 31.257 112.278 31.179C111.983 31.101 111.714 30.984 111.472 30.828C111.229 30.672 111.034 30.464 110.887 30.204C110.739 29.9353 110.666 29.5973 110.666 29.19C110.666 28.7393 110.8 28.332 111.069 27.968C111.346 27.604 111.753 27.3137 112.291 27.097C112.837 26.8717 113.508 26.759 114.306 26.759C114.826 26.759 115.346 26.8067 115.866 26.902C116.386 26.9973 116.832 27.1447 117.205 27.344L116.399 29.281C116.035 29.0817 115.675 28.9473 115.32 28.878C114.973 28.8 114.648 28.761 114.345 28.761C113.972 28.761 113.716 28.7957 113.578 28.865C113.448 28.9343 113.383 29.0123 113.383 29.099C113.383 29.203 113.456 29.281 113.604 29.333C113.751 29.385 113.946 29.424 114.189 29.45C114.431 29.476 114.696 29.5107 114.982 29.554C115.276 29.5887 115.567 29.6493 115.853 29.736C116.147 29.814 116.416 29.931 116.659 30.087C116.901 30.243 117.096 30.4553 117.244 30.724C117.391 30.984 117.465 31.3177 117.465 31.725C117.465 32.1497 117.33 32.5483 117.062 32.921C116.793 33.285 116.386 33.5797 115.84 33.805C115.294 34.0217 114.609 34.13 113.786 34.13Z" fill="black"/>
    <circle cx="14" cy="29" r="7" fill="black"/>
    <path d="M12.1467 25.6667H15.85C17.0367 25.6667 17.3334 25.9633 17.3334 27.1467V29.2567C17.3334 30.4433 17.0367 30.7367 15.8534 30.7367H12.1467C10.9634 30.74 10.6667 30.4433 10.6667 29.26V27.1467C10.6667 25.9633 10.9634 25.6667 12.1467 25.6667Z" stroke="#F3D309" stroke-linecap="round" stroke-linejoin="round"/>
    <path d="M14 30.74V32.3333" stroke="#F3D309" stroke-linecap="round" stroke-linejoin="round"/>
    <path d="M10.6667 29.3333H17.3334" stroke="#F3D309" stroke-linecap="round" stroke-linejoin="round"/>
    <path d="M12.5 32.3333H15.5" stroke="#F3D309" stroke-linecap="round" stroke-linejoin="round"/>
    <defs>
        <filter id="filter0_d_0_1" x="164" y="10" width="11" height="11" filterUnits="userSpaceOnUse" color-interpolation-filters="sRGB">
            <feFlood flood-opacity="0" result="BackgroundImageFix"/>
            <feColorMatrix in="SourceAlpha" type="matrix" values="0 0 0 0 0 0 0 0 0 0 0 0 0 0 0 0 0 0 127 0" result="hardAlpha"/>
            <feOffset dy="1"/>
            <feGaussianBlur stdDeviation="1.5"/>
            <feColorMatrix type="matrix" values="0 0 0 0 0 0 0 0 0 0 0 0 0 0 0 0 0 0 0.2 0"/>
            <feBlend mode="normal" in2="BackgroundImageFix" result="effect1_dropShadow_0_1"/>
            <feBlend mode="normal" in="SourceGraphic" in2="effect1_dropShadow_0_1" result="shape"/>
        </filter>
    </defs>
</svg>
