<svg width="140" height="140" viewBox="0 0 140 140" fill="none"
    xmlns="http://www.w3.org/2000/svg">
    <rect width="140" height="140" rx="70" fill="#70CDC5"/>
    <path d="M16.9255 60L22.1275 48.1H26.0715L31.2735 60H27.1255L23.2835 50.004H24.8475L21.0055 60H16.9255ZM20.0195 57.926L21.0395 55.036H26.5135L27.5335 57.926H20.0195ZM31.9138 60V48.1H37.7788C39.1048 48.1 40.2722 48.3437 41.2808 48.831C42.2895 49.307 43.0772 49.987 43.6438 50.871C44.2105 51.755 44.4938 52.809 44.4938 54.033C44.4938 55.2683 44.2105 56.3337 43.6438 57.229C43.0772 58.113 42.2895 58.7987 41.2808 59.286C40.2722 59.762 39.1048 60 37.7788 60H31.9138ZM35.9258 56.872H37.6088C38.1755 56.872 38.6685 56.7643 39.0878 56.549C39.5185 56.3337 39.8528 56.0163 40.0908 55.597C40.3288 55.1663 40.4478 54.645 40.4478 54.033C40.4478 53.4323 40.3288 52.9223 40.0908 52.503C39.8528 52.0837 39.5185 51.7663 39.0878 51.551C38.6685 51.3357 38.1755 51.228 37.6088 51.228H35.9258V56.872ZM49.2837 60L44.2517 48.1H48.5697L52.6667 58.147H50.0997L54.3157 48.1H58.2597L53.2277 60H49.2837ZM56.9353 60L62.1373 48.1H66.0813L71.2833 60H67.1353L63.2933 50.004H64.8573L61.0153 60H56.9353ZM60.0293 57.926L61.0493 55.036H66.5233L67.5433 57.926H60.0293ZM71.9236 60V48.1H75.2216L81.2736 55.342H79.7436V48.1H83.6536V60H80.3556L74.3036 52.758H75.8336V60H71.9236ZM91.7407 60.272C90.7887 60.272 89.9047 60.1247 89.0887 59.83C88.284 59.524 87.5813 59.0933 86.9807 58.538C86.3913 57.9827 85.9323 57.3253 85.6037 56.566C85.275 55.8067 85.1107 54.968 85.1107 54.05C85.1107 53.132 85.275 52.2933 85.6037 51.534C85.9323 50.7747 86.3913 50.1173 86.9807 49.562C87.5813 49.0067 88.284 48.5817 89.0887 48.287C89.9047 47.981 90.7887 47.828 91.7407 47.828C92.908 47.828 93.9393 48.032 94.8347 48.44C95.7413 48.848 96.4893 49.4373 97.0787 50.208L94.5457 52.469C94.1943 52.027 93.8033 51.687 93.3727 51.449C92.9533 51.1997 92.4773 51.075 91.9447 51.075C91.5253 51.075 91.1457 51.143 90.8057 51.279C90.4657 51.415 90.171 51.6133 89.9217 51.874C89.6837 52.1347 89.4967 52.452 89.3607 52.826C89.2247 53.1887 89.1567 53.5967 89.1567 54.05C89.1567 54.5033 89.2247 54.917 89.3607 55.291C89.4967 55.6537 89.6837 55.9653 89.9217 56.226C90.171 56.4867 90.4657 56.685 90.8057 56.821C91.1457 56.957 91.5253 57.025 91.9447 57.025C92.4773 57.025 92.9533 56.906 93.3727 56.668C93.8033 56.4187 94.1943 56.073 94.5457 55.631L97.0787 57.892C96.4893 58.6513 95.7413 59.2407 94.8347 59.66C93.9393 60.068 92.908 60.272 91.7407 60.272ZM101.909 52.52H107.213V55.41H101.909V52.52ZM102.181 56.974H108.131V60H98.2371V48.1H107.91V51.126H102.181V56.974ZM109.676 60V48.1H115.541C116.867 48.1 118.034 48.3437 119.043 48.831C120.051 49.307 120.839 49.987 121.406 50.871C121.972 51.755 122.256 52.809 122.256 54.033C122.256 55.2683 121.972 56.3337 121.406 57.229C120.839 58.113 120.051 58.7987 119.043 59.286C118.034 59.762 116.867 60 115.541 60H109.676ZM113.688 56.872H115.371C115.937 56.872 116.43 56.7643 116.85 56.549C117.28 56.3337 117.615 56.0163 117.853 55.597C118.091 55.1663 118.21 54.645 118.21 54.033C118.21 53.4323 118.091 52.9223 117.853 52.503C117.615 52.0837 117.28 51.7663 116.85 51.551C116.43 51.3357 115.937 51.228 115.371 51.228H113.688V56.872ZM45.05 81.272C44.0527 81.272 43.0894 81.1587 42.16 80.932C41.2307 80.7053 40.4657 80.4107 39.865 80.048L41.157 77.124C41.7237 77.4527 42.3527 77.719 43.044 77.923C43.7467 78.1157 44.4267 78.212 45.084 78.212C45.4694 78.212 45.7697 78.1893 45.985 78.144C46.2117 78.0873 46.376 78.0137 46.478 77.923C46.58 77.821 46.631 77.702 46.631 77.566C46.631 77.3507 46.512 77.1807 46.274 77.056C46.036 76.9313 45.7187 76.8293 45.322 76.75C44.9367 76.6593 44.5117 76.5687 44.047 76.478C43.5824 76.376 43.112 76.2457 42.636 76.087C42.1714 75.9283 41.7407 75.7187 41.344 75.458C40.9587 75.1973 40.647 74.8573 40.409 74.438C40.171 74.0073 40.052 73.4747 40.052 72.84C40.052 72.1033 40.256 71.4347 40.664 70.834C41.0834 70.222 41.701 69.7347 42.517 69.372C43.3444 69.0093 44.37 68.828 45.594 68.828C46.3987 68.828 47.192 68.913 47.974 69.083C48.756 69.253 49.4587 69.5137 50.082 69.865L48.875 72.772C48.2857 72.4773 47.7134 72.2563 47.158 72.109C46.614 71.9617 46.0814 71.888 45.56 71.888C45.1747 71.888 44.8687 71.922 44.642 71.99C44.4154 72.058 44.251 72.1487 44.149 72.262C44.0584 72.3753 44.013 72.5 44.013 72.636C44.013 72.84 44.132 73.0043 44.37 73.129C44.608 73.2423 44.9197 73.3387 45.305 73.418C45.7017 73.4973 46.1324 73.5823 46.597 73.673C47.073 73.7637 47.5434 73.8883 48.008 74.047C48.4727 74.2057 48.8977 74.4153 49.283 74.676C49.6797 74.9367 49.997 75.2767 50.235 75.696C50.473 76.1153 50.592 76.6367 50.592 77.26C50.592 77.9853 50.3824 78.654 49.963 79.266C49.555 79.8667 48.943 80.354 48.127 80.728C47.311 81.0907 46.2854 81.272 45.05 81.272ZM54.2039 81V72.211H50.7189V69.1H61.7009V72.211H58.2159V81H54.2039ZM60.8533 81L66.0553 69.1H69.9993L75.2013 81H71.0533L67.2113 71.004H68.7753L64.9333 81H60.8533ZM63.9473 78.926L64.9673 76.036H70.4413L71.4613 78.926H63.9473ZM81.8295 81.272C80.8775 81.272 79.9935 81.1247 79.1775 80.83C78.3729 80.524 77.6702 80.0933 77.0695 79.538C76.4802 78.9827 76.0212 78.3253 75.6925 77.566C75.3639 76.8067 75.1995 75.968 75.1995 75.05C75.1995 74.132 75.3639 73.2933 75.6925 72.534C76.0212 71.7747 76.4802 71.1173 77.0695 70.562C77.6702 70.0067 78.3729 69.5817 79.1775 69.287C79.9935 68.981 80.8775 68.828 81.8295 68.828C82.9969 68.828 84.0282 69.032 84.9235 69.44C85.8302 69.848 86.5782 70.4373 87.1675 71.208L84.6345 73.469C84.2832 73.027 83.8922 72.687 83.4615 72.449C83.0422 72.1997 82.5662 72.075 82.0335 72.075C81.6142 72.075 81.2345 72.143 80.8945 72.279C80.5545 72.415 80.2599 72.6133 80.0105 72.874C79.7725 73.1347 79.5855 73.452 79.4495 73.826C79.3135 74.1887 79.2455 74.5967 79.2455 75.05C79.2455 75.5033 79.3135 75.917 79.4495 76.291C79.5855 76.6537 79.7725 76.9653 80.0105 77.226C80.2599 77.4867 80.5545 77.685 80.8945 77.821C81.2345 77.957 81.6142 78.025 82.0335 78.025C82.5662 78.025 83.0422 77.906 83.4615 77.668C83.8922 77.4187 84.2832 77.073 84.6345 76.631L87.1675 78.892C86.5782 79.6513 85.8302 80.2407 84.9235 80.66C84.0282 81.068 82.9969 81.272 81.8295 81.272ZM91.9129 78.45L91.6919 74.047L96.1799 69.1H100.549L95.5169 74.642L93.2899 76.92L91.9129 78.45ZM88.3259 81V69.1H92.2699V81H88.3259ZM96.1459 81L92.6439 76.376L95.2449 73.622L100.787 81H96.1459Z" fill="black"/>
    <path d="M79.3207 24.7497C78.9938 24.6412 78.6668 24.5387 78.3398 24.4423C78.3943 24.2193 78.4428 23.9964 78.4912 23.7734C79.2359 20.1816 78.7455 17.2949 77.0926 16.3428C75.5002 15.4328 72.9027 16.3789 70.275 18.6569C70.0146 18.8799 69.7604 19.1149 69.5182 19.35C69.3547 19.1933 69.1852 19.0366 69.0156 18.8859C66.2607 16.4512 63.4998 15.4267 61.8469 16.3849C60.2605 17.301 59.7883 20.0189 60.4543 23.4178C60.5209 23.7553 60.5936 24.0868 60.6783 24.4242C60.2908 24.5327 59.9094 24.6532 59.5521 24.7798C56.3189 25.8947 54 27.6544 54 29.4744C54 31.3547 56.4703 33.241 59.8307 34.386C60.1031 34.4764 60.3756 34.5668 60.6541 34.6451C60.5633 35.0067 60.4846 35.3623 60.4119 35.7299C59.7762 39.0746 60.2727 41.7262 61.859 42.6362C63.4938 43.5763 66.2426 42.6121 68.9187 40.2799C69.1307 40.093 69.3426 39.9002 69.5545 39.6953C69.8209 39.9544 70.0994 40.2015 70.3779 40.4426C72.9693 42.6603 75.5305 43.5583 77.1107 42.6483C78.7455 41.7081 79.2783 38.8576 78.5881 35.3864C78.5336 35.1212 78.473 34.85 78.4064 34.5728C78.6002 34.5186 78.7879 34.4583 78.9756 34.398C82.4691 33.247 85 31.3848 85 29.4744C85 27.6484 82.6145 25.8766 79.3207 24.7497ZM71.1287 19.6332C73.3811 17.6806 75.482 16.9153 76.4387 17.4637C77.4619 18.0482 77.8555 20.4106 77.2137 23.5142C77.1713 23.7191 77.1289 23.918 77.0744 24.1169C75.7303 23.8156 74.368 23.5986 72.9996 23.4781C72.2125 22.3572 71.3527 21.2845 70.4203 20.278C70.6564 20.0551 70.8865 19.8441 71.1287 19.6332ZM64.1234 32.6022C64.4322 33.1265 64.7471 33.6508 65.0801 34.163C64.1355 34.0606 63.1971 33.9099 62.2707 33.711C62.5371 32.8432 62.8701 31.9453 63.2576 31.0292C63.5361 31.5596 63.8207 32.0839 64.1234 32.6022ZM62.2889 25.3523C63.1607 25.1595 64.0871 25.0028 65.0498 24.8823C64.7289 25.3825 64.4141 25.8947 64.1174 26.413C63.8207 26.9252 63.5301 27.4495 63.2576 27.9799C62.8762 27.0819 62.5553 26.202 62.2889 25.3523ZM63.9479 29.5046C64.3475 28.6729 64.7834 27.8593 65.2436 27.0578C65.7037 26.2563 66.2002 25.4789 66.7209 24.7135C67.6291 24.6472 68.5555 24.6111 69.5 24.6111C70.4445 24.6111 71.377 24.6472 72.2791 24.7135C72.7937 25.4728 73.2842 26.2503 73.7504 27.0458C74.2166 27.8412 74.6525 28.6548 75.0643 29.4804C74.6586 30.3121 74.2227 31.1317 73.7564 31.9392C73.2963 32.7408 72.8059 33.5182 72.2912 34.2896C71.3891 34.3559 70.4506 34.386 69.5 34.386C68.5494 34.386 67.6291 34.3559 66.7391 34.3016C66.2123 33.5363 65.7158 32.7528 65.2496 31.9513C64.7834 31.1498 64.3535 30.3362 63.9479 29.5046ZM74.8826 32.5901C75.1914 32.0598 75.482 31.5234 75.7666 30.981C76.1541 31.8549 76.4932 32.7408 76.7898 33.6508C75.8514 33.8617 74.9008 34.0244 73.9441 34.1329C74.2711 33.6267 74.5799 33.1084 74.8826 32.5901ZM75.7545 27.9799C75.4699 27.4495 75.1793 26.9192 74.8766 26.4009C74.5799 25.8887 74.2711 25.3825 73.9502 24.8823C74.925 25.0028 75.8574 25.1655 76.7293 25.3644C76.4508 26.2563 76.1238 27.1241 75.7545 27.9799ZM69.5121 21.2001C70.1479 21.8871 70.7473 22.6103 71.3043 23.3576C70.1055 23.3033 68.9006 23.3033 67.7018 23.3576C68.2951 22.5801 68.9066 21.857 69.5121 21.2001ZM62.4887 17.5059C63.5059 16.9153 65.7643 17.759 68.1438 19.8562C68.2951 19.9888 68.4465 20.1334 68.6039 20.278C67.6654 21.2845 66.7996 22.3572 66.0064 23.4781C64.6381 23.5986 63.2818 23.8095 61.9377 24.1048C61.859 23.7975 61.7924 23.4841 61.7258 23.1707C61.1566 20.2539 61.532 18.0543 62.4887 17.5059ZM61.0053 33.3916C60.751 33.3193 60.5027 33.241 60.2545 33.1566C58.9648 32.7528 57.4996 32.114 56.44 31.2763C55.8285 30.8545 55.4168 30.2036 55.3018 29.4744C55.3018 28.3716 57.215 26.9614 59.976 26.0032C60.3211 25.8826 60.6723 25.7742 61.0234 25.6717C61.4352 26.9795 61.9316 28.2631 62.5068 29.5046C61.9256 30.7641 61.423 32.0658 61.0053 33.3916ZM68.065 39.2976C67.066 40.2076 65.9096 40.9307 64.6502 41.4249C63.9781 41.7443 63.2031 41.7744 62.5129 41.5032C61.5502 40.9488 61.1506 38.8215 61.6955 35.9589C61.7621 35.6214 61.8348 35.2839 61.9195 34.9525C63.2758 35.2417 64.6441 35.4406 66.0307 35.5431C66.8299 36.67 67.7078 37.7488 68.6463 38.7612C68.4525 38.948 68.2588 39.1288 68.065 39.2976ZM69.5484 37.8331C68.9309 37.1702 68.3133 36.435 67.7139 35.6455C68.2951 35.6696 68.8945 35.6817 69.5 35.6817C70.1236 35.6817 70.7352 35.6696 71.3406 35.6395C70.7836 36.4049 70.1842 37.1341 69.5484 37.8331ZM77.4619 39.6411C77.4074 40.3763 77.0441 41.0633 76.4629 41.5273C75.5002 42.0818 73.4477 41.3586 71.2316 39.4663C70.9773 39.2493 70.723 39.0143 70.4627 38.7733C71.3891 37.7548 72.2428 36.676 73.0178 35.5431C74.4043 35.4286 75.7848 35.2176 77.1471 34.9103C77.2076 35.1574 77.2621 35.4045 77.3105 35.6455C77.6072 36.9472 77.6557 38.3032 77.4619 39.6411ZM78.5639 33.1626C78.3943 33.2169 78.2248 33.2711 78.0492 33.3193C77.6254 32.0055 77.1047 30.7219 76.5053 29.4744C77.0865 28.245 77.577 26.9795 77.9887 25.6838C78.3035 25.7742 78.6063 25.8706 78.8969 25.967C81.7184 26.9313 83.6982 28.3656 83.6982 29.4624C83.6982 30.6436 81.5852 32.1682 78.5639 33.1626ZM69.5 32.2586C71.0318 32.2586 72.273 31.0232 72.273 29.4985C72.273 27.9738 71.0318 26.7384 69.5 26.7384C67.9682 26.7384 66.727 27.9738 66.727 29.4985C66.727 31.0232 67.9682 32.2586 69.5 32.2586Z" fill="black"/>
    <path d="M33.465 94V87.7H34.203L38.37 92.875H37.983V87.7H38.883V94H38.145L33.978 88.825H34.365V94H33.465ZM41.5877 90.418H44.8277V91.183H41.5877V90.418ZM41.6687 93.217H45.3407V94H40.7687V87.7H45.2147V88.483H41.6687V93.217ZM45.8997 94L48.5187 90.427V91.12L46.0437 87.7H47.0697L49.0317 90.391L48.6267 90.4L50.5797 87.7H51.5607L49.1037 91.066V90.418L51.7227 94H50.6877L48.5997 91.129H48.9957L46.9347 94H45.8997ZM53.7619 94V88.483H51.6019V87.7H56.8129V88.483H54.6529V94H53.7619ZM57.5841 94.054C57.4161 94.054 57.2721 93.997 57.1521 93.883C57.0321 93.763 56.9721 93.613 56.9721 93.433C56.9721 93.253 57.0321 93.106 57.1521 92.992C57.2721 92.878 57.4161 92.821 57.5841 92.821C57.7461 92.821 57.8841 92.878 57.9981 92.992C58.1181 93.106 58.1781 93.253 58.1781 93.433C58.1781 93.613 58.1181 93.763 57.9981 93.883C57.8841 93.997 57.7461 94.054 57.5841 94.054ZM60.8619 94.072C60.4899 94.072 60.1419 93.994 59.8179 93.838C59.4939 93.682 59.2299 93.457 59.0259 93.163L59.5479 92.551C59.7219 92.791 59.9169 92.977 60.1329 93.109C60.3549 93.235 60.5979 93.298 60.8619 93.298C61.5819 93.298 61.9419 92.872 61.9419 92.02V88.483H59.6649V87.7H62.8329V91.975C62.8329 92.677 62.6649 93.202 62.3289 93.55C61.9989 93.898 61.5099 94.072 60.8619 94.072ZM66.5022 94.072C66.0222 94.072 65.5632 94 65.1252 93.856C64.6872 93.706 64.3422 93.514 64.0902 93.28L64.4232 92.578C64.6632 92.788 64.9692 92.962 65.3412 93.1C65.7132 93.238 66.1002 93.307 66.5022 93.307C66.8682 93.307 67.1652 93.265 67.3932 93.181C67.6212 93.097 67.7892 92.983 67.8972 92.839C68.0052 92.689 68.0592 92.521 68.0592 92.335C68.0592 92.119 67.9872 91.945 67.8432 91.813C67.7052 91.681 67.5222 91.576 67.2942 91.498C67.0722 91.414 66.8262 91.342 66.5562 91.282C66.2862 91.222 66.0132 91.153 65.7372 91.075C65.4672 90.991 65.2182 90.886 64.9902 90.76C64.7682 90.634 64.5882 90.466 64.4502 90.256C64.3122 90.04 64.2432 89.764 64.2432 89.428C64.2432 89.104 64.3272 88.807 64.4952 88.537C64.6692 88.261 64.9332 88.042 65.2872 87.88C65.6472 87.712 66.1032 87.628 66.6552 87.628C67.0212 87.628 67.3842 87.676 67.7442 87.772C68.1042 87.868 68.4162 88.006 68.6802 88.186L68.3832 88.906C68.1132 88.726 67.8282 88.597 67.5282 88.519C67.2282 88.435 66.9372 88.393 66.6552 88.393C66.3012 88.393 66.0102 88.438 65.7822 88.528C65.5542 88.618 65.3862 88.738 65.2782 88.888C65.1762 89.038 65.1252 89.206 65.1252 89.392C65.1252 89.614 65.1942 89.791 65.3322 89.923C65.4762 90.055 65.6592 90.16 65.8812 90.238C66.1092 90.316 66.3582 90.388 66.6282 90.454C66.8982 90.514 67.1682 90.583 67.4382 90.661C67.7142 90.739 67.9632 90.841 68.1852 90.967C68.4132 91.093 68.5962 91.261 68.7342 91.471C68.8722 91.681 68.9412 91.951 68.9412 92.281C68.9412 92.599 68.8542 92.896 68.6802 93.172C68.5062 93.442 68.2362 93.661 67.8702 93.829C67.5102 93.991 67.0542 94.072 66.5022 94.072ZM69.9638 95.332L70.4138 93.514L70.5308 94.036C70.3568 94.036 70.2098 93.982 70.0898 93.874C69.9758 93.766 69.9188 93.619 69.9188 93.433C69.9188 93.253 69.9758 93.106 70.0898 92.992C70.2098 92.878 70.3538 92.821 70.5218 92.821C70.6958 92.821 70.8368 92.881 70.9448 93.001C71.0528 93.115 71.1068 93.259 71.1068 93.433C71.1068 93.493 71.1008 93.553 71.0888 93.613C71.0828 93.667 71.0678 93.733 71.0438 93.811C71.0258 93.883 70.9958 93.973 70.9538 94.081L70.5308 95.332H69.9638ZM74.8879 94V87.7H77.3449C77.8969 87.7 78.3679 87.787 78.7579 87.961C79.1479 88.135 79.4479 88.387 79.6579 88.717C79.8679 89.047 79.9729 89.44 79.9729 89.896C79.9729 90.352 79.8679 90.745 79.6579 91.075C79.4479 91.399 79.1479 91.648 78.7579 91.822C78.3679 91.996 77.8969 92.083 77.3449 92.083H75.3829L75.7879 91.669V94H74.8879ZM79.0999 94L77.4979 91.714H78.4609L80.0809 94H79.0999ZM75.7879 91.759L75.3829 91.318H77.3179C77.8939 91.318 78.3289 91.195 78.6229 90.949C78.9229 90.697 79.0729 90.346 79.0729 89.896C79.0729 89.446 78.9229 89.098 78.6229 88.852C78.3289 88.606 77.8939 88.483 77.3179 88.483H75.3829L75.7879 88.033V91.759ZM82.2459 90.418H85.4859V91.183H82.2459V90.418ZM82.3269 93.217H85.9989V94H81.4269V87.7H85.8729V88.483H82.3269V93.217ZM86.5022 94L89.3552 87.7H90.2462L93.1082 94H92.1632L89.6162 88.204H89.9762L87.4292 94H86.5022ZM87.7172 92.425L87.9602 91.705H91.5062L91.7672 92.425H87.7172ZM96.7771 94.072C96.2971 94.072 95.8531 93.994 95.4451 93.838C95.0431 93.676 94.6921 93.451 94.3921 93.163C94.0981 92.869 93.8671 92.527 93.6991 92.137C93.5311 91.747 93.4471 91.318 93.4471 90.85C93.4471 90.382 93.5311 89.953 93.6991 89.563C93.8671 89.173 94.1011 88.834 94.4011 88.546C94.7011 88.252 95.0521 88.027 95.4541 87.871C95.8621 87.709 96.3061 87.628 96.7861 87.628C97.2721 87.628 97.7191 87.712 98.1271 87.88C98.5411 88.042 98.8921 88.285 99.1801 88.609L98.5951 89.176C98.3551 88.924 98.0851 88.738 97.7851 88.618C97.4851 88.492 97.1641 88.429 96.8221 88.429C96.4681 88.429 96.1381 88.489 95.8321 88.609C95.5321 88.729 95.2711 88.897 95.0491 89.113C94.8271 89.329 94.6531 89.587 94.5271 89.887C94.4071 90.181 94.3471 90.502 94.3471 90.85C94.3471 91.198 94.4071 91.522 94.5271 91.822C94.6531 92.116 94.8271 92.371 95.0491 92.587C95.2711 92.803 95.5321 92.971 95.8321 93.091C96.1381 93.211 96.4681 93.271 96.8221 93.271C97.1641 93.271 97.4851 93.211 97.7851 93.091C98.0851 92.965 98.3551 92.773 98.5951 92.515L99.1801 93.082C98.8921 93.406 98.5411 93.652 98.1271 93.82C97.7191 93.988 97.2691 94.072 96.7771 94.072ZM101.645 94V88.483H99.4847V87.7H104.696V88.483H102.536V94H101.645ZM104.918 95.332L105.368 93.514L105.485 94.036C105.311 94.036 105.164 93.982 105.044 93.874C104.93 93.766 104.873 93.619 104.873 93.433C104.873 93.253 104.93 93.106 105.044 92.992C105.164 92.878 105.308 92.821 105.476 92.821C105.65 92.821 105.791 92.881 105.899 93.001C106.007 93.115 106.061 93.259 106.061 93.433C106.061 93.493 106.055 93.553 106.043 93.613C106.037 93.667 106.022 93.733 105.998 93.811C105.98 93.883 105.95 93.973 105.908 94.081L105.485 95.332H104.918ZM45.7961 105V98.7H48.2531C48.8051 98.7 49.2761 98.787 49.6661 98.961C50.0561 99.135 50.3561 99.387 50.5661 99.717C50.7761 100.047 50.8811 100.44 50.8811 100.896C50.8811 101.352 50.7761 101.745 50.5661 102.075C50.3561 102.399 50.0561 102.648 49.6661 102.822C49.2761 102.996 48.8051 103.083 48.2531 103.083H46.2911L46.6961 102.669V105H45.7961ZM50.0081 105L48.4061 102.714H49.3691L50.9891 105H50.0081ZM46.6961 102.759L46.2911 102.318H48.2261C48.8021 102.318 49.2371 102.195 49.5311 101.949C49.8311 101.697 49.9811 101.346 49.9811 100.896C49.9811 100.446 49.8311 100.098 49.5311 99.852C49.2371 99.606 48.8021 99.483 48.2261 99.483H46.2911L46.6961 99.033V102.759ZM53.1541 101.418H56.3941V102.183H53.1541V101.418ZM53.2351 104.217H56.9071V105H52.3351V98.7H56.7811V99.483H53.2351V104.217ZM58.3644 105V98.7H61.0194C61.6914 98.7 62.2824 98.832 62.7924 99.096C63.3084 99.36 63.7074 99.729 63.9894 100.203C64.2774 100.677 64.4214 101.226 64.4214 101.85C64.4214 102.474 64.2774 103.023 63.9894 103.497C63.7074 103.971 63.3084 104.34 62.7924 104.604C62.2824 104.868 61.6914 105 61.0194 105H58.3644ZM59.2644 104.217H60.9654C61.4874 104.217 61.9374 104.118 62.3154 103.92C62.6994 103.722 62.9964 103.446 63.2064 103.092C63.4164 102.732 63.5214 102.318 63.5214 101.85C63.5214 101.376 63.4164 100.962 63.2064 100.608C62.9964 100.254 62.6994 99.978 62.3154 99.78C61.9374 99.582 61.4874 99.483 60.9654 99.483H59.2644V104.217ZM68.41 105.072C67.582 105.072 66.931 104.835 66.457 104.361C65.983 103.887 65.746 103.194 65.746 102.282V98.7H66.646V102.246C66.646 102.948 66.799 103.461 67.105 103.785C67.417 104.109 67.855 104.271 68.419 104.271C68.989 104.271 69.427 104.109 69.733 103.785C70.045 103.461 70.201 102.948 70.201 102.246V98.7H71.074V102.282C71.074 103.194 70.837 103.887 70.363 104.361C69.895 104.835 69.244 105.072 68.41 105.072ZM72.0032 105L74.6222 101.427V102.12L72.1472 98.7H73.1732L75.1352 101.391L74.7302 101.4L76.6832 98.7H77.6642L75.2072 102.066V101.418L77.8262 105H76.7912L74.7032 102.129H75.0992L73.0382 105H72.0032ZM82.5549 105V99.483H80.3949V98.7H85.6059V99.483H83.4459V105H82.5549ZM87.3781 103.479L87.3331 102.381L90.9061 98.7H91.9321L89.1691 101.616L88.6651 102.174L87.3781 103.479ZM86.5861 105V98.7H87.4861V105H86.5861ZM91.0501 105L88.4671 101.994L89.0701 101.328L92.1031 105H91.0501ZM92.5869 106.332L93.0369 104.514L93.1539 105.036C92.9799 105.036 92.8329 104.982 92.7129 104.874C92.5989 104.766 92.5419 104.619 92.5419 104.433C92.5419 104.253 92.5989 104.106 92.7129 103.992C92.8329 103.878 92.9769 103.821 93.1449 103.821C93.3189 103.821 93.4599 103.881 93.5679 104.001C93.6759 104.115 93.7299 104.259 93.7299 104.433C93.7299 104.493 93.7239 104.553 93.7119 104.613C93.7059 104.667 93.6909 104.733 93.6669 104.811C93.6489 104.883 93.6189 104.973 93.5769 105.081L93.1539 106.332H92.5869ZM44.9685 116V110.483H42.8085V109.7H48.0195V110.483H45.8595V116H44.9685ZM47.7293 116L50.5823 109.7H51.4733L54.3353 116H53.3903L50.8433 110.204H51.2033L48.6563 116H47.7293ZM48.9443 114.425L49.1873 113.705H52.7333L52.9943 114.425H48.9443ZM54.4353 116L57.2883 109.7H58.1793L61.0413 116H60.0963L57.5493 110.204H57.9093L55.3623 116H54.4353ZM55.6503 114.425L55.8933 113.705H59.4393L59.7003 114.425H55.6503ZM61.9811 116V109.7H62.8811V116H61.9811ZM64.7673 116V109.7H65.6673V115.217H69.0783V116H64.7673ZM71.0942 116L68.9882 109.7H69.9152L71.8502 115.514H71.3822L73.3892 109.7H74.2172L76.1792 115.514H75.7292L77.6912 109.7H78.5462L76.4402 116H75.4952L73.6592 110.609H73.9022L72.0572 116H71.0942ZM79.6471 116V109.7H80.5471V116H79.6471ZM82.4333 116V109.7H83.1713L87.3383 114.875H86.9513V109.7H87.8513V116H87.1133L82.9463 110.825H83.3333V116H82.4333ZM89.737 116V109.7H92.392C93.064 109.7 93.655 109.832 94.165 110.096C94.681 110.36 95.08 110.729 95.362 111.203C95.65 111.677 95.794 112.226 95.794 112.85C95.794 113.474 95.65 114.023 95.362 114.497C95.08 114.971 94.681 115.34 94.165 115.604C93.655 115.868 93.064 116 92.392 116H89.737ZM90.637 115.217H92.338C92.86 115.217 93.31 115.118 93.688 114.92C94.072 114.722 94.369 114.446 94.579 114.092C94.789 113.732 94.894 113.318 94.894 112.85C94.894 112.376 94.789 111.962 94.579 111.608C94.369 111.254 94.072 110.978 93.688 110.78C93.31 110.582 92.86 110.483 92.338 110.483H90.637V115.217ZM43.5578 127V121.483H41.3978V120.7H46.6088V121.483H44.4488V127H43.5578ZM49.0397 127V124.588L49.2467 125.146L46.5377 120.7H47.5007L49.7777 124.453H49.2557L51.5417 120.7H52.4327L49.7327 125.146L49.9307 124.588V127H49.0397ZM53.2404 127V120.7H55.6974C56.2494 120.7 56.7204 120.787 57.1104 120.961C57.5004 121.135 57.8004 121.387 58.0104 121.717C58.2204 122.047 58.3254 122.44 58.3254 122.896C58.3254 123.352 58.2204 123.745 58.0104 124.075C57.8004 124.399 57.5004 124.651 57.1104 124.831C56.7204 125.005 56.2494 125.092 55.6974 125.092H53.7354L54.1404 124.669V127H53.2404ZM54.1404 124.759L53.7354 124.309H55.6704C56.2464 124.309 56.6814 124.186 56.9754 123.94C57.2754 123.694 57.4254 123.346 57.4254 122.896C57.4254 122.446 57.2754 122.098 56.9754 121.852C56.6814 121.606 56.2464 121.483 55.6704 121.483H53.7354L54.1404 121.033V124.759ZM60.4666 123.418H63.7066V124.183H60.4666V123.418ZM60.5476 126.217H64.2196V127H59.6476V120.7H64.0936V121.483H60.5476V126.217ZM67.5129 127.072C67.0329 127.072 66.5739 127 66.1359 126.856C65.6979 126.706 65.3529 126.514 65.1009 126.28L65.4339 125.578C65.6739 125.788 65.9799 125.962 66.3519 126.1C66.7239 126.238 67.1109 126.307 67.5129 126.307C67.8789 126.307 68.1759 126.265 68.4039 126.181C68.6319 126.097 68.7999 125.983 68.9079 125.839C69.0159 125.689 69.0699 125.521 69.0699 125.335C69.0699 125.119 68.9979 124.945 68.8539 124.813C68.7159 124.681 68.5329 124.576 68.3049 124.498C68.0829 124.414 67.8369 124.342 67.5669 124.282C67.2969 124.222 67.0239 124.153 66.7479 124.075C66.4779 123.991 66.2289 123.886 66.0009 123.76C65.7789 123.634 65.5989 123.466 65.4609 123.256C65.3229 123.04 65.2539 122.764 65.2539 122.428C65.2539 122.104 65.3379 121.807 65.5059 121.537C65.6799 121.261 65.9439 121.042 66.2979 120.88C66.6579 120.712 67.1139 120.628 67.6659 120.628C68.0319 120.628 68.3949 120.676 68.7549 120.772C69.1149 120.868 69.4269 121.006 69.6909 121.186L69.3939 121.906C69.1239 121.726 68.8389 121.597 68.5389 121.519C68.2389 121.435 67.9479 121.393 67.6659 121.393C67.3119 121.393 67.0209 121.438 66.7929 121.528C66.5649 121.618 66.3969 121.738 66.2889 121.888C66.1869 122.038 66.1359 122.206 66.1359 122.392C66.1359 122.614 66.2049 122.791 66.3429 122.923C66.4869 123.055 66.6699 123.16 66.8919 123.238C67.1199 123.316 67.3689 123.388 67.6389 123.454C67.9089 123.514 68.1789 123.583 68.4489 123.661C68.7249 123.739 68.9739 123.841 69.1959 123.967C69.4239 124.093 69.6069 124.261 69.7449 124.471C69.8829 124.681 69.9519 124.951 69.9519 125.281C69.9519 125.599 69.8649 125.896 69.6909 126.172C69.5169 126.442 69.2469 126.661 68.8809 126.829C68.5209 126.991 68.0649 127.072 67.5129 127.072ZM74.0838 127.072C73.6038 127.072 73.1598 126.994 72.7518 126.838C72.3498 126.676 71.9988 126.451 71.6988 126.163C71.4048 125.869 71.1738 125.527 71.0058 125.137C70.8378 124.747 70.7538 124.318 70.7538 123.85C70.7538 123.382 70.8378 122.953 71.0058 122.563C71.1738 122.173 71.4078 121.834 71.7078 121.546C72.0078 121.252 72.3588 121.027 72.7608 120.871C73.1688 120.709 73.6128 120.628 74.0928 120.628C74.5788 120.628 75.0258 120.712 75.4338 120.88C75.8478 121.042 76.1988 121.285 76.4868 121.609L75.9018 122.176C75.6618 121.924 75.3918 121.738 75.0918 121.618C74.7918 121.492 74.4708 121.429 74.1288 121.429C73.7748 121.429 73.4448 121.489 73.1388 121.609C72.8388 121.729 72.5778 121.897 72.3558 122.113C72.1338 122.329 71.9598 122.587 71.8338 122.887C71.7138 123.181 71.6538 123.502 71.6538 123.85C71.6538 124.198 71.7138 124.522 71.8338 124.822C71.9598 125.116 72.1338 125.371 72.3558 125.587C72.5778 125.803 72.8388 125.971 73.1388 126.091C73.4448 126.211 73.7748 126.271 74.1288 126.271C74.4708 126.271 74.7918 126.211 75.0918 126.091C75.3918 125.965 75.6618 125.773 75.9018 125.515L76.4868 126.082C76.1988 126.406 75.8478 126.652 75.4338 126.82C75.0258 126.988 74.5758 127.072 74.0838 127.072ZM77.7707 127V120.7H80.2277C80.7797 120.7 81.2507 120.787 81.6407 120.961C82.0307 121.135 82.3307 121.387 82.5407 121.717C82.7507 122.047 82.8557 122.44 82.8557 122.896C82.8557 123.352 82.7507 123.745 82.5407 124.075C82.3307 124.399 82.0307 124.648 81.6407 124.822C81.2507 124.996 80.7797 125.083 80.2277 125.083H78.2657L78.6707 124.669V127H77.7707ZM81.9827 127L80.3807 124.714H81.3437L82.9637 127H81.9827ZM78.6707 124.759L78.2657 124.318H80.2007C80.7767 124.318 81.2117 124.195 81.5057 123.949C81.8057 123.697 81.9557 123.346 81.9557 122.896C81.9557 122.446 81.8057 122.098 81.5057 121.852C81.2117 121.606 80.7767 121.483 80.2007 121.483H78.2657L78.6707 121.033V124.759ZM84.3097 127V120.7H85.2097V127H84.3097ZM87.0959 127V120.7H89.5529C90.1049 120.7 90.5759 120.787 90.9659 120.961C91.3559 121.135 91.6559 121.387 91.8659 121.717C92.0759 122.047 92.1809 122.44 92.1809 122.896C92.1809 123.352 92.0759 123.745 91.8659 124.075C91.6559 124.399 91.3559 124.651 90.9659 124.831C90.5759 125.005 90.1049 125.092 89.5529 125.092H87.5909L87.9959 124.669V127H87.0959ZM87.9959 124.759L87.5909 124.309H89.5259C90.1019 124.309 90.5369 124.186 90.8309 123.94C91.1309 123.694 91.2809 123.346 91.2809 122.896C91.2809 122.446 91.1309 122.098 90.8309 121.852C90.5369 121.606 90.1019 121.483 89.5259 121.483H87.5909L87.9959 121.033V124.759ZM94.552 127V121.483H92.392V120.7H97.603V121.483H95.443V127H94.552Z" fill="black"/>
</svg>
