<svg width="140" height="140" viewBox="0 0 140 140" fill="none"
    xmlns="http://www.w3.org/2000/svg">
    <rect width="140" height="140" rx="70" fill="#70CDC5"/>
    <path d="M24.6601 60.272C23.7081 60.272 22.8241 60.1247 22.0081 59.83C21.2034 59.524 20.5007 59.0933 19.9001 58.538C19.3107 57.9827 18.8517 57.3253 18.5231 56.566C18.1944 55.8067 18.0301 54.968 18.0301 54.05C18.0301 53.132 18.1944 52.2933 18.5231 51.534C18.8517 50.7747 19.3107 50.1173 19.9001 49.562C20.5007 49.0067 21.2034 48.5817 22.0081 48.287C22.8241 47.981 23.7081 47.828 24.6601 47.828C25.8274 47.828 26.8587 48.032 27.7541 48.44C28.6607 48.848 29.4087 49.4373 29.9981 50.208L27.4651 52.469C27.1137 52.027 26.7227 51.687 26.2921 51.449C25.8727 51.1997 25.3967 51.075 24.8641 51.075C24.4447 51.075 24.0651 51.143 23.7251 51.279C23.3851 51.415 23.0904 51.6133 22.8411 51.874C22.6031 52.1347 22.4161 52.452 22.2801 52.826C22.1441 53.1887 22.0761 53.5967 22.0761 54.05C22.0761 54.5033 22.1441 54.917 22.2801 55.291C22.4161 55.6537 22.6031 55.9653 22.8411 56.226C23.0904 56.4867 23.3851 56.685 23.7251 56.821C24.0651 56.957 24.4447 57.025 24.8641 57.025C25.3967 57.025 25.8727 56.906 26.2921 56.668C26.7227 56.4187 27.1137 56.073 27.4651 55.631L29.9981 57.892C29.4087 58.6513 28.6607 59.2407 27.7541 59.66C26.8587 60.068 25.8274 60.272 24.6601 60.272ZM37.0132 60.272C36.0499 60.272 35.1546 60.119 34.3272 59.813C33.5112 59.507 32.8029 59.0763 32.2022 58.521C31.6016 57.9543 31.1312 57.2913 30.7912 56.532C30.4626 55.7727 30.2982 54.9453 30.2982 54.05C30.2982 53.1433 30.4626 52.316 30.7912 51.568C31.1312 50.8087 31.6016 50.1513 32.2022 49.596C32.8029 49.0293 33.5112 48.593 34.3272 48.287C35.1546 47.981 36.0499 47.828 37.0132 47.828C37.9879 47.828 38.8832 47.981 39.6992 48.287C40.5152 48.593 41.2236 49.0293 41.8242 49.596C42.4249 50.1513 42.8896 50.8087 43.2182 51.568C43.5582 52.316 43.7282 53.1433 43.7282 54.05C43.7282 54.9453 43.5582 55.7727 43.2182 56.532C42.8896 57.2913 42.4249 57.9543 41.8242 58.521C41.2236 59.0763 40.5152 59.507 39.6992 59.813C38.8832 60.119 37.9879 60.272 37.0132 60.272ZM37.0132 57.025C37.3872 57.025 37.7329 56.957 38.0502 56.821C38.3789 56.685 38.6622 56.4923 38.9002 56.243C39.1496 55.9823 39.3422 55.6707 39.4782 55.308C39.6142 54.934 39.6822 54.5147 39.6822 54.05C39.6822 53.5853 39.6142 53.1717 39.4782 52.809C39.3422 52.435 39.1496 52.1233 38.9002 51.874C38.6622 51.6133 38.3789 51.415 38.0502 51.279C37.7329 51.143 37.3872 51.075 37.0132 51.075C36.6392 51.075 36.2879 51.143 35.9592 51.279C35.6419 51.415 35.3586 51.6133 35.1092 51.874C34.8712 52.1233 34.6842 52.435 34.5482 52.809C34.4122 53.1717 34.3442 53.5853 34.3442 54.05C34.3442 54.5147 34.4122 54.934 34.5482 55.308C34.6842 55.6707 34.8712 55.9823 35.1092 56.243C35.3586 56.4923 35.6419 56.685 35.9592 56.821C36.2879 56.957 36.6392 57.025 37.0132 57.025ZM45.1722 60V48.1H51.2072C52.6805 48.1 53.8195 48.372 54.6242 48.916C55.4402 49.46 55.8482 50.225 55.8482 51.211C55.8482 52.1743 55.4742 52.9393 54.7262 53.506C53.9782 54.0613 52.9695 54.339 51.7002 54.339L52.0402 53.421C53.3888 53.421 54.4485 53.6873 55.2192 54.22C55.9898 54.7527 56.3752 55.529 56.3752 56.549C56.3752 57.603 55.9558 58.4417 55.1172 59.065C54.2785 59.6883 53.0828 60 51.5302 60H45.1722ZM49.1162 57.195H51.3432C51.6718 57.195 51.9155 57.1157 52.0742 56.957C52.2442 56.787 52.3292 56.549 52.3292 56.243C52.3292 55.937 52.2442 55.7103 52.0742 55.563C51.9155 55.4043 51.6718 55.325 51.3432 55.325H49.1162V57.195ZM49.1162 52.673H50.8162C51.1562 52.673 51.4055 52.5993 51.5642 52.452C51.7228 52.3047 51.8022 52.0893 51.8022 51.806C51.8022 51.5113 51.7228 51.2903 51.5642 51.143C51.4055 50.9843 51.1562 50.905 50.8162 50.905H49.1162V52.673ZM57.806 60V48.1H63.535C64.6456 48.1 65.6033 48.2813 66.408 48.644C67.224 49.0067 67.853 49.528 68.295 50.208C68.737 50.8767 68.958 51.67 68.958 52.588C68.958 53.506 68.737 54.2993 68.295 54.968C67.853 55.6367 67.224 56.158 66.408 56.532C65.6033 56.8947 64.6456 57.076 63.535 57.076H60.033L61.818 55.359V60H57.806ZM61.818 55.801L60.033 53.982H63.28C63.8353 53.982 64.2433 53.8573 64.504 53.608C64.776 53.3587 64.912 53.0187 64.912 52.588C64.912 52.1573 64.776 51.8173 64.504 51.568C64.2433 51.3187 63.8353 51.194 63.28 51.194H60.033L61.818 49.375V55.801ZM73.8461 52.52H79.1501V55.41H73.8461V52.52ZM74.1181 56.974H80.0681V60H70.1741V48.1H79.8471V51.126H74.1181V56.974ZM81.6956 60V48.1H84.9936L89.7536 55.869H88.0196L92.6436 48.1H95.9416L95.9756 60H92.3206L92.2866 53.608H92.8646L89.7026 58.929H87.9346L84.6366 53.608H85.3506V60H81.6956ZM101.737 52.52H107.041V55.41H101.737V52.52ZM102.009 56.974H107.959V60H98.0647V48.1H107.738V51.126H102.009V56.974ZM117.304 48.1H121.316V60H117.304V48.1ZM113.598 60H109.586V48.1H113.598V60ZM117.576 55.614H113.326V52.316H117.576V55.614ZM29.0254 69.1H33.0374V81H29.0254V69.1ZM25.3194 81H21.3074V69.1H25.3194V81ZM29.2974 76.614H25.0474V73.316H29.2974V76.614ZM41.5621 72.755C43.0128 72.755 44.1461 73.0837 44.9621 73.741C45.7895 74.387 46.2031 75.3673 46.2031 76.682C46.2031 78.0987 45.7385 79.1753 44.8091 79.912C43.8798 80.6373 42.6275 81 41.0521 81H35.1531V69.1H39.0971V72.755H41.5621ZM40.7801 78.195C41.1768 78.195 41.5055 78.0703 41.7661 77.821C42.0381 77.5603 42.1741 77.2033 42.1741 76.75C42.1741 76.2967 42.0381 75.985 41.7661 75.815C41.5055 75.645 41.1768 75.56 40.7801 75.56H39.0971V78.195H40.7801ZM47.2911 81V69.1H51.2351V81H47.2911ZM53.3484 81V69.1H57.2924V75.288L61.3894 69.1H65.1634V81H61.2194V74.829L57.1394 81H53.3484ZM59.2474 68.42C57.8988 68.42 56.9411 68.1707 56.3744 67.672C55.8191 67.162 55.5414 66.4367 55.5414 65.496H58.2104C58.2104 65.87 58.2841 66.1477 58.4314 66.329C58.5901 66.499 58.8621 66.584 59.2474 66.584C59.6441 66.584 59.9218 66.499 60.0804 66.329C60.2391 66.1477 60.3184 65.87 60.3184 65.496H62.9874C62.9874 66.4367 62.6984 67.162 62.1204 67.672C61.5538 68.1707 60.5961 68.42 59.2474 68.42ZM78.3578 81.272C77.4058 81.272 76.5218 81.1247 75.7058 80.83C74.9012 80.524 74.1985 80.0933 73.5978 79.538C73.0085 78.9827 72.5495 78.3253 72.2208 77.566C71.8922 76.8067 71.7278 75.968 71.7278 75.05C71.7278 74.132 71.8922 73.2933 72.2208 72.534C72.5495 71.7747 73.0085 71.1173 73.5978 70.562C74.1985 70.0067 74.9012 69.5817 75.7058 69.287C76.5218 68.981 77.4058 68.828 78.3578 68.828C79.5252 68.828 80.5565 69.032 81.4518 69.44C82.3585 69.848 83.1065 70.4373 83.6958 71.208L81.1628 73.469C80.8115 73.027 80.4205 72.687 79.9898 72.449C79.5705 72.1997 79.0945 72.075 78.5618 72.075C78.1425 72.075 77.7628 72.143 77.4228 72.279C77.0828 72.415 76.7882 72.6133 76.5388 72.874C76.3008 73.1347 76.1138 73.452 75.9778 73.826C75.8418 74.1887 75.7738 74.5967 75.7738 75.05C75.7738 75.5033 75.8418 75.917 75.9778 76.291C76.1138 76.6537 76.3008 76.9653 76.5388 77.226C76.7882 77.4867 77.0828 77.685 77.4228 77.821C77.7628 77.957 78.1425 78.025 78.5618 78.025C79.0945 78.025 79.5705 77.906 79.9898 77.668C80.4205 77.4187 80.8115 77.073 81.1628 76.631L83.6958 78.892C83.1065 79.6513 82.3585 80.2407 81.4518 80.66C80.5565 81.068 79.5252 81.272 78.3578 81.272ZM87.528 81V71.344L88.395 72.211H84.043V69.1H94.957V72.211H90.605L91.472 71.344V81H87.528ZM99.9521 73.52H105.256V76.41H99.9521V73.52ZM100.224 77.974H106.174V81H96.2801V69.1H105.953V72.126H100.224V77.974ZM115.112 81L112.154 75.424L115.35 73.554L119.634 81H115.112ZM107.7 81V69.1H111.712V81H107.7ZM110.556 76.699V73.537H115.061V76.699H110.556ZM115.741 75.475L112.052 75.101L115.469 69.1H119.651L115.741 75.475Z" fill="black"/>
    <path d="M79.3207 24.7497C78.9938 24.6412 78.6668 24.5387 78.3398 24.4423C78.3943 24.2193 78.4428 23.9964 78.4912 23.7734C79.2359 20.1816 78.7455 17.2949 77.0926 16.3428C75.5002 15.4328 72.9027 16.3789 70.275 18.6569C70.0146 18.8799 69.7604 19.1149 69.5182 19.35C69.3547 19.1933 69.1852 19.0366 69.0156 18.8859C66.2607 16.4512 63.4998 15.4267 61.8469 16.3849C60.2605 17.301 59.7883 20.0189 60.4543 23.4178C60.5209 23.7553 60.5936 24.0868 60.6783 24.4242C60.2908 24.5327 59.9094 24.6532 59.5521 24.7798C56.3189 25.8947 54 27.6544 54 29.4744C54 31.3547 56.4703 33.241 59.8307 34.386C60.1031 34.4764 60.3756 34.5668 60.6541 34.6451C60.5633 35.0067 60.4846 35.3623 60.4119 35.7299C59.7762 39.0746 60.2727 41.7262 61.859 42.6362C63.4938 43.5763 66.2426 42.6121 68.9187 40.2799C69.1307 40.093 69.3426 39.9002 69.5545 39.6953C69.8209 39.9544 70.0994 40.2015 70.3779 40.4426C72.9693 42.6603 75.5305 43.5583 77.1107 42.6483C78.7455 41.7081 79.2783 38.8576 78.5881 35.3864C78.5336 35.1212 78.473 34.85 78.4064 34.5728C78.6002 34.5186 78.7879 34.4583 78.9756 34.398C82.4691 33.247 85 31.3848 85 29.4744C85 27.6484 82.6145 25.8766 79.3207 24.7497V24.7497ZM71.1287 19.6332C73.3811 17.6806 75.482 16.9153 76.4387 17.4637C77.4619 18.0482 77.8555 20.4106 77.2137 23.5142C77.1713 23.7191 77.1289 23.918 77.0744 24.1169C75.7303 23.8156 74.368 23.5986 72.9996 23.4781C72.2125 22.3572 71.3527 21.2845 70.4203 20.278C70.6564 20.0551 70.8865 19.8441 71.1287 19.6332V19.6332ZM64.1234 32.6022C64.4322 33.1265 64.7471 33.6508 65.0801 34.163C64.1355 34.0606 63.1971 33.9099 62.2707 33.711C62.5371 32.8432 62.8701 31.9453 63.2576 31.0292C63.5361 31.5596 63.8207 32.0839 64.1234 32.6022V32.6022ZM62.2889 25.3523C63.1607 25.1595 64.0871 25.0028 65.0498 24.8823C64.7289 25.3824 64.4141 25.8947 64.1174 26.413C63.8207 26.9252 63.5301 27.4495 63.2576 27.9799C62.8762 27.0819 62.5553 26.202 62.2889 25.3523ZM63.9479 29.5046C64.3475 28.6729 64.7834 27.8593 65.2436 27.0578C65.7037 26.2563 66.2002 25.4789 66.7209 24.7135C67.6291 24.6472 68.5555 24.6111 69.5 24.6111C70.4445 24.6111 71.377 24.6472 72.2791 24.7135C72.7937 25.4728 73.2842 26.2503 73.7504 27.0458C74.2166 27.8412 74.6525 28.6548 75.0643 29.4804C74.6586 30.3121 74.2227 31.1317 73.7564 31.9392C73.2963 32.7408 72.8059 33.5182 72.2912 34.2896C71.3891 34.3559 70.4506 34.386 69.5 34.386C68.5494 34.386 67.6291 34.3559 66.7391 34.3016C66.2123 33.5363 65.7158 32.7528 65.2496 31.9513C64.7834 31.1498 64.3535 30.3362 63.9479 29.5046ZM74.8826 32.5901C75.1914 32.0598 75.482 31.5234 75.7666 30.981C76.1541 31.8549 76.4932 32.7408 76.7898 33.6508C75.8514 33.8617 74.9008 34.0244 73.9441 34.1329C74.2711 33.6267 74.5799 33.1084 74.8826 32.5901ZM75.7545 27.9799C75.4699 27.4495 75.1793 26.9192 74.8766 26.4009C74.5799 25.8887 74.2711 25.3824 73.9502 24.8823C74.925 25.0028 75.8574 25.1655 76.7293 25.3644C76.4508 26.2563 76.1238 27.1241 75.7545 27.9799V27.9799ZM69.5121 21.2001C70.1479 21.8871 70.7473 22.6103 71.3043 23.3576C70.1055 23.3033 68.9006 23.3033 67.7018 23.3576C68.2951 22.5801 68.9066 21.857 69.5121 21.2001ZM62.4887 17.5059C63.5059 16.9153 65.7643 17.759 68.1438 19.8562C68.2951 19.9888 68.4465 20.1334 68.6039 20.278C67.6654 21.2845 66.7996 22.3572 66.0064 23.4781C64.6381 23.5986 63.2818 23.8095 61.9377 24.1048C61.859 23.7975 61.7924 23.4841 61.7258 23.1707C61.1566 20.2539 61.532 18.0543 62.4887 17.5059V17.5059ZM61.0053 33.3916C60.751 33.3193 60.5027 33.241 60.2545 33.1566C58.9648 32.7528 57.4996 32.114 56.44 31.2763C55.8285 30.8545 55.4168 30.2036 55.3018 29.4744C55.3018 28.3716 57.215 26.9614 59.976 26.0032C60.3211 25.8826 60.6723 25.7742 61.0234 25.6717C61.4352 26.9795 61.9316 28.2631 62.5068 29.5046C61.9256 30.7641 61.423 32.0658 61.0053 33.3916V33.3916ZM68.065 39.2976C67.066 40.2076 65.9096 40.9307 64.6502 41.4249C63.9781 41.7443 63.2031 41.7744 62.5129 41.5032C61.5502 40.9488 61.1506 38.8215 61.6955 35.9589C61.7621 35.6214 61.8348 35.2839 61.9195 34.9525C63.2758 35.2417 64.6441 35.4406 66.0307 35.5431C66.8299 36.67 67.7078 37.7488 68.6463 38.7612C68.4525 38.948 68.2588 39.1288 68.065 39.2976ZM69.5484 37.8331C68.9309 37.1702 68.3133 36.435 67.7139 35.6455C68.2951 35.6696 68.8945 35.6817 69.5 35.6817C70.1236 35.6817 70.7352 35.6696 71.3406 35.6395C70.7836 36.4049 70.1842 37.1341 69.5484 37.8331V37.8331ZM77.4619 39.6411C77.4074 40.3763 77.0441 41.0633 76.4629 41.5273C75.5002 42.0818 73.4477 41.3586 71.2316 39.4663C70.9773 39.2493 70.723 39.0143 70.4627 38.7733C71.3891 37.7548 72.2428 36.676 73.0178 35.5431C74.4043 35.4286 75.7848 35.2176 77.1471 34.9103C77.2076 35.1574 77.2621 35.4045 77.3105 35.6455C77.6072 36.9472 77.6557 38.3032 77.4619 39.6411V39.6411ZM78.5639 33.1626C78.3943 33.2169 78.2248 33.2711 78.0492 33.3193C77.6254 32.0055 77.1047 30.7219 76.5053 29.4744C77.0865 28.245 77.577 26.9795 77.9887 25.6838C78.3035 25.7742 78.6063 25.8706 78.8969 25.967C81.7184 26.9313 83.6982 28.3655 83.6982 29.4624C83.6982 30.6436 81.5852 32.1682 78.5639 33.1626ZM69.5 32.2586C71.0318 32.2586 72.273 31.0232 72.273 29.4985C72.273 27.9738 71.0318 26.7384 69.5 26.7384C67.9682 26.7384 66.727 27.9738 66.727 29.4985C66.727 31.0232 67.9682 32.2586 69.5 32.2586Z" fill="black"/>
    <path d="M33.465 96V89.7H34.203L38.37 94.875H37.983V89.7H38.883V96H38.145L33.978 90.825H34.365V96H33.465ZM41.5877 92.418H44.8277V93.183H41.5877V92.418ZM41.6687 95.217H45.3407V96H40.7687V89.7H45.2147V90.483H41.6687V95.217ZM45.8997 96L48.5187 92.427V93.12L46.0437 89.7H47.0697L49.0317 92.391L48.6267 92.4L50.5797 89.7H51.5607L49.1037 93.066V92.418L51.7227 96H50.6877L48.5997 93.129H48.9957L46.9347 96H45.8997ZM53.7619 96V90.483H51.6019V89.7H56.8129V90.483H54.6529V96H53.7619ZM57.5841 96.054C57.4161 96.054 57.2721 95.997 57.1521 95.883C57.0321 95.763 56.9721 95.613 56.9721 95.433C56.9721 95.253 57.0321 95.106 57.1521 94.992C57.2721 94.878 57.4161 94.821 57.5841 94.821C57.7461 94.821 57.8841 94.878 57.9981 94.992C58.1181 95.106 58.1781 95.253 58.1781 95.433C58.1781 95.613 58.1181 95.763 57.9981 95.883C57.8841 95.997 57.7461 96.054 57.5841 96.054ZM60.8619 96.072C60.4899 96.072 60.1419 95.994 59.8179 95.838C59.4939 95.682 59.2299 95.457 59.0259 95.163L59.5479 94.551C59.7219 94.791 59.9169 94.977 60.1329 95.109C60.3549 95.235 60.5979 95.298 60.8619 95.298C61.5819 95.298 61.9419 94.872 61.9419 94.02V90.483H59.6649V89.7H62.8329V93.975C62.8329 94.677 62.6649 95.202 62.3289 95.55C61.9989 95.898 61.5099 96.072 60.8619 96.072ZM66.5022 96.072C66.0222 96.072 65.5632 96 65.1252 95.856C64.6872 95.706 64.3422 95.514 64.0902 95.28L64.4232 94.578C64.6632 94.788 64.9692 94.962 65.3412 95.1C65.7132 95.238 66.1002 95.307 66.5022 95.307C66.8682 95.307 67.1652 95.265 67.3932 95.181C67.6212 95.097 67.7892 94.983 67.8972 94.839C68.0052 94.689 68.0592 94.521 68.0592 94.335C68.0592 94.119 67.9872 93.945 67.8432 93.813C67.7052 93.681 67.5222 93.576 67.2942 93.498C67.0722 93.414 66.8262 93.342 66.5562 93.282C66.2862 93.222 66.0132 93.153 65.7372 93.075C65.4672 92.991 65.2182 92.886 64.9902 92.76C64.7682 92.634 64.5882 92.466 64.4502 92.256C64.3122 92.04 64.2432 91.764 64.2432 91.428C64.2432 91.104 64.3272 90.807 64.4952 90.537C64.6692 90.261 64.9332 90.042 65.2872 89.88C65.6472 89.712 66.1032 89.628 66.6552 89.628C67.0212 89.628 67.3842 89.676 67.7442 89.772C68.1042 89.868 68.4162 90.006 68.6802 90.186L68.3832 90.906C68.1132 90.726 67.8282 90.597 67.5282 90.519C67.2282 90.435 66.9372 90.393 66.6552 90.393C66.3012 90.393 66.0102 90.438 65.7822 90.528C65.5542 90.618 65.3862 90.738 65.2782 90.888C65.1762 91.038 65.1252 91.206 65.1252 91.392C65.1252 91.614 65.1942 91.791 65.3322 91.923C65.4762 92.055 65.6592 92.16 65.8812 92.238C66.1092 92.316 66.3582 92.388 66.6282 92.454C66.8982 92.514 67.1682 92.583 67.4382 92.661C67.7142 92.739 67.9632 92.841 68.1852 92.967C68.4132 93.093 68.5962 93.261 68.7342 93.471C68.8722 93.681 68.9412 93.951 68.9412 94.281C68.9412 94.599 68.8542 94.896 68.6802 95.172C68.5062 95.442 68.2362 95.661 67.8702 95.829C67.5102 95.991 67.0542 96.072 66.5022 96.072ZM69.9638 97.332L70.4138 95.514L70.5308 96.036C70.3568 96.036 70.2098 95.982 70.0898 95.874C69.9758 95.766 69.9188 95.619 69.9188 95.433C69.9188 95.253 69.9758 95.106 70.0898 94.992C70.2098 94.878 70.3538 94.821 70.5218 94.821C70.6958 94.821 70.8368 94.881 70.9448 95.001C71.0528 95.115 71.1068 95.259 71.1068 95.433C71.1068 95.493 71.1008 95.553 71.0888 95.613C71.0828 95.667 71.0678 95.733 71.0438 95.811C71.0258 95.883 70.9958 95.973 70.9538 96.081L70.5308 97.332H69.9638ZM74.8879 96V89.7H77.3449C77.8969 89.7 78.3679 89.787 78.7579 89.961C79.1479 90.135 79.4479 90.387 79.6579 90.717C79.8679 91.047 79.9729 91.44 79.9729 91.896C79.9729 92.352 79.8679 92.745 79.6579 93.075C79.4479 93.399 79.1479 93.648 78.7579 93.822C78.3679 93.996 77.8969 94.083 77.3449 94.083H75.3829L75.7879 93.669V96H74.8879ZM79.0999 96L77.4979 93.714H78.4609L80.0809 96H79.0999ZM75.7879 93.759L75.3829 93.318H77.3179C77.8939 93.318 78.3289 93.195 78.6229 92.949C78.9229 92.697 79.0729 92.346 79.0729 91.896C79.0729 91.446 78.9229 91.098 78.6229 90.852C78.3289 90.606 77.8939 90.483 77.3179 90.483H75.3829L75.7879 90.033V93.759ZM82.2459 92.418H85.4859V93.183H82.2459V92.418ZM82.3269 95.217H85.9989V96H81.4269V89.7H85.8729V90.483H82.3269V95.217ZM86.5022 96L89.3552 89.7H90.2462L93.1082 96H92.1632L89.6162 90.204H89.9762L87.4292 96H86.5022ZM87.7172 94.425L87.9602 93.705H91.5062L91.7672 94.425H87.7172ZM96.7771 96.072C96.2971 96.072 95.8531 95.994 95.4451 95.838C95.0431 95.676 94.6921 95.451 94.3921 95.163C94.0981 94.869 93.8671 94.527 93.6991 94.137C93.5311 93.747 93.4471 93.318 93.4471 92.85C93.4471 92.382 93.5311 91.953 93.6991 91.563C93.8671 91.173 94.1011 90.834 94.4011 90.546C94.7011 90.252 95.0521 90.027 95.4541 89.871C95.8621 89.709 96.3061 89.628 96.7861 89.628C97.2721 89.628 97.7191 89.712 98.1271 89.88C98.5411 90.042 98.8921 90.285 99.1801 90.609L98.5951 91.176C98.3551 90.924 98.0851 90.738 97.7851 90.618C97.4851 90.492 97.1641 90.429 96.8221 90.429C96.4681 90.429 96.1381 90.489 95.8321 90.609C95.5321 90.729 95.2711 90.897 95.0491 91.113C94.8271 91.329 94.6531 91.587 94.5271 91.887C94.4071 92.181 94.3471 92.502 94.3471 92.85C94.3471 93.198 94.4071 93.522 94.5271 93.822C94.6531 94.116 94.8271 94.371 95.0491 94.587C95.2711 94.803 95.5321 94.971 95.8321 95.091C96.1381 95.211 96.4681 95.271 96.8221 95.271C97.1641 95.271 97.4851 95.211 97.7851 95.091C98.0851 94.965 98.3551 94.773 98.5951 94.515L99.1801 95.082C98.8921 95.406 98.5411 95.652 98.1271 95.82C97.7191 95.988 97.2691 96.072 96.7771 96.072ZM101.645 96V90.483H99.4847V89.7H104.696V90.483H102.536V96H101.645ZM104.918 97.332L105.368 95.514L105.485 96.036C105.311 96.036 105.164 95.982 105.044 95.874C104.93 95.766 104.873 95.619 104.873 95.433C104.873 95.253 104.93 95.106 105.044 94.992C105.164 94.878 105.308 94.821 105.476 94.821C105.65 94.821 105.791 94.881 105.899 95.001C106.007 95.115 106.061 95.259 106.061 95.433C106.061 95.493 106.055 95.553 106.043 95.613C106.037 95.667 106.022 95.733 105.998 95.811C105.98 95.883 105.95 95.973 105.908 96.081L105.485 97.332H104.918ZM31.7204 107V100.7H34.1774C34.7294 100.7 35.2004 100.787 35.5904 100.961C35.9804 101.135 36.2804 101.387 36.4904 101.717C36.7004 102.047 36.8054 102.44 36.8054 102.896C36.8054 103.352 36.7004 103.745 36.4904 104.075C36.2804 104.399 35.9804 104.648 35.5904 104.822C35.2004 104.996 34.7294 105.083 34.1774 105.083H32.2154L32.6204 104.669V107H31.7204ZM35.9324 107L34.3304 104.714H35.2934L36.9134 107H35.9324ZM32.6204 104.759L32.2154 104.318H34.1504C34.7264 104.318 35.1614 104.195 35.4554 103.949C35.7554 103.697 35.9054 103.346 35.9054 102.896C35.9054 102.446 35.7554 102.098 35.4554 101.852C35.1614 101.606 34.7264 101.483 34.1504 101.483H32.2154L32.6204 101.033V104.759ZM39.0785 103.418H42.3185V104.183H39.0785V103.418ZM39.1595 106.217H42.8315V107H38.2595V100.7H42.7055V101.483H39.1595V106.217ZM44.2888 107V100.7H46.9438C47.6158 100.7 48.2068 100.832 48.7168 101.096C49.2328 101.36 49.6318 101.729 49.9138 102.203C50.2018 102.677 50.3458 103.226 50.3458 103.85C50.3458 104.474 50.2018 105.023 49.9138 105.497C49.6318 105.971 49.2328 106.34 48.7168 106.604C48.2068 106.868 47.6158 107 46.9438 107H44.2888ZM45.1888 106.217H46.8898C47.4118 106.217 47.8618 106.118 48.2398 105.92C48.6238 105.722 48.9208 105.446 49.1308 105.092C49.3408 104.732 49.4458 104.318 49.4458 103.85C49.4458 103.376 49.3408 102.962 49.1308 102.608C48.9208 102.254 48.6238 101.978 48.2398 101.78C47.8618 101.582 47.4118 101.483 46.8898 101.483H45.1888V106.217ZM54.3343 107.072C53.5063 107.072 52.8553 106.835 52.3813 106.361C51.9073 105.887 51.6703 105.194 51.6703 104.282V100.7H52.5703V104.246C52.5703 104.948 52.7233 105.461 53.0293 105.785C53.3413 106.109 53.7793 106.271 54.3433 106.271C54.9133 106.271 55.3513 106.109 55.6573 105.785C55.9693 105.461 56.1253 104.948 56.1253 104.246V100.7H56.9983V104.282C56.9983 105.194 56.7613 105.887 56.2873 106.361C55.8193 106.835 55.1683 107.072 54.3343 107.072ZM57.9275 107L60.5465 103.427V104.12L58.0715 100.7H59.0975L61.0595 103.391L60.6545 103.4L62.6075 100.7H63.5885L61.1315 104.066V103.418L63.7505 107H62.7155L60.6275 104.129H61.0235L58.9625 107H57.9275ZM68.4792 107V101.483H66.3192V100.7H71.5302V101.483H69.3702V107H68.4792ZM75.2665 107.072C74.7865 107.072 74.3395 106.991 73.9255 106.829C73.5175 106.667 73.1635 106.442 72.8635 106.154C72.5635 105.86 72.3295 105.518 72.1615 105.128C71.9935 104.738 71.9095 104.312 71.9095 103.85C71.9095 103.388 71.9935 102.962 72.1615 102.572C72.3295 102.182 72.5635 101.843 72.8635 101.555C73.1635 101.261 73.5175 101.033 73.9255 100.871C74.3335 100.709 74.7805 100.628 75.2665 100.628C75.7465 100.628 76.1875 100.709 76.5895 100.871C76.9975 101.027 77.3515 101.252 77.6515 101.546C77.9575 101.834 78.1915 102.173 78.3535 102.563C78.5215 102.953 78.6055 103.382 78.6055 103.85C78.6055 104.318 78.5215 104.747 78.3535 105.137C78.1915 105.527 77.9575 105.869 77.6515 106.163C77.3515 106.451 76.9975 106.676 76.5895 106.838C76.1875 106.994 75.7465 107.072 75.2665 107.072ZM75.2665 106.271C75.6145 106.271 75.9355 106.211 76.2295 106.091C76.5295 105.971 76.7875 105.803 77.0035 105.587C77.2255 105.365 77.3965 105.107 77.5165 104.813C77.6425 104.519 77.7055 104.198 77.7055 103.85C77.7055 103.502 77.6425 103.181 77.5165 102.887C77.3965 102.593 77.2255 102.338 77.0035 102.122C76.7875 101.9 76.5295 101.729 76.2295 101.609C75.9355 101.489 75.6145 101.429 75.2665 101.429C74.9125 101.429 74.5855 101.489 74.2855 101.609C73.9915 101.729 73.7335 101.9 73.5115 102.122C73.2895 102.338 73.1155 102.593 72.9895 102.887C72.8695 103.181 72.8095 103.502 72.8095 103.85C72.8095 104.198 72.8695 104.519 72.9895 104.813C73.1155 105.107 73.2895 105.365 73.5115 105.587C73.7335 105.803 73.9915 105.971 74.2855 106.091C74.5855 106.211 74.9125 106.271 75.2665 106.271ZM82.8251 107.072C82.3451 107.072 81.8981 106.991 81.4841 106.829C81.0761 106.667 80.7221 106.442 80.4221 106.154C80.1221 105.86 79.8881 105.518 79.7201 105.128C79.5521 104.738 79.4681 104.312 79.4681 103.85C79.4681 103.388 79.5521 102.962 79.7201 102.572C79.8881 102.182 80.1221 101.843 80.4221 101.555C80.7221 101.261 81.0761 101.033 81.4841 100.871C81.8921 100.709 82.3391 100.628 82.8251 100.628C83.3051 100.628 83.7461 100.709 84.1481 100.871C84.5561 101.027 84.9101 101.252 85.2101 101.546C85.5161 101.834 85.7501 102.173 85.9121 102.563C86.0801 102.953 86.1641 103.382 86.1641 103.85C86.1641 104.318 86.0801 104.747 85.9121 105.137C85.7501 105.527 85.5161 105.869 85.2101 106.163C84.9101 106.451 84.5561 106.676 84.1481 106.838C83.7461 106.994 83.3051 107.072 82.8251 107.072ZM82.8251 106.271C83.1731 106.271 83.4941 106.211 83.7881 106.091C84.0881 105.971 84.3461 105.803 84.5621 105.587C84.7841 105.365 84.9551 105.107 85.0751 104.813C85.2011 104.519 85.2641 104.198 85.2641 103.85C85.2641 103.502 85.2011 103.181 85.0751 102.887C84.9551 102.593 84.7841 102.338 84.5621 102.122C84.3461 101.9 84.0881 101.729 83.7881 101.609C83.4941 101.489 83.1731 101.429 82.8251 101.429C82.4711 101.429 82.1441 101.489 81.8441 101.609C81.5501 101.729 81.2921 101.9 81.0701 102.122C80.8481 102.338 80.6741 102.593 80.5481 102.887C80.4281 103.181 80.3681 103.502 80.3681 103.85C80.3681 104.198 80.4281 104.519 80.5481 104.813C80.6741 105.107 80.8481 105.365 81.0701 105.587C81.2921 105.803 81.5501 105.971 81.8441 106.091C82.1441 106.211 82.4711 106.271 82.8251 106.271ZM87.5397 107V100.7H88.4397V106.217H91.8507V107H87.5397ZM93.6755 105.479L93.6305 104.381L97.2035 100.7H98.2295L95.4665 103.616L94.9625 104.174L93.6755 105.479ZM92.8835 107V100.7H93.7835V107H92.8835ZM97.3475 107L94.7645 103.994L95.3675 103.328L98.4005 107H97.3475ZM99.3522 107V100.7H100.252V107H99.3522ZM103.389 107V101.483H101.229V100.7H106.44V101.483H104.28V107H103.389ZM106.663 108.332L107.113 106.514L107.23 107.036C107.056 107.036 106.909 106.982 106.789 106.874C106.675 106.766 106.618 106.619 106.618 106.433C106.618 106.253 106.675 106.106 106.789 105.992C106.909 105.878 107.053 105.821 107.221 105.821C107.395 105.821 107.536 105.881 107.644 106.001C107.752 106.115 107.806 106.259 107.806 106.433C107.806 106.493 107.8 106.553 107.788 106.613C107.782 106.667 107.767 106.733 107.743 106.811C107.725 106.883 107.695 106.973 107.653 107.081L107.23 108.332H106.663ZM25.8171 118V112.483H23.6571V111.7H28.8681V112.483H26.7081V118H25.8171ZM31.299 118V115.588L31.506 116.146L28.797 111.7H29.76L32.037 115.453H31.515L33.801 111.7H34.692L31.992 116.146L32.19 115.588V118H31.299ZM35.4997 118V111.7H37.9567C38.5087 111.7 38.9797 111.787 39.3697 111.961C39.7597 112.135 40.0597 112.387 40.2697 112.717C40.4797 113.047 40.5847 113.44 40.5847 113.896C40.5847 114.352 40.4797 114.745 40.2697 115.075C40.0597 115.399 39.7597 115.651 39.3697 115.831C38.9797 116.005 38.5087 116.092 37.9567 116.092H35.9947L36.3997 115.669V118H35.4997ZM36.3997 115.759L35.9947 115.309H37.9297C38.5057 115.309 38.9407 115.186 39.2347 114.94C39.5347 114.694 39.6847 114.346 39.6847 113.896C39.6847 113.446 39.5347 113.098 39.2347 112.852C38.9407 112.606 38.5057 112.483 37.9297 112.483H35.9947L36.3997 112.033V115.759ZM42.7259 114.418H45.9659V115.183H42.7259V114.418ZM42.8069 117.217H46.4789V118H41.9069V111.7H46.3529V112.483H42.8069V117.217ZM49.7722 118.072C49.2922 118.072 48.8332 118 48.3952 117.856C47.9572 117.706 47.6122 117.514 47.3602 117.28L47.6932 116.578C47.9332 116.788 48.2392 116.962 48.6112 117.1C48.9832 117.238 49.3702 117.307 49.7722 117.307C50.1382 117.307 50.4352 117.265 50.6632 117.181C50.8912 117.097 51.0592 116.983 51.1672 116.839C51.2752 116.689 51.3292 116.521 51.3292 116.335C51.3292 116.119 51.2572 115.945 51.1132 115.813C50.9752 115.681 50.7922 115.576 50.5642 115.498C50.3422 115.414 50.0962 115.342 49.8262 115.282C49.5562 115.222 49.2832 115.153 49.0072 115.075C48.7372 114.991 48.4882 114.886 48.2602 114.76C48.0382 114.634 47.8582 114.466 47.7202 114.256C47.5822 114.04 47.5132 113.764 47.5132 113.428C47.5132 113.104 47.5972 112.807 47.7652 112.537C47.9392 112.261 48.2032 112.042 48.5572 111.88C48.9172 111.712 49.3732 111.628 49.9252 111.628C50.2912 111.628 50.6542 111.676 51.0142 111.772C51.3742 111.868 51.6862 112.006 51.9502 112.186L51.6532 112.906C51.3832 112.726 51.0982 112.597 50.7982 112.519C50.4982 112.435 50.2072 112.393 49.9252 112.393C49.5712 112.393 49.2802 112.438 49.0522 112.528C48.8242 112.618 48.6562 112.738 48.5482 112.888C48.4462 113.038 48.3952 113.206 48.3952 113.392C48.3952 113.614 48.4642 113.791 48.6022 113.923C48.7462 114.055 48.9292 114.16 49.1512 114.238C49.3792 114.316 49.6282 114.388 49.8982 114.454C50.1682 114.514 50.4382 114.583 50.7082 114.661C50.9842 114.739 51.2332 114.841 51.4552 114.967C51.6832 115.093 51.8662 115.261 52.0042 115.471C52.1422 115.681 52.2112 115.951 52.2112 116.281C52.2112 116.599 52.1242 116.896 51.9502 117.172C51.7762 117.442 51.5062 117.661 51.1402 117.829C50.7802 117.991 50.3242 118.072 49.7722 118.072ZM56.3431 118.072C55.8631 118.072 55.4191 117.994 55.0111 117.838C54.6091 117.676 54.2581 117.451 53.9581 117.163C53.6641 116.869 53.4331 116.527 53.2651 116.137C53.0971 115.747 53.0131 115.318 53.0131 114.85C53.0131 114.382 53.0971 113.953 53.2651 113.563C53.4331 113.173 53.6671 112.834 53.9671 112.546C54.2671 112.252 54.6181 112.027 55.0201 111.871C55.4281 111.709 55.8721 111.628 56.3521 111.628C56.8381 111.628 57.2851 111.712 57.6931 111.88C58.1071 112.042 58.4581 112.285 58.7461 112.609L58.1611 113.176C57.9211 112.924 57.6511 112.738 57.3511 112.618C57.0511 112.492 56.7301 112.429 56.3881 112.429C56.0341 112.429 55.7041 112.489 55.3981 112.609C55.0981 112.729 54.8371 112.897 54.6151 113.113C54.3931 113.329 54.2191 113.587 54.0931 113.887C53.9731 114.181 53.9131 114.502 53.9131 114.85C53.9131 115.198 53.9731 115.522 54.0931 115.822C54.2191 116.116 54.3931 116.371 54.6151 116.587C54.8371 116.803 55.0981 116.971 55.3981 117.091C55.7041 117.211 56.0341 117.271 56.3881 117.271C56.7301 117.271 57.0511 117.211 57.3511 117.091C57.6511 116.965 57.9211 116.773 58.1611 116.515L58.7461 117.082C58.4581 117.406 58.1071 117.652 57.6931 117.82C57.2851 117.988 56.8351 118.072 56.3431 118.072ZM60.03 118V111.7H62.487C63.039 111.7 63.51 111.787 63.9 111.961C64.29 112.135 64.59 112.387 64.8 112.717C65.01 113.047 65.115 113.44 65.115 113.896C65.115 114.352 65.01 114.745 64.8 115.075C64.59 115.399 64.29 115.648 63.9 115.822C63.51 115.996 63.039 116.083 62.487 116.083H60.525L60.93 115.669V118H60.03ZM64.242 118L62.64 115.714H63.603L65.223 118H64.242ZM60.93 115.759L60.525 115.318H62.46C63.036 115.318 63.471 115.195 63.765 114.949C64.065 114.697 64.215 114.346 64.215 113.896C64.215 113.446 64.065 113.098 63.765 112.852C63.471 112.606 63.036 112.483 62.46 112.483H60.525L60.93 112.033V115.759ZM66.569 118V111.7H67.469V118H66.569ZM69.3552 118V111.7H71.8122C72.3642 111.7 72.8352 111.787 73.2252 111.961C73.6152 112.135 73.9152 112.387 74.1252 112.717C74.3352 113.047 74.4402 113.44 74.4402 113.896C74.4402 114.352 74.3352 114.745 74.1252 115.075C73.9152 115.399 73.6152 115.651 73.2252 115.831C72.8352 116.005 72.3642 116.092 71.8122 116.092H69.8502L70.2552 115.669V118H69.3552ZM70.2552 115.759L69.8502 115.309H71.7852C72.3612 115.309 72.7962 115.186 73.0902 114.94C73.3902 114.694 73.5402 114.346 73.5402 113.896C73.5402 113.446 73.3902 113.098 73.0902 112.852C72.7962 112.606 72.3612 112.483 71.7852 112.483H69.8502L70.2552 112.033V115.759ZM76.8112 118V112.483H74.6512V111.7H79.8622V112.483H77.7022V118H76.8112ZM84.9245 118.072C84.4985 118.072 84.1205 118.003 83.7905 117.865C83.4605 117.727 83.1995 117.535 83.0075 117.289C82.8155 117.043 82.7195 116.758 82.7195 116.434C82.7195 116.152 82.7825 115.894 82.9085 115.66C83.0345 115.426 83.2355 115.201 83.5115 114.985C83.7875 114.763 84.1505 114.535 84.6005 114.301C84.9665 114.109 85.2515 113.941 85.4555 113.797C85.6655 113.653 85.8125 113.518 85.8965 113.392C85.9865 113.26 86.0315 113.119 86.0315 112.969C86.0315 112.765 85.9595 112.6 85.8155 112.474C85.6715 112.342 85.4645 112.276 85.1945 112.276C84.9125 112.276 84.6905 112.348 84.5285 112.492C84.3725 112.63 84.2945 112.813 84.2945 113.041C84.2945 113.155 84.3125 113.266 84.3485 113.374C84.3905 113.476 84.4625 113.593 84.5645 113.725C84.6725 113.851 84.8255 114.013 85.0235 114.211L88.3535 117.523L87.8675 118.099L84.3305 114.58C84.1205 114.37 83.9555 114.184 83.8355 114.022C83.7155 113.854 83.6285 113.692 83.5745 113.536C83.5205 113.38 83.4935 113.221 83.4935 113.059C83.4935 112.777 83.5625 112.531 83.7005 112.321C83.8445 112.105 84.0425 111.94 84.2945 111.826C84.5525 111.706 84.8525 111.646 85.1945 111.646C85.5125 111.646 85.7885 111.7 86.0225 111.808C86.2565 111.91 86.4365 112.06 86.5625 112.258C86.6945 112.45 86.7605 112.684 86.7605 112.96C86.7605 113.2 86.7005 113.422 86.5805 113.626C86.4665 113.83 86.2805 114.028 86.0225 114.22C85.7645 114.412 85.4165 114.619 84.9785 114.841C84.6185 115.027 84.3365 115.201 84.1325 115.363C83.9285 115.519 83.7815 115.675 83.6915 115.831C83.6075 115.987 83.5655 116.158 83.5655 116.344C83.5655 116.542 83.6225 116.719 83.7365 116.875C83.8565 117.025 84.0215 117.142 84.2315 117.226C84.4475 117.31 84.6965 117.352 84.9785 117.352C85.3805 117.352 85.7435 117.265 86.0675 117.091C86.3915 116.917 86.6615 116.656 86.8775 116.308C87.0995 115.96 87.2615 115.528 87.3635 115.012L88.0565 115.237C87.9365 115.843 87.7295 116.356 87.4355 116.776C87.1475 117.196 86.7905 117.517 86.3645 117.739C85.9385 117.961 85.4585 118.072 84.9245 118.072ZM93.6824 118.072C93.2024 118.072 92.7434 118 92.3054 117.856C91.8674 117.706 91.5224 117.514 91.2704 117.28L91.6034 116.578C91.8434 116.788 92.1494 116.962 92.5214 117.1C92.8934 117.238 93.2804 117.307 93.6824 117.307C94.0484 117.307 94.3454 117.265 94.5734 117.181C94.8014 117.097 94.9694 116.983 95.0774 116.839C95.1854 116.689 95.2394 116.521 95.2394 116.335C95.2394 116.119 95.1674 115.945 95.0234 115.813C94.8854 115.681 94.7024 115.576 94.4744 115.498C94.2524 115.414 94.0064 115.342 93.7364 115.282C93.4664 115.222 93.1934 115.153 92.9174 115.075C92.6474 114.991 92.3984 114.886 92.1704 114.76C91.9484 114.634 91.7684 114.466 91.6304 114.256C91.4924 114.04 91.4234 113.764 91.4234 113.428C91.4234 113.104 91.5074 112.807 91.6754 112.537C91.8494 112.261 92.1134 112.042 92.4674 111.88C92.8274 111.712 93.2834 111.628 93.8354 111.628C94.2014 111.628 94.5644 111.676 94.9244 111.772C95.2844 111.868 95.5964 112.006 95.8604 112.186L95.5634 112.906C95.2934 112.726 95.0084 112.597 94.7084 112.519C94.4084 112.435 94.1174 112.393 93.8354 112.393C93.4814 112.393 93.1904 112.438 92.9624 112.528C92.7344 112.618 92.5664 112.738 92.4584 112.888C92.3564 113.038 92.3054 113.206 92.3054 113.392C92.3054 113.614 92.3744 113.791 92.5124 113.923C92.6564 114.055 92.8394 114.16 93.0614 114.238C93.2894 114.316 93.5384 114.388 93.8084 114.454C94.0784 114.514 94.3484 114.583 94.6184 114.661C94.8944 114.739 95.1434 114.841 95.3654 114.967C95.5934 115.093 95.7764 115.261 95.9144 115.471C96.0524 115.681 96.1214 115.951 96.1214 116.281C96.1214 116.599 96.0344 116.896 95.8604 117.172C95.6864 117.442 95.4164 117.661 95.0504 117.829C94.6904 117.991 94.2344 118.072 93.6824 118.072ZM96.4822 118L99.3352 111.7H100.226L103.088 118H102.143L99.5962 112.204H99.9562L97.4092 118H96.4822ZM97.6972 116.425L97.9402 115.705H101.486L101.747 116.425H97.6972ZM103.188 118L106.041 111.7H106.932L109.794 118H108.849L106.302 112.204H106.662L104.115 118H103.188ZM104.403 116.425L104.646 115.705H108.192L108.453 116.425H104.403ZM112.57 118.072C112.09 118.072 111.631 118 111.193 117.856C110.755 117.706 110.41 117.514 110.158 117.28L110.491 116.578C110.731 116.788 111.037 116.962 111.409 117.1C111.781 117.238 112.168 117.307 112.57 117.307C112.936 117.307 113.233 117.265 113.461 117.181C113.689 117.097 113.857 116.983 113.965 116.839C114.073 116.689 114.127 116.521 114.127 116.335C114.127 116.119 114.055 115.945 113.911 115.813C113.773 115.681 113.59 115.576 113.362 115.498C113.14 115.414 112.894 115.342 112.624 115.282C112.354 115.222 112.081 115.153 111.805 115.075C111.535 114.991 111.286 114.886 111.058 114.76C110.836 114.634 110.656 114.466 110.518 114.256C110.38 114.04 110.311 113.764 110.311 113.428C110.311 113.104 110.395 112.807 110.563 112.537C110.737 112.261 111.001 112.042 111.355 111.88C111.715 111.712 112.171 111.628 112.723 111.628C113.089 111.628 113.452 111.676 113.812 111.772C114.172 111.868 114.484 112.006 114.748 112.186L114.451 112.906C114.181 112.726 113.896 112.597 113.596 112.519C113.296 112.435 113.005 112.393 112.723 112.393C112.369 112.393 112.078 112.438 111.85 112.528C111.622 112.618 111.454 112.738 111.346 112.888C111.244 113.038 111.193 113.206 111.193 113.392C111.193 113.614 111.262 113.791 111.4 113.923C111.544 114.055 111.727 114.16 111.949 114.238C112.177 114.316 112.426 114.388 112.696 114.454C112.966 114.514 113.236 114.583 113.506 114.661C113.782 114.739 114.031 114.841 114.253 114.967C114.481 115.093 114.664 115.261 114.802 115.471C114.94 115.681 115.009 115.951 115.009 116.281C115.009 116.599 114.922 116.896 114.748 117.172C114.574 117.442 114.304 117.661 113.938 117.829C113.578 117.991 113.122 118.072 112.57 118.072Z" fill="black"/>
</svg>
