<svg width="276" height="100" viewBox="0 0 276 100" fill="none"
    xmlns="http://www.w3.org/2000/svg">
    <rect x="7.75185" y="0.14603" width="270" height="70" rx="5" transform="rotate(6.41046 7.75185 0.14603)" fill="#A5DC74"/>
    <path d="M23.366 32.0891L24.851 18.8722L29.3069 19.3729L27.822 32.5897L23.366 32.0891ZM34.1928 33.3055L41.4554 20.7378L45.8358 21.2299L50.1285 35.0959L45.5215 34.5783L42.5017 22.9967L44.2388 23.1919L38.7243 33.8146L34.1928 33.3055ZM37.888 31.3881L39.3815 28.3056L45.4612 28.9886L46.2334 32.3257L37.888 31.3881ZM50.8396 35.1758L52.3246 21.959L55.9876 22.3705L61.8056 31.1691L60.1063 30.9782L61.01 22.9348L65.3526 23.4227L63.8677 36.6396L60.2047 36.228L54.3867 27.4294L56.086 27.6203L55.1823 35.6637L50.8396 35.1758ZM66.0147 36.8808L67.4996 23.6639L71.9556 24.1646L70.4706 37.3814L66.0147 36.8808ZM72.6157 37.6224L74.1007 24.4056L77.7636 24.8171L82.0809 34.0398L80.155 33.8234L86.2602 25.7717L89.9231 26.1833L88.4759 39.4044L84.4165 38.9483L85.1763 31.8447L85.8183 31.9168L81.6424 37.4321L79.6788 37.2115L76.6798 30.8901L77.4728 30.9792L76.6752 38.0785L72.6157 37.6224ZM89.1953 39.4852L96.4579 26.9175L100.838 27.4096L105.131 41.2756L100.524 40.758L97.5043 29.1764L99.2413 29.3716L93.7268 39.9943L89.1953 39.4852ZM92.8905 37.5678L94.384 34.4853L100.464 35.1683L101.236 38.5054L92.8905 37.5678ZM108.048 41.6034L109.145 31.8418L105.274 31.4069L105.663 27.9517L117.86 29.3221L117.472 32.7773L113.601 32.3424L112.504 42.104L108.048 41.6034ZM122.544 34.8194L128.435 35.4813L128.074 38.6911L122.183 38.0292L122.544 34.8194ZM122.29 39.8002L128.899 40.5427L128.521 43.9036L117.532 42.6689L119.017 29.4521L129.761 30.6591L129.383 34.02L123.02 33.3051L122.29 39.8002ZM138.767 45.0547L139.864 35.2932L135.993 34.8583L136.382 31.403L148.579 32.7734L148.191 36.2287L144.32 35.7938L143.223 45.5554L138.767 45.0547ZM158.308 33.8665L162.764 34.3672L161.279 47.584L156.823 47.0834L158.308 33.8665ZM152.707 46.6209L148.251 46.1203L149.736 32.9034L154.192 33.4041L152.707 46.6209ZM157.673 42.246L152.952 41.7156L153.364 38.0527L158.084 38.583L157.673 42.246ZM168.438 39.9757L174.329 40.6376L173.968 43.8474L168.077 43.1855L168.438 39.9757ZM168.184 44.9565L174.793 45.699L174.415 49.0599L163.426 47.8252L164.911 34.6084L175.655 35.8155L175.277 39.1763L168.914 38.4614L168.184 44.9565ZM20.7981 54.9453L22.283 41.7284L28.797 42.4603C30.2698 42.6258 31.5359 43.0421 32.5953 43.7092C33.6562 44.3637 34.4462 45.2173 34.9653 46.2698C35.4843 47.3223 35.6675 48.5283 35.5147 49.8878C35.3606 51.2598 34.913 52.4077 34.1719 53.3314C33.4322 54.2425 32.4718 54.9057 31.2907 55.3211C30.111 55.7239 28.7848 55.8426 27.3121 55.6771L20.7981 54.9453ZM25.6444 51.9718L27.5136 52.1818C28.143 52.2525 28.704 52.1944 29.1966 52.0076C29.7018 51.8222 30.1127 51.5115 30.4294 51.0754C30.7474 50.6268 30.9447 50.0626 31.021 49.3829C31.096 48.7158 31.0274 48.1345 30.8154 47.639C30.6034 47.1436 30.2717 46.7494 29.8202 46.4565C29.3814 46.165 28.8473 45.9839 28.2179 45.9132L26.3486 45.7032L25.6444 51.9718ZM41.4089 48.8484L47.2999 49.5102L46.9392 52.72L41.0483 52.0582L41.4089 48.8484ZM41.1552 53.8292L47.7636 54.5717L47.386 57.9325L36.3972 56.6979L37.8821 43.481L48.6255 44.6881L48.2479 48.0489L41.885 47.334L41.1552 53.8292ZM53.9955 58.981C52.8878 58.8566 51.832 58.6105 50.8281 58.2428C49.8242 57.875 49.0113 57.4523 48.3895 56.9746L50.1893 53.8882C50.7777 54.324 51.443 54.6983 52.1854 55.0111C52.9418 55.3128 53.685 55.5046 54.4151 55.5866C54.8431 55.6347 55.1795 55.647 55.4243 55.6235C55.6831 55.5889 55.8748 55.5276 55.9994 55.4396C56.1254 55.3391 56.1969 55.2132 56.2139 55.0622C56.2408 54.823 56.1298 54.6194 55.881 54.4512C55.6322 54.2831 55.2925 54.1302 54.8619 53.9926C54.4452 53.8438 53.9845 53.69 53.4797 53.5314C52.9764 53.3601 52.4702 53.1566 51.9614 52.921C51.4651 52.6868 51.0129 52.4002 50.6049 52.0612C50.2094 51.7236 49.9057 51.3071 49.6937 50.8116C49.4831 50.3036 49.4174 49.6972 49.4966 48.9923C49.5885 48.1741 49.8985 47.4569 50.4266 46.8406C50.9687 46.2132 51.7156 45.7491 52.6671 45.4481C53.6313 45.1485 54.7931 45.0751 56.1525 45.2279C57.0462 45.3283 57.9167 45.5217 58.7641 45.8081C59.6114 46.0945 60.3593 46.4717 61.0077 46.9396L59.3044 50.0177C58.6867 49.6169 58.0786 49.3 57.4802 49.0671C56.8943 48.8356 56.3119 48.6873 55.7329 48.6222C55.3049 48.5741 54.9608 48.5737 54.7006 48.621C54.4404 48.6682 54.2465 48.7484 54.1191 48.8615C54.0043 48.9761 53.9383 49.1089 53.9214 49.26C53.8959 49.4865 54.0076 49.6839 54.2564 49.8521C54.5066 50.0076 54.8407 50.1535 55.2588 50.2897C55.6894 50.4273 56.1571 50.5755 56.6619 50.7342C57.1793 50.8943 57.6861 51.0914 58.1824 51.3256C58.6787 51.5598 59.1245 51.8457 59.52 52.1833C59.928 52.5223 60.238 52.9396 60.4501 53.435C60.6621 53.9304 60.7292 54.5243 60.6514 55.2166C60.5609 56.0222 60.2446 56.7387 59.7025 57.3661C59.1744 57.9823 58.4338 58.4472 57.4809 58.7608C56.5293 59.0618 55.3675 59.1352 53.9955 58.981ZM61.5107 59.5195L62.9956 46.3026L67.4516 46.8032L65.9666 60.0201L61.5107 59.5195ZM74.9316 61.3333C73.8617 61.213 72.892 60.9384 72.0224 60.5093C71.1669 60.069 70.4402 59.503 69.8424 58.8113C69.2571 58.1209 68.8294 57.3336 68.5591 56.4492C68.2888 55.5648 68.2109 54.6129 68.3255 53.5933C68.4401 52.5737 68.7272 51.6627 69.187 50.8604C69.6468 50.058 70.2449 49.3859 70.9814 48.8441C71.7178 48.3023 72.5575 47.9186 73.5006 47.6932C74.4577 47.4566 75.4838 47.3998 76.5789 47.5228C77.888 47.6699 79.0276 48.021 79.9977 48.5761C80.9803 49.1326 81.7593 49.8575 82.3345 50.7506L79.2013 52.9415C78.8396 52.4165 78.4268 52.0068 77.9627 51.7125C77.5127 51.407 76.9919 51.2211 76.4003 51.1546C75.9094 51.0994 75.454 51.1247 75.0343 51.2305C74.6271 51.3377 74.2688 51.5206 73.9593 51.779C73.6498 52.0373 73.397 52.3595 73.2007 52.7453C73.0044 53.1311 72.8772 53.5821 72.8192 54.0982C72.7641 54.5891 72.7887 55.0507 72.8931 55.4831C72.9989 55.9028 73.174 56.273 73.4184 56.5937C73.6627 56.9143 73.9646 57.1776 74.3238 57.3837C74.697 57.5786 75.1228 57.7029 75.6012 57.7566C76.1047 57.8132 76.6048 57.7865 77.1015 57.6767C77.5996 57.5542 78.1426 57.3156 78.7305 56.9611L80.8792 60.2998C80.0128 60.7506 79.0472 61.0627 77.9825 61.2363C76.9178 61.4098 75.9009 61.4421 74.9316 61.3333ZM77.0722 59.2985L77.6365 54.2761L81.5071 54.711L80.8792 60.2998L77.0722 59.2985ZM82.6229 61.8915L84.1079 48.6746L87.7708 49.0862L93.5889 57.8848L91.8895 57.6939L92.7932 49.6505L97.1359 50.1384L95.651 63.3552L91.988 62.9437L86.17 54.1451L87.8693 54.336L86.9656 62.3794L82.6229 61.8915ZM106.801 64.6079L104.056 50.9159L108.644 51.4314L110.808 62.9741L108.505 62.7153L113.383 51.9638L117.481 52.4242L119.607 63.9627L117.398 63.7145L122.22 52.9566L126.449 53.4318L120.735 66.1735L115.958 65.6368L114.228 56.1885L115.512 56.3328L111.578 65.1446L106.801 64.6079ZM125.954 66.7598L127.439 53.543L131.895 54.0436L130.41 67.2605L125.954 66.7598ZM135.425 67.8239L136.522 58.0623L132.651 57.6275L133.039 54.1722L145.236 55.5426L144.848 58.9979L140.978 58.563L139.881 68.3246L135.425 67.8239ZM154.966 56.6357L159.422 57.1364L157.937 70.3532L153.481 69.8526L154.966 56.6357ZM149.365 69.3901L144.909 68.8895L146.394 55.6726L150.85 56.1733L149.365 69.3901ZM154.33 65.0152L149.61 64.4848L150.022 60.8219L154.742 61.3522L154.33 65.0152ZM172.546 72.3005C171.488 72.1817 170.525 71.9077 169.655 71.4786C168.8 71.0383 168.073 70.4723 167.475 69.7806C166.89 69.0903 166.462 68.3029 166.192 67.4185C165.922 66.5342 165.844 65.5822 165.958 64.5626C166.073 63.543 166.36 62.6321 166.82 61.8297C167.28 61.0274 167.871 60.3546 168.595 59.8113C169.332 59.2695 170.165 58.8851 171.096 58.6583C172.04 58.4202 173.041 58.3606 174.098 58.4794C175.395 58.6251 176.515 58.9804 177.458 59.5452C178.414 60.1115 179.172 60.8594 179.73 61.7889L176.635 63.984C176.3 63.4493 175.908 63.0228 175.459 62.7048C175.024 62.3755 174.511 62.1776 173.92 62.1112C173.454 62.0589 173.024 62.087 172.629 62.1956C172.235 62.3042 171.883 62.4878 171.573 62.7462C171.276 63.006 171.029 63.3351 170.831 63.7335C170.635 64.1193 170.509 64.564 170.452 65.0675C170.395 65.571 170.419 66.0389 170.524 66.4713C170.63 66.891 170.798 67.2605 171.03 67.5797C171.275 67.9004 171.577 68.1574 171.938 68.3509C172.298 68.5444 172.712 68.6673 173.177 68.7196C173.769 68.7861 174.312 68.7133 174.808 68.5013C175.317 68.2781 175.795 67.943 176.24 67.4959L178.771 70.3232C178.022 71.093 177.118 71.6542 176.058 72.0068C175.013 72.3482 173.842 72.4461 172.546 72.3005ZM186.414 73.8586C185.344 73.7384 184.368 73.4567 183.488 73.0136C182.62 72.5719 181.887 72.0052 181.289 71.3135C180.692 70.6091 180.253 69.8141 179.97 68.9283C179.7 68.0439 179.62 67.1045 179.732 66.1101C179.845 65.1031 180.131 64.2047 180.589 63.415C181.062 62.614 181.666 61.9427 182.402 61.4008C183.14 60.8464 183.981 60.4502 184.926 60.2122C185.883 59.9755 186.897 59.9173 187.966 60.0375C189.049 60.1592 190.024 60.4408 190.892 60.8825C191.761 61.3242 192.493 61.8972 193.089 62.6015C193.687 63.2933 194.121 64.0813 194.391 64.9657C194.676 65.8389 194.761 66.779 194.648 67.786C194.536 68.7804 194.244 69.6781 193.772 70.479C193.312 71.2814 192.713 71.9597 191.976 72.5142C191.239 73.056 190.399 73.4459 189.454 73.684C188.51 73.922 187.496 73.9802 186.414 73.8586ZM186.819 70.2523C187.234 70.2989 187.627 70.2665 187.996 70.1551C188.378 70.0451 188.717 69.8664 189.012 69.6192C189.322 69.3608 189.575 69.0387 189.771 68.6529C189.969 68.2544 190.096 67.7972 190.154 67.2811C190.212 66.765 190.188 66.2971 190.083 65.8773C189.978 65.445 189.803 65.0748 189.557 64.7667C189.326 64.4475 189.036 64.1919 188.688 63.9998C188.352 63.8092 187.977 63.6905 187.561 63.6438C187.146 63.5972 186.747 63.6289 186.365 63.7389C185.996 63.8503 185.656 64.0353 185.347 64.2937C185.051 64.5409 184.805 64.8637 184.607 65.2621C184.411 65.648 184.284 66.0989 184.226 66.615C184.168 67.1311 184.191 67.6053 184.295 68.0377C184.401 68.4574 184.57 68.8269 184.802 69.1461C185.048 69.4542 185.338 69.7035 185.674 69.8942C186.022 70.0862 186.403 70.2056 186.819 70.2523ZM195.523 74.5761L197.008 61.3593L203.522 62.0911C204.995 62.2566 206.261 62.6729 207.32 63.34C208.381 63.9946 209.171 64.8481 209.69 65.9007C210.209 66.9532 210.392 68.1592 210.24 69.5186C210.085 70.8907 209.638 72.0385 208.897 72.9622C208.157 73.8733 207.197 74.5366 206.016 74.952C204.836 75.3548 203.51 75.4735 202.037 75.308L195.523 74.5761ZM200.369 71.6026L202.238 71.8126C202.868 71.8833 203.429 71.8253 203.921 71.6384C204.427 71.453 204.838 71.1423 205.154 70.7063C205.472 70.2576 205.67 69.6935 205.746 69.0137C205.821 68.3466 205.752 67.7653 205.54 67.2699C205.328 66.7744 204.997 66.3803 204.545 66.0874C204.106 65.7959 203.572 65.6148 202.943 65.5441L201.074 65.3341L200.369 71.6026ZM216.134 68.4792L222.025 69.1411L221.664 72.3509L215.773 71.689L216.134 68.4792ZM215.88 73.46L222.489 74.2025L222.111 77.5634L211.122 76.3287L212.607 63.1119L223.35 64.3189L222.973 67.6798L216.61 66.9649L215.88 73.46ZM235.598 79.136C234.654 79.03 233.798 78.7618 233.031 78.3314C232.264 77.901 231.612 77.3498 231.075 76.6777C230.54 75.993 230.148 75.2288 229.899 74.385C229.662 73.5427 229.596 72.6557 229.701 71.7243C229.805 70.7928 230.073 69.9433 230.503 69.1759C230.934 68.4085 231.485 67.7567 232.157 67.2203C232.831 66.6714 233.589 66.2723 234.433 66.023C235.289 65.775 236.19 65.7041 237.134 65.8102C238.078 65.9162 238.933 66.1844 239.701 66.6148C240.482 67.034 241.135 67.5789 241.658 68.2496C242.195 68.9217 242.581 69.6789 242.818 70.5213C243.069 71.3525 243.141 72.2401 243.035 73.1842C242.929 74.1282 242.66 74.9903 242.228 75.7703C241.798 76.5377 241.24 77.1951 240.554 77.7426C239.882 78.2789 239.124 78.6718 238.28 78.9211C237.436 79.1705 236.542 79.2421 235.598 79.136ZM235.785 77.4745C236.49 77.5537 237.152 77.5007 237.772 77.3154C238.406 77.1189 238.969 76.8189 239.46 76.4152C239.952 76.0116 240.351 75.5211 240.658 74.9437C240.979 74.3552 241.18 73.7023 241.26 72.9848C241.341 72.2673 241.296 71.593 241.124 70.9619C240.953 70.3309 240.678 69.771 240.3 69.2824C239.923 68.7811 239.445 68.377 238.868 68.0699C238.305 67.7517 237.664 67.5523 236.947 67.4717C236.229 67.3911 235.554 67.4427 234.922 67.6266C234.302 67.8119 233.746 68.1063 233.255 68.51C232.763 68.9136 232.363 69.4104 232.055 70.0003C231.748 70.5777 231.555 71.2188 231.476 71.9237C231.396 72.6286 231.442 73.3028 231.612 73.9465C231.783 74.5776 232.057 75.1437 232.434 75.645C232.824 76.1476 233.3 76.558 233.864 76.8763C234.44 77.1959 235.08 77.3953 235.785 77.4745ZM236.229 76.2434C235.436 76.1543 234.749 75.9178 234.167 75.5338C233.6 75.1386 233.171 74.6443 232.881 74.0509C232.592 73.4448 232.489 72.7768 232.571 72.0467C232.653 71.3166 232.901 70.6945 233.316 70.1802C233.732 69.6534 234.26 69.2666 234.899 69.0198C235.553 68.7618 236.276 68.6773 237.069 68.7664C237.912 68.8612 238.609 69.1306 239.158 69.5747C239.72 70.0202 240.076 70.5893 240.228 71.2819L237.673 72.2376C237.579 71.9465 237.456 71.7352 237.305 71.6035C237.154 71.4718 236.971 71.394 236.757 71.3699C236.594 71.3515 236.432 71.3779 236.271 71.4491C236.124 71.509 235.99 71.6215 235.869 71.7864C235.763 71.9401 235.696 72.1429 235.667 72.3946C235.639 72.6464 235.659 72.8653 235.727 73.0514C235.81 73.2264 235.915 73.3657 236.044 73.4693C236.186 73.5618 236.339 73.6173 236.503 73.6357C236.717 73.6597 236.912 73.6243 237.088 73.5294C237.265 73.4345 237.431 73.2556 237.588 72.9929L239.867 74.4917C239.567 75.1208 239.093 75.5965 238.445 75.9188C237.811 76.23 237.072 76.3382 236.229 76.2434Z" fill="black"/>
</svg>
