<svg width="276" height="100" viewBox="0 0 276 100" fill="none"
    xmlns="http://www.w3.org/2000/svg">
    <rect x="7.75185" y="0.14603" width="270" height="70" rx="5" transform="rotate(6.41046 7.75185 0.14603)" fill="#A5DC74"/>
    <path d="M30.1482 33.157C29.0783 33.0368 28.1029 32.7551 27.2222 32.312C26.3541 31.8703 25.6212 31.3036 25.0233 30.6119C24.4269 29.9076 23.9872 29.1125 23.7044 28.2267C23.4341 27.3423 23.3548 26.4029 23.4665 25.4085C23.5797 24.4015 23.8654 23.5032 24.3238 22.7134C24.7962 21.9125 25.4006 21.2411 26.137 20.6993C26.8749 20.1448 27.716 19.7486 28.6605 19.5106C29.6176 19.2739 30.6311 19.2157 31.701 19.3359C32.7835 19.4576 33.7589 19.7392 34.627 20.1809C35.4951 20.6226 36.2274 21.1956 36.8238 21.8999C37.4216 22.5917 37.8557 23.3797 38.126 24.2641C38.4103 25.1373 38.4958 26.0774 38.3827 27.0844C38.271 28.0788 37.9789 28.9765 37.5065 29.7774C37.0467 30.5798 36.4479 31.2582 35.7101 31.8126C34.9736 32.3544 34.1332 32.7443 33.1887 32.9824C32.2442 33.2204 31.2307 33.2786 30.1482 33.157ZM30.5534 29.5507C30.9688 29.5974 31.3612 29.565 31.7306 29.4535C32.1126 29.3435 32.4513 29.1648 32.7468 28.9176C33.0562 28.6592 33.3091 28.3371 33.5054 27.9513C33.7031 27.5529 33.831 27.0956 33.889 26.5795C33.9469 26.0634 33.923 25.5955 33.8172 25.1757C33.7129 24.7434 33.5378 24.3732 33.292 24.0651C33.0601 23.7459 32.7702 23.4903 32.4221 23.2982C32.0867 23.1076 31.7112 22.9889 31.2958 22.9423C30.8805 22.8956 30.4818 22.9273 30.0998 23.0373C29.7303 23.1488 29.3909 23.3337 29.0814 23.5921C28.786 23.8393 28.5394 24.1621 28.3417 24.5605C28.1454 24.9464 28.0182 25.3973 27.9603 25.9134C27.9023 26.4295 27.9255 26.9037 28.0299 27.3361C28.1356 27.7559 28.3045 28.1253 28.5363 28.4446C28.7821 28.7526 29.0727 29.0019 29.4082 29.1926C29.7563 29.3846 30.138 29.504 30.5534 29.5507ZM53.8884 35.5184L51.752 29.0071L55.7238 27.3502L59.0052 36.0932L53.8884 35.5184ZM49.7992 30.2217L50.1938 26.7098L54.5931 27.2041L54.1985 30.716L49.7992 30.2217ZM55.7296 29.5114L51.6601 28.6335L55.6565 22.3333L60.3013 22.8552L55.7296 29.5114ZM42.824 34.2752L37.7072 33.7004L42.8657 25.9056L46.3709 28.4025L42.824 34.2752ZM50.5464 35.1429L46.2037 34.655L47.6887 21.4381L52.0313 21.926L50.5464 35.1429ZM48.0243 30.0223L43.5873 29.5238L43.9818 26.0118L48.4189 26.5104L48.0243 30.0223ZM42.3806 28.0116L39.3809 20.5047L44.0257 21.0266L46.4678 28.0502L42.3806 28.0116ZM59.8952 36.1932L61.3802 22.9764L65.7606 23.4686L64.9885 30.3413L70.311 23.9798L74.5026 24.4507L73.0177 37.6676L68.6372 37.1754L69.4073 30.3216L64.1058 36.6663L59.8952 36.1932ZM75.3653 37.9314L76.8502 24.7145L83.5531 25.4676C85.1894 25.6514 86.4205 26.0957 87.2464 26.8003C88.0848 27.5063 88.4425 28.4069 88.3194 29.502C88.1992 30.5719 87.6884 31.3749 86.7869 31.9109C85.8868 32.4344 84.7319 32.6169 83.3221 32.4585L83.8143 31.4814C85.3122 31.6496 86.4559 32.0777 87.2454 32.7655C88.0348 33.4532 88.3659 34.3636 88.2386 35.4964C88.1071 36.6671 87.5367 37.5462 86.5275 38.1339C85.5182 38.7215 84.1514 38.9185 82.4269 38.7247L75.3653 37.9314ZM80.0958 35.3081L82.5692 35.586C82.9342 35.627 83.2148 35.5693 83.4108 35.4129C83.6208 35.2453 83.7449 34.9916 83.7831 34.6517C83.8213 34.3118 83.7552 34.0495 83.5847 33.8646C83.4283 33.6686 83.1676 33.5501 82.8025 33.5091L80.3291 33.2312L80.0958 35.3081ZM80.66 30.2857L82.5482 30.4978C82.9258 30.5403 83.2119 30.4896 83.4065 30.3457C83.6011 30.2019 83.7161 29.9726 83.7515 29.6579C83.7882 29.3307 83.7277 29.0753 83.5699 28.8919C83.4134 28.6958 83.1464 28.5766 82.7688 28.5342L80.8807 28.3221L80.66 30.2857ZM90.3514 39.8636C90.0744 39.8325 89.7808 39.7804 89.4703 39.7073C89.1599 39.6342 88.8334 39.5338 88.4908 39.406L89.1183 35.863C89.2903 35.9205 89.4518 35.9578 89.6029 35.9747C90.0938 36.0299 90.4815 35.8695 90.7659 35.4936C91.0503 35.1177 91.2747 34.5948 91.4392 33.925C91.6051 33.2426 91.7487 32.4748 91.8701 31.6217L92.6191 26.4862L103.778 27.7399L102.293 40.9568L97.9126 40.4646L99.1154 29.759L99.9722 30.8112L95.1575 30.2703L96.1385 29.3671L95.7787 31.8887C95.5981 33.1558 95.3799 34.304 95.124 35.3332C94.8822 36.3512 94.5615 37.2202 94.162 37.9401C93.7638 38.6474 93.2526 39.1699 92.6284 39.5076C92.0167 39.8468 91.2577 39.9655 90.3514 39.8636ZM111.84 42.0294L112.292 38.0077L113.231 39.0118L110.191 38.6703C108.97 38.5331 107.934 38.2192 107.085 37.7285C106.249 37.2268 105.633 36.5777 105.238 35.7813C104.844 34.9849 104.704 34.0706 104.82 33.0384C104.939 31.981 105.286 31.1023 105.862 30.4022C106.452 29.691 107.229 29.1793 108.195 28.8671C109.16 28.555 110.266 28.4689 111.512 28.6089L117.705 29.3047L116.221 42.5216L111.84 42.0294ZM103.967 41.1448L107.831 36.7034L112.268 37.202L108.63 41.6688L103.967 41.1448ZM112.449 36.6105L113.06 31.1727L113.977 32.3656L111.202 32.0538C110.635 31.9901 110.193 32.0742 109.873 32.306C109.567 32.5392 109.383 32.9265 109.322 33.4678C109.26 34.0216 109.357 34.4595 109.614 34.7816C109.873 35.091 110.279 35.2769 110.833 35.3391L113.608 35.6509L112.449 36.6105ZM118.567 42.7852L120.052 29.5684L124.433 30.0605L123.906 34.743L127.324 35.127L126.912 38.79L123.495 38.406L122.948 43.2774L118.567 42.7852ZM131.014 44.4895C129.956 44.3707 129 44.0912 128.144 43.6509C127.301 43.2121 126.581 42.6468 125.983 41.955C125.399 41.2521 124.972 40.4585 124.702 39.5741C124.444 38.6911 124.371 37.7524 124.483 36.758C124.596 35.751 124.876 34.8519 125.321 34.0608C125.781 33.2584 126.373 32.5856 127.097 32.0424C127.835 31.488 128.663 31.0903 129.583 30.8495C130.515 30.61 131.509 30.5497 132.566 30.6685C133.624 30.7873 134.574 31.0661 135.417 31.505C136.272 31.9452 136.992 32.5168 137.576 33.2197C138.161 33.9101 138.583 34.6967 138.84 35.5797C139.112 36.4515 139.191 37.3908 139.078 38.3978C138.966 39.3922 138.681 40.2906 138.221 41.093C137.774 41.8967 137.187 42.5765 136.462 43.1324C135.738 43.6756 134.911 44.067 133.979 44.3064C133.059 44.5473 132.071 44.6083 131.014 44.4895ZM131.419 40.8832C131.809 40.927 132.176 40.8918 132.521 40.7775C132.877 40.6647 133.197 40.4839 133.48 40.2353C133.777 39.9755 134.017 39.652 134.201 39.2647C134.399 38.8663 134.526 38.409 134.584 37.893C134.642 37.3769 134.619 36.9089 134.513 36.4892C134.421 36.0582 134.258 35.6894 134.025 35.3828C133.806 35.065 133.535 34.8115 133.212 34.6223C132.902 34.4345 132.552 34.3186 132.161 34.2748C131.771 34.2309 131.398 34.2655 131.041 34.3783C130.684 34.4912 130.357 34.6775 130.06 34.9373C129.777 35.186 129.537 35.5095 129.339 35.9079C129.156 36.2952 129.035 36.7468 128.977 37.2629C128.919 37.779 128.936 38.2525 129.027 38.6835C129.133 39.1032 129.296 39.472 129.515 39.7898C129.748 40.0964 130.026 40.3444 130.349 40.5336C130.672 40.7228 131.029 40.8394 131.419 40.8832ZM154.533 44.9141L155.418 37.0407L152.378 36.6991L152.234 37.6389C152.131 38.3284 152.014 38.9717 151.883 39.5688C151.752 40.166 151.602 40.7099 151.432 41.2007C151.275 41.6929 151.093 42.1249 150.885 42.4967C150.679 42.856 150.442 43.148 150.175 43.3729L145.533 42.316C145.948 42.3627 146.304 42.2624 146.599 42.0152C146.909 41.7568 147.173 41.385 147.394 40.8999C147.615 40.4022 147.803 39.8114 147.956 39.1276C148.123 38.4326 148.273 37.6656 148.406 36.8264L149.009 32.8217L160.186 34.0776L158.913 45.4063L154.533 44.9141ZM144.476 48.3156L145.155 42.2736L160.827 44.0343L160.148 50.0763L156.069 49.6181L156.36 47.0313L148.845 46.187L148.555 48.7738L144.476 48.3156ZM161.935 47.6577L163.42 34.4408L167.8 34.933L167.028 41.8058L172.351 35.4443L176.542 35.9152L175.057 49.132L170.677 48.6399L171.447 41.786L166.145 48.1308L161.935 47.6577ZM176.577 48.4233L178.226 45.4921C178.754 45.7809 179.301 46.0207 179.866 46.2116C180.443 46.404 181.001 46.5495 181.538 46.648C182.076 46.734 182.557 46.7626 182.981 46.7337C183.417 46.7063 183.771 46.6186 184.043 46.4707C184.315 46.3227 184.467 46.104 184.499 45.8145C184.533 45.5124 184.431 45.2905 184.192 45.149C183.952 45.0074 183.65 44.9161 183.285 44.8751L179.717 44.4742L180.078 41.2644L183.268 41.6229C183.646 41.6653 183.937 41.6279 184.141 41.5106C184.36 41.3822 184.482 41.1984 184.509 40.9593C184.539 40.6949 184.449 40.4745 184.239 40.298C184.042 40.1229 183.758 39.989 183.386 39.8962C183.028 39.7922 182.613 39.7393 182.142 39.7373C181.672 39.7227 181.177 39.7627 180.656 39.8572C180.15 39.9405 179.651 40.0693 179.16 40.2435L178.222 36.8496C179.201 36.5262 180.209 36.3463 181.246 36.3098C182.297 36.2622 183.301 36.3431 184.259 36.5527C185.231 36.7511 186.088 37.0578 186.832 37.4728C187.588 37.8892 188.169 38.3941 188.574 38.9877C188.98 39.5687 189.142 40.2243 189.06 40.9543C188.99 41.5837 188.756 42.1311 188.36 42.5964C187.965 43.0491 187.456 43.3807 186.833 43.5911C186.223 43.803 185.546 43.8672 184.804 43.7838L184.998 42.907C185.866 43.0046 186.604 43.2468 187.211 43.6336C187.831 44.0092 188.288 44.4812 188.581 45.0494C188.887 45.6191 189.001 46.2438 188.925 46.9236C188.854 47.5529 188.621 48.1003 188.224 48.5656C187.829 49.0183 187.31 49.387 186.666 49.6715C186.036 49.9449 185.315 50.1252 184.502 50.2123C183.702 50.3009 182.849 50.2942 181.942 50.1924C181.047 50.1046 180.139 49.9069 179.218 49.5994C178.307 49.306 177.427 48.9139 176.577 48.4233ZM188.977 50.6959L196.239 38.1282L200.62 38.6204L204.912 52.4864L200.305 51.9687L197.286 40.3872L199.023 40.5823L193.508 51.2051L188.977 50.6959ZM192.672 48.7785L194.165 45.696L200.245 46.3791L201.017 49.7161L192.672 48.7785ZM206.132 52.6234L207.617 39.4066L211.998 39.8987L211.226 46.7715L216.548 40.41L220.74 40.8809L219.255 54.0978L214.874 53.6056L215.644 46.7517L210.343 53.0965L206.132 52.6234ZM214.254 39.3874C212.756 39.2191 211.724 38.8227 211.156 38.1981C210.603 37.5624 210.385 36.7222 210.503 35.6774L213.467 36.0105C213.42 36.4258 213.468 36.7434 213.609 36.9632C213.764 37.1718 214.055 37.3002 214.483 37.3483C214.924 37.3978 215.243 37.338 215.44 37.169C215.639 36.9874 215.762 36.6889 215.808 36.2735L218.773 36.6066C218.655 37.6513 218.244 38.4209 217.538 38.9152C216.847 39.3983 215.752 39.5557 214.254 39.3874ZM231.659 42.1078L236.115 42.6084L234.63 55.8253L230.174 55.3246L231.659 42.1078ZM226.058 54.8622L221.602 54.3615L223.087 41.1447L227.543 41.6453L226.058 54.8622ZM231.024 50.4872L226.304 49.9569L226.715 46.2939L231.435 46.8242L231.024 50.4872ZM249.253 57.7741C248.196 57.6553 247.232 57.3813 246.363 56.9522C245.507 56.512 244.781 55.9459 244.183 55.2542C243.598 54.5639 243.17 53.7765 242.9 52.8922C242.629 52.0078 242.551 51.0558 242.666 50.0362C242.78 49.0166 243.068 48.1057 243.527 47.3033C243.987 46.501 244.579 45.8282 245.303 45.2849C246.039 44.7431 246.873 44.3588 247.803 44.1319C248.748 43.8939 249.749 43.8342 250.806 43.953C252.103 44.0987 253.223 44.454 254.166 45.0188C255.122 45.5851 255.879 46.333 256.438 47.2625L253.342 49.4576C253.007 48.9229 252.615 48.4965 252.167 48.1784C251.732 47.8491 251.219 47.6513 250.627 47.5848C250.162 47.5325 249.732 47.5606 249.337 47.6692C248.942 47.7779 248.59 47.9614 248.281 48.2198C247.984 48.4796 247.737 48.8087 247.539 49.2071C247.343 49.5929 247.216 50.0376 247.16 50.5411C247.103 51.0446 247.127 51.5125 247.231 51.9449C247.337 52.3647 247.506 52.7341 247.738 53.0534C247.982 53.374 248.285 53.631 248.645 53.8245C249.006 54.018 249.419 54.1409 249.885 54.1932C250.477 54.2597 251.02 54.1869 251.516 53.9749C252.025 53.7517 252.502 53.4166 252.948 52.9695L255.479 55.7968C254.73 56.5666 253.825 57.1278 252.766 57.4804C251.721 57.8219 250.55 57.9197 249.253 57.7741ZM20.8925 54.9559L22.3774 41.739L35.16 43.1752L33.675 56.392L29.2946 55.8999L30.4974 45.1942L31.3543 46.2465L25.4067 45.5783L26.4757 44.7424L25.2729 55.448L20.8925 54.9559ZM42.6999 57.7119C41.63 57.5917 40.6547 57.3101 39.774 56.867C38.9059 56.4253 38.1729 55.8586 37.5751 55.1668C36.9786 54.4625 36.539 53.6674 36.2561 52.7816C35.9858 51.8973 35.9066 50.9579 36.0183 49.9635C36.1314 48.9565 36.4172 48.0581 36.8756 47.2683C37.3479 46.4674 37.9523 45.796 38.6888 45.2542C39.4266 44.6998 40.2678 44.3035 41.2123 44.0655C42.1693 43.8289 43.1828 43.7707 44.2528 43.8909C45.3353 44.0125 46.3106 44.2942 47.1787 44.7359C48.0468 45.1775 48.7791 45.7505 49.3755 46.4549C49.9734 47.1466 50.4074 47.9347 50.6777 48.819C50.962 49.6922 51.0476 50.6323 50.9344 51.6393C50.8227 52.6338 50.5307 53.5314 50.0583 54.3324C49.5985 55.1347 48.9997 55.8131 48.2618 56.3675C47.5254 56.9093 46.6849 57.2993 45.7405 57.5373C44.796 57.7753 43.7825 57.8336 42.6999 57.7119ZM43.1051 54.1056C43.5205 54.1523 43.9129 54.1199 44.2823 54.0084C44.6643 53.8984 45.0031 53.7198 45.2985 53.4726C45.608 53.2142 45.8609 52.892 46.0572 52.5062C46.2549 52.1078 46.3827 51.6505 46.4407 51.1345C46.4987 50.6184 46.4748 50.1504 46.369 49.7307C46.2646 49.2983 46.0895 48.9281 45.8437 48.6201C45.6119 48.3009 45.322 48.0452 44.9739 47.8532C44.6384 47.6625 44.263 47.5439 43.8476 47.4972C43.4322 47.4505 43.0335 47.4822 42.6515 47.5922C42.2821 47.7037 41.9427 47.8886 41.6332 48.147C41.3378 48.3942 41.0912 48.7171 40.8934 49.1155C40.6971 49.5013 40.57 49.9523 40.512 50.4684C40.454 50.9844 40.4772 51.4587 40.5816 51.891C40.6874 52.3108 40.8562 52.6803 41.088 52.9995C41.3338 53.3075 41.6245 53.5569 41.9599 53.7475C42.308 53.9396 42.6897 54.0589 43.1051 54.1056ZM51.7957 58.4279L53.2806 45.2111L56.9436 45.6226L61.2609 54.8453L59.335 54.629L65.4401 46.5773L69.1031 46.9888L67.6559 60.2099L63.5964 59.7538L64.3563 52.6502L64.9983 52.7223L60.8224 58.2376L58.8587 58.017L55.8598 51.6956L56.6528 51.7847L55.8551 58.884L51.7957 58.4279ZM76.664 61.5279C75.5941 61.4077 74.6187 61.126 73.738 60.6829C72.8699 60.2412 72.1369 59.6745 71.5391 58.9828C70.9427 58.2784 70.503 57.4834 70.2202 56.5976C69.9499 55.7132 69.8706 54.7738 69.9823 53.7794C70.0955 52.7724 70.3812 51.8741 70.8396 51.0843C71.312 50.2834 71.9164 49.612 72.6528 49.0701C73.3907 48.5157 74.2318 48.1195 75.1763 47.8815C76.1334 47.6448 77.1469 47.5866 78.2168 47.7068C79.2993 47.8285 80.2747 48.1101 81.1428 48.5518C82.0109 48.9935 82.7432 49.5665 83.3396 50.2708C83.9374 50.9626 84.3715 51.7506 84.6418 52.635C84.926 53.5082 85.0116 54.4483 84.8985 55.4553C84.7868 56.4497 84.4947 57.3474 84.0223 58.1483C83.5625 58.9507 82.9637 59.629 82.2259 60.1835C81.4894 60.7253 80.649 61.1152 79.7045 61.3533C78.76 61.5913 77.7465 61.6495 76.664 61.5279ZM77.0692 57.9216C77.4846 57.9682 77.877 57.9359 78.2464 57.8244C78.6284 57.7144 78.9671 57.5357 79.2626 57.2885C79.572 57.0301 79.8249 56.708 80.0212 56.3222C80.2189 55.9238 80.3468 55.4665 80.4048 54.9504C80.4627 54.4343 80.4388 53.9664 80.333 53.5466C80.2287 53.1143 80.0536 52.7441 79.8078 52.436C79.5759 52.1168 79.286 51.8612 78.9379 51.6691C78.6025 51.4785 78.227 51.3598 77.8116 51.3132C77.3963 51.2665 76.9976 51.2982 76.6156 51.4082C76.2461 51.5197 75.9067 51.7046 75.5972 51.963C75.3018 52.2102 75.0552 52.533 74.8575 52.9314C74.6612 53.3173 74.534 53.7682 74.4761 54.2843C74.4181 54.8004 74.4413 55.2746 74.5456 55.707C74.6514 56.1267 74.8202 56.4962 75.0521 56.8154C75.2979 57.1235 75.5885 57.3728 75.924 57.5635C76.2721 57.7555 76.6538 57.8749 77.0692 57.9216ZM94.1536 59.6881L93.0824 60.5429L94.2874 49.8183L98.6678 50.3105L97.4629 61.035L96.5892 59.9618L101.196 60.4794L100.106 61.332L101.311 50.6075L105.692 51.0996L104.207 64.3165L85.7597 62.2439L87.2447 49.0271L91.6251 49.5192L90.4202 60.2437L89.5654 59.1726L94.1536 59.6881ZM101.443 66.6253L101.841 63.0756L102.696 64.1468L99.7318 63.8137L100.12 60.3584L106.2 61.0415L105.521 67.0835L101.443 66.6253ZM115.443 56.3059C117.054 56.487 118.272 56.9934 119.096 57.8253C119.935 58.6461 120.272 59.7865 120.108 61.2466C119.931 62.8201 119.28 63.9579 118.156 64.6601C117.034 65.3497 115.598 65.5963 113.848 65.3997L107.296 64.6636L108.781 51.4467L113.161 51.9389L112.705 55.9984L115.443 56.3059ZM113.896 62.2503C114.336 62.2998 114.717 62.2024 115.038 61.958C115.372 61.7024 115.568 61.3229 115.624 60.8194C115.681 60.3159 115.569 59.9528 115.288 59.73C115.02 59.5087 114.665 59.3733 114.225 59.3238L112.355 59.1137L112.027 62.0403L113.896 62.2503ZM121.107 66.2152L122.592 52.9984L126.972 53.4905L126.446 58.1731L129.863 58.5571L129.452 62.22L126.034 61.836L125.487 66.7074L121.107 66.2152ZM133.553 67.9196C132.496 67.8008 131.539 67.5212 130.684 67.0809C129.841 66.6421 129.121 66.0768 128.523 65.3851C127.939 64.6821 127.512 63.8885 127.242 63.0041C126.984 62.1212 126.911 61.1825 127.023 60.1881C127.136 59.1811 127.415 58.282 127.861 57.4908C128.321 56.6885 128.913 56.0157 129.636 55.4724C130.374 54.918 131.203 54.5204 132.122 54.2795C133.054 54.04 134.049 53.9797 135.106 54.0985C136.163 54.2173 137.114 54.4961 137.956 54.935C138.812 55.3753 139.532 55.9469 140.116 56.6498C140.701 57.3401 141.122 58.1267 141.38 59.0097C141.652 59.8815 141.731 60.8209 141.618 61.8279C141.506 62.8223 141.22 63.7207 140.76 64.523C140.313 65.3268 139.727 66.0066 139.002 66.5624C138.278 67.1057 137.45 67.497 136.518 67.7364C135.599 67.9773 134.611 68.0383 133.553 67.9196ZM133.958 64.3132C134.349 64.3571 134.716 64.3219 135.06 64.2076C135.417 64.0947 135.737 63.914 136.02 63.6653C136.316 63.4055 136.557 63.082 136.74 62.6947C136.938 62.2963 137.066 61.8391 137.124 61.323C137.182 60.8069 137.158 60.339 137.052 59.9192C136.961 59.4883 136.798 59.1195 136.565 58.8129C136.346 58.4951 136.075 58.2415 135.752 58.0523C135.441 57.8645 135.091 57.7487 134.701 57.7048C134.311 57.661 133.937 57.6955 133.58 57.8084C133.223 57.9212 132.897 58.1076 132.6 58.3674C132.317 58.616 132.077 58.9395 131.879 59.338C131.695 59.7252 131.574 60.1769 131.516 60.6929C131.458 61.209 131.475 61.6826 131.567 62.1135C131.673 62.5333 131.835 62.902 132.055 63.2198C132.288 63.5265 132.566 63.7744 132.889 63.9636C133.212 64.1529 133.568 64.2694 133.958 64.3132ZM156.275 70.1665L153.686 63.6044L157.469 61.9262L161.298 70.7308L156.275 70.1665ZM148.043 69.2416L149.528 56.0248L153.984 56.5254L152.499 69.7422L148.043 69.2416ZM151.752 64.821L152.146 61.3091L157.15 61.8713L156.755 65.3832L151.752 64.821ZM157.663 64.1086L153.613 63.2329L158.157 56.9942L162.801 57.5161L157.663 64.1086ZM168.802 71.8799C167.732 71.7597 166.757 71.478 165.876 71.0349C165.008 70.5932 164.275 70.0265 163.677 69.3348C163.081 68.6304 162.641 67.8354 162.358 66.9496C162.088 66.0652 162.009 65.1258 162.12 64.1314C162.234 63.1244 162.519 62.226 162.978 61.4363C163.45 60.6353 164.054 59.964 164.791 59.4221C165.529 58.8677 166.37 58.4715 167.314 58.2334C168.271 57.9968 169.285 57.9386 170.355 58.0588C171.437 58.1804 172.413 58.4621 173.281 58.9038C174.149 59.3455 174.881 59.9185 175.478 60.6228C176.075 61.3146 176.51 62.1026 176.78 62.987C177.064 63.8602 177.15 64.8003 177.037 65.8073C176.925 66.8017 176.633 67.6994 176.16 68.5003C175.701 69.3026 175.102 69.981 174.364 70.5354C173.627 71.0773 172.787 71.4672 171.843 71.7052C170.898 71.9433 169.885 72.0015 168.802 71.8799ZM169.207 68.2736C169.623 68.3202 170.015 68.2878 170.384 68.1764C170.766 68.0663 171.105 67.8877 171.401 67.6405C171.71 67.3821 171.963 67.06 172.159 66.6741C172.357 66.2757 172.485 65.8185 172.543 65.3024C172.601 64.7863 172.577 64.3184 172.471 63.8986C172.367 63.4663 172.192 63.0961 171.946 62.788C171.714 62.4688 171.424 62.2132 171.076 62.0211C170.741 61.8305 170.365 61.7118 169.95 61.6651C169.534 61.6185 169.136 61.6501 168.754 61.7602C168.384 61.8716 168.045 62.0566 167.735 62.315C167.44 62.5622 167.193 62.885 166.996 63.2834C166.799 63.6692 166.672 64.1202 166.614 64.6363C166.556 65.1524 166.579 65.6266 166.684 66.059C166.79 66.4787 166.958 66.8482 167.19 67.1674C167.436 67.4755 167.727 67.7248 168.062 67.9155C168.41 68.1075 168.792 68.2269 169.207 68.2736ZM186.445 71.6443L187.33 63.7708L184.29 63.4293L184.146 64.3691C184.043 65.0586 183.926 65.7019 183.796 66.299C183.665 66.8961 183.514 67.4401 183.345 67.9309C183.187 68.423 183.005 68.855 182.797 69.2269C182.591 69.5861 182.355 69.8782 182.087 70.103L177.445 69.0462C177.861 69.0928 178.216 68.9925 178.511 68.7453C178.821 68.4869 179.086 68.1152 179.306 67.6301C179.528 67.1324 179.715 66.5416 179.868 65.8578C180.036 65.1628 180.186 64.3957 180.318 63.5566L180.921 59.5519L192.099 60.8077L190.826 72.1364L186.445 71.6443ZM176.389 75.0457L177.068 69.0037L192.739 70.7645L192.06 76.8064L187.982 76.3482L188.272 73.7615L180.758 72.9172L180.467 75.5039L176.389 75.0457ZM192.918 74.2834L200.18 61.7157L204.561 62.2079L208.853 76.0738L204.246 75.5562L201.227 63.9746L202.964 64.1698L197.449 74.7925L192.918 74.2834ZM196.613 72.366L198.106 69.2835L204.186 69.9665L204.958 73.3036L196.613 72.366ZM221.751 77.5802C220.807 77.4742 219.951 77.206 219.183 76.7756C218.416 76.3452 217.764 75.794 217.228 75.1219C216.693 74.4372 216.301 73.673 216.052 72.8292C215.815 71.9869 215.749 71.0999 215.853 70.1685C215.958 69.237 216.226 68.3875 216.656 67.6201C217.086 66.8527 217.637 66.2009 218.31 65.6645C218.983 65.1156 219.742 64.7165 220.585 64.4672C221.442 64.2192 222.342 64.1483 223.286 64.2544C224.23 64.3604 225.086 64.6286 225.853 65.059C226.635 65.4782 227.287 66.0231 227.811 66.6938C228.347 67.3659 228.734 68.1231 228.971 68.9655C229.221 69.7967 229.294 70.6843 229.188 71.6284C229.082 72.5724 228.813 73.4345 228.381 74.2145C227.951 74.9819 227.392 75.6393 226.706 76.1868C226.034 76.7231 225.276 77.116 224.432 77.3653C223.589 77.6147 222.695 77.6863 221.751 77.5802ZM221.937 75.9187C222.642 75.9979 223.305 75.9449 223.925 75.7596C224.558 75.5631 225.121 75.2631 225.613 74.8594C226.104 74.4558 226.503 73.9653 226.81 73.3879C227.131 72.7994 227.332 72.1465 227.413 71.429C227.493 70.7115 227.448 70.0372 227.277 69.4061C227.106 68.7751 226.831 68.2152 226.452 67.7266C226.075 67.2253 225.598 66.8212 225.021 66.5141C224.457 66.1959 223.817 65.9965 223.099 65.9159C222.382 65.8353 221.707 65.8869 221.074 66.0708C220.455 66.2561 219.899 66.5505 219.407 66.9542C218.916 67.3578 218.516 67.8546 218.208 68.4445C217.9 69.0219 217.707 69.663 217.628 70.3679C217.549 71.0728 217.594 71.747 217.764 72.3907C217.935 73.0218 218.21 73.5879 218.587 74.0892C218.976 74.5918 219.453 75.0022 220.016 75.3205C220.592 75.6401 221.232 75.8395 221.937 75.9187ZM222.382 74.6876C221.589 74.5985 220.901 74.362 220.32 73.978C219.753 73.5828 219.324 73.0885 219.033 72.4951C218.745 71.889 218.641 71.221 218.723 70.4909C218.805 69.7608 219.054 69.1387 219.468 68.6244C219.884 68.0976 220.412 67.7108 221.052 67.464C221.705 67.206 222.429 67.1215 223.222 67.2106C224.065 67.3054 224.761 67.5748 225.31 68.0189C225.872 68.4644 226.229 69.0335 226.381 69.7261L223.826 70.6818C223.731 70.3907 223.608 70.1794 223.457 70.0477C223.306 69.916 223.124 69.8382 222.91 69.8141C222.746 69.7957 222.584 69.8221 222.423 69.8933C222.276 69.9532 222.142 70.0657 222.022 70.2306C221.915 70.3843 221.848 70.5871 221.82 70.8388C221.792 71.0906 221.812 71.3095 221.88 71.4956C221.962 71.6706 222.068 71.8099 222.196 71.9135C222.339 72.006 222.492 72.0615 222.655 72.0799C222.869 72.1039 223.065 72.0685 223.241 71.9736C223.417 71.8787 223.584 71.6998 223.741 71.4371L226.02 72.9359C225.72 73.565 225.246 74.0407 224.598 74.363C223.964 74.6741 223.225 74.7824 222.382 74.6876Z" fill="black"/>
</svg>
