<?xml version="1.0" encoding="utf-8"?>
<!-- Generator: Adobe Illustrator 27.8.1, SVG Export Plug-In . SVG Version: 6.00 Build 0)  -->
<svg version="1.1" id="Слой_1" xmlns="http://www.w3.org/2000/svg" xmlns:xlink="http://www.w3.org/1999/xlink" x="0px" y="0px"
	 viewBox="0 0 595.3 841.9" style="enable-background:new 0 0 595.3 841.9;" xml:space="preserve">
<style type="text/css">
	.st0{fill:#2B285E;}
	.st1{fill:#393A8D;}
	.st2{fill:#3B4796;}
</style>
<path class="st0" d="M498.2,214c10.2-0.2,26.8,4.7,41.9,14.6c7.1,4.7,13.2,10.3,9.9,19.8c-3.5,10.3-12.2,12.1-21.5,10.5
	c-5.7-1-11-3.6-16.5-5.5c-29-10.2-57.4,0.2-71.5,26.3c-12.9,23.9-7.1,54.9,13.6,72.2c22.7,18.9,52.9,18,75.7-2.4
	c2.2-2,4.1-4.3,6.3-6.1c8.8-7.2,18.8-10.2,27.7-1.7c10.2,9.7,3.1,18.7-3.8,26.8c-32.8,39-91.7,43.3-129.5,9.4
	c-38.7-34.7-42.5-94.8-8.1-132.9C440.7,225,463.2,214.3,498.2,214z"/>
<path class="st1" d="M305.6,400.9c-43.8,0.2-78.4-27.6-89.8-71.9c-10.1-39.4,8.7-83.7,44.6-103.4c10.6-5.8,23.3-14.5,32.7,0.6
	c9.3,14.9-2.9,22.4-13.5,29.4c-33.7,22.5-41.4,59.5-18.4,88.7c21.3,27,58.1,28.2,86.5,2c9.7-8.9,20.3-14.6,30.8-5.6
	c12.5,10.8,3,21.3-5.1,30C355.2,390.5,332.9,401.5,305.6,400.9z"/>
<path class="st2" d="M27.9,301.3c-0.6-10.1,2.6-25.6,11.2-39.9c4.9-8.2,10.7-14.9,21.1-9.8c9.5,4.6,14.1,12.7,11.3,23.5
	c-2.7,10.5-7.9,20.2-7.8,31.8c0.2,23.7,10.4,41.2,30.8,51.9c21.5,11.2,42.2,8.4,61.2-6.9c11.9-9.6,24-28.6,39.3-8.5
	c13.7,17.9-6.8,27.7-16.8,36.6c-28.4,25.1-62.6,28.8-96,13.7C47,377.7,28,347.9,27.9,301.3z"/>
<g>
</g>
<g>
</g>
<g>
</g>
<g>
</g>
<g>
</g>
<g>
</g>
</svg>
