<svg width="79" height="45" viewBox="0 0 79 45" fill="none"
  xmlns="http://www.w3.org/2000/svg">
  <g clip-path="url(#clip0_18_1406)">
    <path d="M51.7583 44.5594C51.7583 44.5594 51.7583 25.2017 51.7019 15.5191C51.7019 14.2127 51.5326 12.8839 51.1134 11.5998C50.0814 8.46436 47.6467 5.70964 43.4222 3.64173C36.0696 0.0284967 27.6528 -0.81509 18.4863 0.760102C17.3253 0.961667 16.2531 1.33494 14.9954 1.67088C15.5275 1.87991 15.8419 1.99935 16.245 2.15613C16.4466 2.10387 16.6562 2.05908 16.8577 2.00682C22.6785 0.394299 28.6848 0.334576 34.6426 1.57383C42.4789 3.20874 47.5741 6.41138 49.7106 11.1444C50.5087 12.9137 50.4604 14.7278 50.4684 16.527C50.5007 25.8736 50.4684 35.2202 50.4684 44.5669V44.9775H51.7503" fill="#5ABB47"/>
    <path d="M47.5016 44.4325C47.5016 44.4325 47.5177 24.8434 47.5338 15.0489C47.5338 12.0926 46.2358 9.36772 42.9143 7.09825C38.0045 3.7463 31.7242 2.22336 24.1458 2.74594C22.348 2.87285 20.5905 3.20879 18.575 3.47008C18.4298 3.3805 18.1557 3.20879 17.6881 2.92511C19.1635 2.63396 20.4292 2.30548 21.7595 2.13378C31.5629 0.901995 41.447 3.52234 46.26 8.59879C47.6628 10.0769 48.3723 11.682 48.59 13.3468C48.8076 15.0041 48.8963 16.6614 48.8963 18.3187C48.9124 26.7844 48.8721 35.2501 48.856 43.7159V44.97H47.4855V44.4176" fill="#5ABB47"/>
    <path d="M46.0262 44.9849H44.6557V44.3354C44.6718 34.5707 44.6799 24.806 44.7202 15.0413C44.7363 10.913 41.6485 7.82231 35.602 5.7544C31.2243 4.26133 26.5161 3.95525 21.6224 4.8063C21.3886 4.84362 21.1548 4.88095 20.8485 4.93321C20.5743 4.73164 20.3083 4.53754 19.9294 4.25386C20.6872 4.10455 21.3161 3.96271 21.9691 3.86566C31.9741 2.44724 40.5521 5.80666 44.2687 10.1366C45.4377 11.4953 45.9053 12.9585 45.9295 14.4515C46.0101 19.1995 46.002 23.955 46.0182 28.7104C46.0343 33.2643 46.0262 37.8107 46.0343 42.3645C46.0343 43.2305 46.0343 44.0965 46.0343 44.9998L46.0262 44.9849Z" fill="#5ABB47"/>
    <path d="M22.1868 6.23966L21.5418 5.64244L21.9288 5.57525C22.993 5.49313 23.7589 5.40354 24.7021 5.35875C28.9024 5.15719 32.8609 5.57525 36.3679 7.0086C40.1006 8.53153 42.1081 10.6965 42.6402 13.287C42.9546 14.8174 42.9304 16.3702 42.9304 17.9155C42.9546 26.7396 42.9465 35.5636 42.9465 44.3951V44.97H41.584V44.216C41.584 34.7723 41.584 25.3211 41.576 15.8775C41.576 14.4292 41.4309 12.9884 40.544 11.6147C38.4237 8.33743 34.2476 6.598 28.3623 6.23966C26.4355 6.12022 24.3877 6.2322 22.4447 6.2322L22.1868 6.2546" fill="#5ABB47"/>
    <path d="M21.5821 44.9774H20.2922V44.2383C20.2922 34.7051 20.2761 25.1718 20.2841 15.646C20.2841 13.2645 19.7278 10.9577 17.7768 8.82265C14.6084 5.35872 9.64221 3.4028 3.01521 2.8429C2.06389 2.76078 1.79784 2.70105 0.0886841 2.65626V1.88733C1.70916 1.88733 2.209 1.96945 3.23288 2.05903C13.8506 2.83543 19.7762 7.85962 21.179 12.4508C21.437 13.2869 21.5095 14.1455 21.5095 14.9965C21.5499 24.4999 21.5579 34.0033 21.574 43.5067C21.574 43.9845 21.574 44.4548 21.574 44.9924L21.5821 44.9774Z" fill="#5ABB47"/>
    <path d="M0.620779 1.10352C1.94296 1.16324 3.18451 1.25283 4.45831 1.36481C13.1814 2.13374 20.268 5.94108 22.3883 10.9354C23.2187 12.8913 23.2106 14.8846 23.2187 16.8778C23.259 25.9632 23.2429 35.0485 23.2429 44.1339V44.9625H24.5409V44.537C24.5409 42.2526 24.557 39.9757 24.5409 37.6913C24.4925 29.7183 24.5006 21.7453 24.3635 13.7722C24.299 10.0022 21.6144 6.83692 17.0593 4.21658C13.4314 1.92471 8.59414 0.894489 3.36994 0.476429C2.30575 0.39431 1.49148 0.289795 0.0886841 0.289795L0.620779 1.10352Z" fill="#5ABB47"/>
    <path d="M18.5588 44.9626V44.4997C18.5588 35.7354 18.5669 26.9636 18.5427 18.1993C18.5427 16.5867 18.6153 14.9444 18.2283 13.3542C17.1238 8.85263 13.0121 5.67238 5.49832 4.14945C3.77304 3.79858 1.95908 3.6418 0.0644989 3.65673V4.37341C1.83815 4.4182 2.14451 4.49285 3.13614 4.60483C11.6174 5.5828 16.2208 9.44986 16.9948 13.8395C17.2528 15.3027 17.2125 16.7808 17.2125 18.2515C17.2125 26.9039 17.1964 35.5562 17.1883 44.2086V44.9701H18.5588" fill="#5ABB47"/>
    <path d="M23.3638 7.24745C23.8798 7.18773 24.3474 7.10561 24.815 7.08321C28.709 6.90404 32.3369 7.29971 35.3924 8.82264C37.9481 10.0918 39.5927 11.6744 39.6975 13.6751C39.8346 16.4149 39.9474 19.1622 39.9555 21.902C39.9797 28.1131 39.9394 34.3243 39.9152 40.5355C39.9152 41.8942 39.8829 43.2529 39.8588 44.6116L38.456 44.9849V44.5295C38.4721 37.1014 38.4801 29.6809 38.5043 22.2528C38.5043 20.1177 38.6333 17.9752 38.5527 15.8401C38.5124 14.6755 38.3915 13.4885 37.9077 12.3612C37.0854 10.4501 34.7232 9.24817 31.7 8.47923C29.3539 7.882 26.895 7.71777 24.3393 7.94173L23.783 8.05371L23.1623 7.28478" fill="#5ABB47"/>
    <path d="M15.5194 44.985C15.5194 44.3281 15.5194 43.7085 15.5194 43.0963C15.4872 33.9662 15.463 24.836 15.3985 15.7059C15.3985 14.7578 15.3179 13.7873 14.9551 12.8691C13.5523 9.35287 10.1421 6.83704 3.97459 5.82175C3.97459 5.82175 0.886822 5.34397 0.0725555 5.43355V6.21742C0.0725555 6.21742 0.636899 6.29207 0.902946 6.307C7.07041 6.58322 11.5368 9.15877 13.2943 12.2942C14.1247 13.7724 14.157 15.3028 14.165 16.8332C14.1811 26.0081 14.165 35.183 14.165 44.3505V44.985" fill="#5ABB47"/>
    <path d="M11.1821 19.1474C11.1821 17.4453 11.174 15.8178 10.9886 14.1157C10.65 10.9206 6.10297 8.27036 0.596594 8.03893C0.427291 8.03893 0.0644989 7.98668 0.0644989 7.98668V7.29986C2.99908 7.27 5.49832 7.76272 7.65089 8.83026C10.7306 10.3681 12.5042 11.9209 12.4559 15.1982C12.5204 25.1346 12.5687 44.5147 12.5687 44.5147L12.5284 44.9701H11.2304" fill="#5ABB47"/>
    <path d="M36.7065 44.9551V44.3802C36.7065 39.8338 36.7065 35.28 36.7065 30.7335C36.7065 25.4481 36.7388 20.1626 36.7065 14.8771C36.7065 13.8394 36.5775 12.7868 35.7229 11.8387C33.9573 9.88278 31.0228 8.98694 27.3626 8.8003C26.5161 8.75551 25.6615 8.8003 24.6699 8.8003C24.8472 9.14371 24.9601 9.36021 25.0972 9.61403C25.9598 9.61403 26.7741 9.59163 27.5883 9.61403C31.2485 9.71854 34.4088 11.2265 35.1102 13.2795C35.3682 14.041 35.4569 14.8249 35.4569 15.6013C35.4811 18.2589 35.4246 20.9166 35.4166 23.5743C35.4005 30.5469 35.3924 37.527 35.3843 44.4997L36.7146 44.9625L36.7065 44.9551Z" fill="#5ABB47"/>
    <path d="M8.28778 21.4766C8.28778 21.8723 8.28778 14.7204 8.20716 14.7204C7.84437 12.6749 6.49801 11.1893 3.43443 10.2636C0.830391 9.59919 0.0644964 9.65892 0.0644964 9.65892C0.0644964 9.65892 0.0322482 9.30058 0 8.94971C0.816954 8.96961 1.8489 9.09901 3.09583 9.33791C6.63506 10.2412 8.89244 11.7716 9.33585 14.0635C9.61802 15.8029 9.61802 17.5498 9.61802 17.5498C9.62608 26.68 9.60996 35.1307 9.59384 44.2609C9.59384 44.4774 9.59384 44.6939 9.59384 44.9701H8.27166" fill="#5ABB47"/>
    <path d="M33.8767 44.985H32.5062V44.3728C32.5062 35.1979 32.4981 26.0304 32.4739 16.8629C32.4739 16.0268 32.353 15.1907 32.3369 14.3546C32.2966 12.2195 29.2572 11.3012 26.7821 11.2639C26.4677 11.2639 26.1452 11.2639 25.7824 11.2639C25.6857 11.025 25.5889 10.8085 25.4761 10.5248C26.2823 10.5248 27.0079 10.5025 27.7334 10.5248C30.8857 10.6443 33.4253 12.0552 33.5784 13.8917C33.7639 16.1388 33.8445 18.3933 33.8606 20.6479C33.8929 28.5164 33.8687 36.3923 33.8687 44.2608C33.8687 44.4848 33.8687 44.7162 33.8687 44.9924L33.8767 44.985Z" fill="#5ABB47"/>
    <path d="M3.68436 44.9849H3.70854C3.72467 44.7983 3.76498 43.5067 3.76498 36.116C3.76498 14.0335 3.66017 15.2802 3.66017 15.2802C3.66017 15.2802 3.58761 14.1604 3.30544 13.8692C2.95877 13.1376 1.41086 12.5927 0.00806427 12.6823V13.3616C1.59629 13.4661 2.12032 14.1081 2.31381 14.8845C2.39443 15.213 2.41055 15.5415 2.41055 15.8774C2.39443 24.485 2.37024 33.0926 2.34606 41.7001C2.34606 42.7826 2.34606 44.9849 2.34606 44.9849C2.69273 44.9849 3.40219 44.9849 3.6763 44.9849H3.68436Z" fill="#5ABB47"/>
    <path d="M6.63506 44.97C6.63506 44.7311 6.63506 44.5594 6.63506 44.3877C6.63506 41.6405 6.63506 38.9007 6.63506 36.1534C6.61894 31.4278 6.61088 26.7097 6.58669 21.9842C6.57863 19.6997 6.56251 17.4228 6.49801 15.1384C6.46576 14.1828 6.24809 13.2422 5.37739 12.3912C4.23257 11.2714 2.0397 10.7115 0.0564346 10.8309V11.458L0.782019 11.5625C2.68466 11.6372 3.75691 12.2419 4.54699 13.1526C5.25645 13.9738 5.25645 14.8547 5.25645 15.7356C5.25645 25.2838 5.25645 34.832 5.25645 44.3802L6.63506 44.97Z" fill="#5ABB47"/>
    <path d="M26.1452 13.078C26.113 12.8316 26.0888 12.6226 26.0565 12.421C28.4913 12.0104 30.4987 12.854 30.5955 14.3993C30.7245 16.4896 30.7245 18.5874 30.7164 20.6777C30.7083 28.4044 30.668 36.131 30.6438 43.8502C30.6438 44.2085 30.6438 44.5669 30.6438 44.9551H29.362V44.2832C29.362 34.7499 29.362 25.2241 29.362 15.6908C29.362 15.228 29.37 14.7651 29.2572 14.3097C28.9992 13.3392 28.3784 13.0556 26.7096 13.0705C26.5644 13.0705 26.4113 13.0705 26.1452 13.0705V13.078Z" fill="#5ABB47"/>
    <path d="M6.63506 44.97V44.9849H5.25645V44.3802" fill="#5ABB47"/>
    <path d="M12.5687 44.5221V44.97H12.5284L12.5687 44.5221Z" fill="#5ABB47"/>
    <path d="M35.3763 44.4922H36.7065V44.9849H35.3763" fill="#5ABB47"/>
    <path d="M39.8668 44.6118H38.464V44.9851H39.8668V44.6118Z" fill="#5ABB47"/>
    <path d="M0.765894 11.57H0V10.8235H0.765894" fill="#5ABB47"/>
    <path d="M0.0644964 9.65892L0.661088 8.9721V9.69624L0 9.68131V8.94971L0.661088 8.9721" fill="#5ABB47"/>
    <path d="M0.588529 7.30725H0V8.04632H0.588529V7.30725Z" fill="#5ABB47"/>
    <path d="M0.902949 6.29937L0.515971 6.28444H0V5.41846H0.515971" fill="#5ABB47"/>
    <path d="M0.0725584 3.66418H0V4.38086H0.0725584V3.66418Z" fill="#5ABB47"/>
    <path d="M0.0886825 1.88733H0V2.65626H0.0886825V1.88733Z" fill="#5ABB47"/>
    <path d="M0.620778 1.10352L0.0886825 0.289795H0V1.10352H0.620778Z" fill="#5ABB47"/>
    <path d="M3.76497 36.1162V44.9851H3.70048" fill="#5ABB47"/>
    <path d="M16.1886 2.17854L16.2531 2.15615L15.0035 1.6709" fill="#5ABB47"/>
    <path d="M20.8485 4.92581L20.7195 4.95567L19.8084 4.27632L19.9294 4.24646L20.8485 4.92581Z" fill="#5ABB47"/>
    <path d="M25.8308 6.17993L22.2512 6.29938L22.1868 6.23965L22.4447 6.21726L25.8308 6.17993Z" fill="#5ABB47"/>
    <path d="M25.0891 9.60659H24.8069L24.3232 8.80033L24.6618 8.7854" fill="#5ABB47"/>
    <path d="M25.4841 10.5172H25.2665L25.5809 11.2637L25.7905 11.2563" fill="#5ABB47"/>
    <path d="M26.1452 13.078H26.0888L25.9275 12.3762L27.0159 12.324" fill="#5ABB47"/>
    <path d="M79 44.552C79 44.552 79 25.1943 78.9436 15.5117C78.9436 14.2053 78.7743 12.8764 78.355 11.5924C77.3231 8.45694 74.8884 5.70222 70.6638 3.63431C63.3032 0.0285411 54.8945 -0.815045 45.7279 0.752682C44.567 0.954247 43.4947 1.32751 42.2371 1.66346C42.7692 1.87249 43.0836 1.99193 43.4867 2.14871C43.6882 2.09645 43.8978 2.05166 44.0994 1.9994C49.9202 0.386879 55.9264 0.327156 61.8843 1.56641C69.7206 3.20132 74.8158 6.40396 76.9522 11.137C77.7504 12.9063 77.702 14.7204 77.7101 16.5195C77.7423 25.8662 77.7101 35.2128 77.7101 44.5594V44.97H78.9919" fill="#5ABB47"/>
    <path d="M74.7432 44.4324C74.7432 44.4324 74.7594 24.8433 74.7755 15.0487C74.7755 12.0925 73.4775 9.3676 70.1559 7.09813C65.2462 3.74618 58.9658 2.22324 51.3875 2.74582C49.5897 2.87273 47.8321 3.20867 45.8166 3.46996C45.6715 3.38037 45.3974 3.20867 44.9298 2.92499C46.4051 2.63384 47.6709 2.30536 49.0011 2.13366C58.8046 0.901873 68.6886 3.52222 73.5017 8.59866C74.9045 10.0768 75.6139 11.6819 75.8316 13.3466C76.0493 15.0039 76.138 16.6613 76.138 18.3186C76.1541 26.7843 76.1138 35.25 76.0977 43.7157V44.9699H74.7271V44.4175" fill="#5ABB47"/>
    <path d="M73.2679 44.9776H71.8973V44.3281C71.9135 34.5634 71.9215 24.7987 71.9618 15.034C71.978 10.9056 68.8902 7.81498 62.8437 5.74707C58.466 4.254 53.7577 3.94792 48.8641 4.79897C48.6303 4.8363 48.3965 4.87363 48.0901 4.92588C47.816 4.72432 47.55 4.53022 47.171 4.24654C47.9289 4.09723 48.5577 3.95539 49.2107 3.85834C59.2157 2.43992 67.7938 5.79933 71.5104 10.1292C72.6794 11.4879 73.147 12.9512 73.1711 14.4442C73.2518 19.1922 73.2437 23.9476 73.2598 28.7031C73.2759 33.2569 73.2679 37.8034 73.2759 42.3572C73.2759 43.2232 73.2759 44.0892 73.2759 44.9925L73.2679 44.9776Z" fill="#5ABB47"/>
    <path d="M49.4284 6.23979L48.7834 5.64256L49.1704 5.57537C50.2346 5.49325 51.0005 5.40367 51.9438 5.35887C56.1441 5.15731 60.1026 5.57537 63.6096 7.00872C67.3423 8.53165 69.3497 10.6966 69.8818 13.2871C70.1962 14.8175 70.1721 16.3703 70.1721 17.9156C70.1962 26.7397 70.1882 35.5637 70.1882 44.3953V44.9701H68.8257V44.2161C68.8257 34.7724 68.8257 25.3213 68.8176 15.8776C68.8176 14.4293 68.6725 12.9885 67.7857 11.6149C65.6654 8.33756 61.4892 6.59812 55.6039 6.23979C53.6771 6.12034 51.6294 6.23232 49.6864 6.23232L49.4284 6.25472" fill="#5ABB47"/>
    <path d="M50.6055 7.24012C51.1214 7.1804 51.589 7.09828 52.0566 7.07589C55.9506 6.89672 59.5785 7.29238 62.634 8.81532C65.1897 10.0844 66.8344 11.6671 66.9392 13.6678C67.0762 16.4076 67.1891 19.1548 67.1972 21.8946C67.2213 28.1058 67.181 34.317 67.1569 40.5282C67.1569 41.8869 67.1246 43.2456 67.1004 44.6043L65.6976 44.9775V44.5222C65.7137 37.0941 65.7218 29.6735 65.746 22.2455C65.746 20.1104 65.875 17.9679 65.7944 15.8328C65.7541 14.6682 65.6331 13.4812 65.1494 12.3539C64.3271 10.4428 61.9649 9.24084 58.9416 8.47191C56.5956 7.87468 54.1366 7.71044 51.581 7.9344L51.0247 8.04638L50.4039 7.27745" fill="#5ABB47"/>
    <path d="M63.9401 44.9551V44.3802C63.9401 39.8338 63.9401 35.28 63.9401 30.7335C63.9401 25.4481 63.9723 20.1626 63.9401 14.8771C63.9401 13.8394 63.8111 12.7868 62.9565 11.8387C61.1909 9.88278 58.2564 8.98694 54.5962 8.8003C53.7497 8.75551 52.8951 8.8003 51.9035 8.8003C52.0808 9.14371 52.1937 9.36021 52.3308 9.61403C53.1934 9.61403 54.0077 9.59163 54.8219 9.61403C58.4821 9.71854 61.6424 11.2265 62.3438 13.2795C62.6018 14.041 62.6905 14.8249 62.6905 15.6013C62.7147 18.2589 62.6582 20.9166 62.6502 23.5743C62.634 30.5469 62.626 37.527 62.6179 44.4997L63.9482 44.9625L63.9401 44.9551Z" fill="#5ABB47"/>
    <path d="M61.1103 44.985H59.7398V44.3728C59.7398 35.1979 59.7317 26.0304 59.7075 16.8629C59.7075 16.0268 59.5866 15.1907 59.5705 14.3546C59.5301 12.2195 56.4908 11.3012 54.0157 11.2639C53.7013 11.2639 53.3788 11.2639 53.016 11.2639C52.9193 11.025 52.8225 10.8085 52.7097 10.5248C53.5159 10.5248 54.2414 10.5025 54.967 10.5248C58.1193 10.6443 60.6588 12.0552 60.812 13.8917C60.9974 16.1388 61.0781 18.3933 61.0942 20.6479C61.1264 28.5164 61.1022 36.3923 61.1022 44.2608C61.1022 44.4848 61.1022 44.7162 61.1022 44.9924L61.1103 44.985Z" fill="#5ABB47"/>
    <path d="M53.3788 13.078C53.3466 12.8316 53.3224 12.6226 53.2901 12.421C55.7249 12.0104 57.7323 12.854 57.8291 14.3993C57.9581 16.4896 57.9581 18.5874 57.95 20.6777C57.9419 28.4044 57.9016 36.131 57.8774 43.8502C57.8774 44.2085 57.8774 44.5669 57.8774 44.9551H56.5956V44.2832C56.5956 34.7499 56.5956 25.2241 56.5956 15.6908C56.5956 15.228 56.6036 14.7651 56.4908 14.3097C56.2328 13.3392 55.612 13.0556 53.9432 13.0705C53.798 13.0705 53.6449 13.0705 53.3788 13.0705V13.078Z" fill="#5ABB47"/>
    <path d="M62.6099 44.4922H63.9401V44.9774H62.6099" fill="#5ABB47"/>
    <path d="M67.1004 44.6044H65.6976V44.9776H67.1004V44.6044Z" fill="#5ABB47"/>
    <path d="M43.4302 2.1711L43.4947 2.1487L42.2371 1.66345" fill="#5ABB47"/>
    <path d="M48.0901 4.92581L47.9611 4.95567L47.0501 4.27632L47.171 4.24646L48.0901 4.92581Z" fill="#5ABB47"/>
    <path d="M53.0725 6.17261L49.4848 6.29952L49.4284 6.2398L49.6864 6.2174L53.0725 6.17261Z" fill="#5ABB47"/>
    <path d="M52.3227 9.59912H52.0405L51.5568 8.80033L51.9035 8.7854" fill="#5ABB47"/>
    <path d="M52.7177 10.5098H52.5081L52.8145 11.2638L53.0322 11.2563" fill="#5ABB47"/>
    <path d="M53.3788 13.078H53.3304L53.1692 12.3688L54.2576 12.324" fill="#5ABB47"/>
  </g>
  <defs>
    <clipPath id="clip0_18_1406">
      <rect width="79" height="45" fill="white"/>
    </clipPath>
  </defs>
</svg>
