<svg width="391" height="210" viewBox="0 0 391 210" fill="none"
    xmlns="http://www.w3.org/2000/svg">
    <path d="M256.171 207.944C256.171 207.944 256.171 117.608 255.892 72.4226C255.892 66.3258 255.054 60.1246 252.979 54.1324C247.871 39.5003 235.821 26.6449 214.912 16.9947C178.522 0.132944 136.864 -3.80379 91.4954 3.5471C85.7495 4.48774 80.4425 6.22966 74.2178 7.79738C76.8513 8.77286 78.4075 9.33027 80.4026 10.0619C81.4001 9.81801 82.4376 9.60898 83.4351 9.36511C112.244 1.84002 141.971 1.56132 171.459 7.34448C210.244 14.9741 235.462 29.9197 246.036 52.0073C249.986 60.264 249.747 68.7297 249.787 77.1257C249.946 120.743 249.787 164.361 249.787 207.979V209.895H256.131" fill="#5ABB47"/>
    <path d="M235.103 207.352C235.103 207.352 235.183 115.936 235.262 70.2284C235.262 56.4324 228.838 43.7163 212.399 33.1255C188.098 17.4831 157.014 10.376 119.507 12.8147C110.608 13.407 101.91 14.9747 91.9343 16.194C91.216 15.776 89.8594 14.9747 87.545 13.6508C94.8471 12.2921 101.112 10.7592 107.696 9.95797C156.216 4.20963 205.136 16.4379 228.958 40.128C235.901 47.026 239.412 54.5162 240.49 62.2852C241.567 70.0193 242.006 77.7534 242.006 85.4876C242.086 124.994 241.886 164.501 241.806 204.008V209.861H235.023V207.283" fill="#5ABB47"/>
    <path d="M227.801 209.93H221.017V206.899C221.097 161.33 221.137 115.762 221.337 70.193C221.416 50.9274 206.134 36.5043 176.207 26.8541C154.541 19.8864 131.238 18.4581 107.017 22.4296C105.86 22.6038 104.703 22.778 103.187 23.0219C101.83 22.0813 100.513 21.1755 98.6378 19.8516C102.389 19.1548 105.501 18.4929 108.733 18.04C158.251 11.4207 200.707 27.098 219.102 47.3042C224.888 53.6448 227.202 60.4731 227.322 67.4408C227.721 89.598 227.681 111.79 227.761 133.982C227.841 155.233 227.801 176.45 227.841 197.701C227.841 201.743 227.841 205.784 227.841 209.999L227.801 209.93Z" fill="#5ABB47"/>
    <path d="M109.81 29.1186L106.618 26.3315L108.534 26.0179C113.801 25.6347 117.591 25.2167 122.26 25.0076C143.049 24.067 162.641 26.0179 179.998 32.7069C198.473 39.8139 208.408 49.9171 211.042 62.006C212.598 69.1478 212.478 76.3942 212.478 83.6058C212.598 124.785 212.558 165.964 212.558 207.177V209.86H205.815V206.341C205.815 162.271 205.815 118.165 205.775 74.0949C205.775 67.3363 205.057 60.6124 200.667 54.2022C190.173 38.9081 169.504 30.7908 140.375 29.1186C130.839 28.5611 120.704 29.0837 111.087 29.0837L109.81 29.1882" fill="#5ABB47"/>
    <path d="M106.818 209.895H100.433V206.446C100.433 161.957 100.354 117.469 100.393 73.0149C100.393 61.9014 97.6402 51.1364 87.984 41.1726C72.3025 25.0076 47.7228 15.8799 14.9233 13.2671C10.2149 12.8838 8.89813 12.6051 0.438904 12.3961V8.80774C8.45921 8.80774 10.9331 9.19096 16.0007 9.60902C68.5517 13.2322 97.8797 36.6784 104.823 58.104C106.099 62.0059 106.459 66.0123 106.459 69.9839C106.658 114.333 106.698 158.682 106.778 203.032C106.778 205.261 106.778 207.456 106.778 209.965L106.818 209.895Z" fill="#5ABB47"/>
    <path d="M3.07244 5.1498C9.61637 5.42851 15.7613 5.84657 22.0658 6.36914C65.2398 9.95749 100.314 27.7251 110.808 51.0319C114.918 60.1596 114.878 69.4614 114.918 78.7633C115.117 121.162 115.038 163.56 115.038 205.958V209.825H121.462V207.839C121.462 197.179 121.542 186.553 121.462 175.893C121.222 138.685 121.262 101.478 120.584 64.2705C120.265 46.6771 106.977 31.9057 84.4327 19.6774C66.4768 8.98202 42.5355 4.17432 16.679 2.22338C11.412 1.84015 7.38186 1.35242 0.438904 1.35242L3.07244 5.1498Z" fill="#5ABB47"/>
    <path d="M91.8545 209.825V207.665C91.8545 166.765 91.8944 125.83 91.7747 84.9298C91.7747 77.4048 92.1338 69.7403 90.2185 62.3198C84.7519 41.3122 64.4019 26.4711 27.2132 19.364C18.6742 17.7266 9.69619 16.995 0.319214 17.0647V20.4092C9.09766 20.6182 10.6139 20.9666 15.5219 21.4892C57.4988 26.053 80.2829 44.0993 84.1135 64.5843C85.3904 71.4126 85.1908 78.3106 85.1908 85.1737C85.1908 125.551 85.111 165.929 85.0711 206.307V209.86H91.8545" fill="#5ABB47"/>
    <path d="M115.636 33.8218C118.19 33.543 120.504 33.1598 122.818 33.0553C142.091 32.2192 160.047 34.0656 175.17 41.1726C187.819 47.0952 195.959 54.4809 196.478 63.8176C197.156 76.6033 197.715 89.4238 197.754 102.209C197.874 131.195 197.675 160.18 197.555 189.166C197.555 195.507 197.395 201.847 197.276 208.188L190.333 209.93V207.805C190.413 173.14 190.452 138.511 190.572 103.847C190.572 93.8831 191.211 83.8845 190.812 73.9207C190.612 68.4859 190.013 62.9466 187.619 57.686C183.549 48.7674 171.858 43.1584 156.895 39.5701C145.283 36.783 133.113 36.0166 120.464 37.0617L117.711 37.5843L114.639 33.9959" fill="#5ABB47"/>
    <path d="M76.8114 209.931C76.8114 206.865 76.8114 203.973 76.8114 201.117C76.6518 158.509 76.5321 115.902 76.2129 73.2946C76.2129 68.8701 75.8139 64.3412 74.0183 60.056C67.0753 43.6472 50.1968 31.9066 19.6717 27.1686C19.6717 27.1686 4.38924 24.939 0.359131 25.357V29.0151C0.359131 29.0151 3.15227 29.3634 4.46904 29.4331C34.9941 30.7221 57.0998 42.7414 65.7985 57.3735C69.9084 64.2715 70.068 71.4133 70.1079 78.5552C70.1877 121.372 70.1079 164.188 70.1079 206.969V209.931" fill="#5ABB47"/>
    <path d="M55.3441 89.3549C55.3441 81.4117 55.3042 73.817 54.3865 65.8738C52.7106 50.963 30.2058 38.5954 2.95275 37.5154C2.11481 37.5154 0.319214 37.2715 0.319214 37.2715V34.0664C14.8436 33.927 27.2132 36.2264 37.867 41.2083C53.1096 48.385 61.888 55.6313 61.6486 70.9254C61.9679 117.295 62.2073 207.736 62.2073 207.736L62.0078 209.861H55.5835" fill="#5ABB47"/>
    <path d="M181.674 209.791V207.108C181.674 185.892 181.674 164.64 181.674 143.424C181.674 118.758 181.834 94.0925 181.674 69.4269C181.674 64.5844 181.036 59.6722 176.806 55.2477C168.067 46.1201 153.543 41.9394 135.427 41.0685C131.238 40.8595 127.008 41.0685 122.1 41.0685C122.978 42.6711 123.537 43.6814 124.215 44.8659C128.485 44.8659 132.515 44.7614 136.545 44.8659C154.66 45.3536 170.302 52.391 173.773 61.9715C175.05 65.525 175.489 69.1831 175.489 72.8062C175.609 85.2087 175.33 97.6112 175.29 110.014C175.21 142.553 175.17 175.127 175.13 207.666L181.714 209.826L181.674 209.791Z" fill="#5ABB47"/>
    <path d="M41.0193 100.224C41.0193 102.071 41.0193 68.6954 40.6203 68.6954C38.8247 59.1497 32.161 52.2169 16.9983 47.8969C4.10991 44.7963 0.319216 45.075 0.319216 45.075C0.319216 45.075 0.159608 43.4028 0 41.7654C4.04341 41.8583 9.15087 42.4621 15.3224 43.577C32.8394 47.7924 44.0119 54.9343 46.2066 65.6297C47.6031 73.747 47.6031 81.8992 47.6031 81.8992C47.643 124.507 47.5632 163.944 47.4834 206.551C47.4834 207.561 47.4834 208.572 47.4834 209.861H40.9395" fill="#5ABB47"/>
    <path d="M167.668 209.93H160.885V207.074C160.885 164.257 160.845 121.476 160.725 78.6942C160.725 74.7923 160.127 70.8904 160.047 66.9885C159.848 57.0247 144.805 52.7396 132.555 52.5654C130.998 52.5654 129.402 52.5654 127.607 52.5654C127.128 51.4506 126.649 50.4403 126.09 49.1164C130.081 49.1164 133.672 49.0119 137.263 49.1164C152.865 49.6738 165.434 56.2583 166.192 64.8285C167.11 75.3149 167.509 85.836 167.589 96.3572C167.748 133.077 167.628 169.831 167.628 206.551C167.628 207.596 167.628 208.676 167.628 209.965L167.668 209.93Z" fill="#5ABB47"/>
    <path d="M18.2352 209.93H18.3549C18.4348 209.059 18.6343 203.032 18.6343 168.542C18.6343 65.4898 18.1155 71.3078 18.1155 71.3078C18.1155 71.3078 17.7564 66.0821 16.3598 64.7234C14.6441 61.3092 6.98287 58.766 0.039917 59.1841V62.3544C7.90062 62.8421 10.4942 65.8382 11.4519 69.4614C11.8509 70.9943 11.9307 72.5272 11.9307 74.0949C11.8509 114.264 11.7312 154.432 11.6115 194.601C11.6115 199.652 11.6115 209.93 11.6115 209.93C13.3273 209.93 16.8387 209.93 18.1953 209.93H18.2352Z" fill="#5ABB47"/>
    <path d="M32.8394 209.86C32.8394 208.745 32.8394 207.944 32.8394 207.143C32.8394 194.322 32.8394 181.537 32.8394 168.716C32.7595 146.663 32.7196 124.646 32.5999 102.593C32.56 91.9323 32.4802 81.3066 32.161 70.6461C32.0014 66.1868 30.9241 61.7971 26.6146 57.8256C20.9485 52.5998 10.0952 49.9869 0.279297 50.5443V53.4708L3.87048 53.9585C13.2874 54.3069 18.5943 57.1288 22.5047 61.3791C26.0161 65.2113 26.0161 69.3222 26.0161 73.4332C26.0161 117.991 26.0161 162.55 26.0161 207.108L32.8394 209.86Z" fill="#5ABB47"/>
    <path d="M129.402 61.031C129.243 59.8813 129.123 58.9059 128.963 57.9652C141.014 56.0491 150.949 59.9859 151.428 67.1974C152.067 76.9521 152.067 86.7417 152.027 96.4965C151.987 132.554 151.787 168.612 151.668 204.635C151.668 206.307 151.668 207.979 151.668 209.791H145.323V206.655C145.323 162.167 145.323 117.713 145.323 73.2244C145.323 71.0645 145.363 68.9045 144.804 66.7793C143.528 62.2503 140.455 60.9265 132.195 60.9962C131.477 60.9962 130.719 60.9962 129.402 60.9962V61.031Z" fill="#5ABB47"/>
    <path d="M32.8394 209.861V209.93H26.0161V207.109" fill="#5ABB47"/>
    <path d="M62.2078 207.77V209.861H62.0078L62.2078 207.77Z" fill="#5ABB47"/>
    <path d="M175.09 207.631H181.674V209.93H175.09" fill="#5ABB47"/>
    <path d="M197.316 208.189H190.373V209.931H197.316V208.189Z" fill="#5ABB47"/>
    <path d="M3.79069 53.9937H0V50.5099H3.79069" fill="#5ABB47"/>
    <path d="M0.319216 45.0753L3.27197 41.8701V45.2495L0 45.1798V41.7656L3.27197 41.8701" fill="#5ABB47"/>
    <path d="M2.91285 34.1007H0V37.5497H2.91285V34.1007Z" fill="#5ABB47"/>
    <path d="M4.46903 29.3977L2.55373 29.328H0V25.2867H2.55373" fill="#5ABB47"/>
    <path d="M0.360037 17.1H0V20.4445H0.360037V17.1Z" fill="#5ABB47"/>
    <path d="M0.438922 8.80786H0V12.3962H0.438922V8.80786Z" fill="#5ABB47"/>
    <path d="M3.07246 5.15041L0.438922 1.35303H0V5.15041H3.07246Z" fill="#5ABB47"/>
    <path d="M18.635 168.543V209.931H18.315" fill="#5ABB47"/>
    <path d="M80.1233 10.1671L80.4425 10.0626L74.2577 7.7981" fill="#5ABB47"/>
    <path d="M103.187 22.9878L102.548 23.1271L98.0393 19.9569L98.6378 19.8175L103.187 22.9878Z" fill="#5ABB47"/>
    <path d="M127.846 28.8401L110.13 29.3975L109.81 29.1188L111.087 29.0143L127.846 28.8401Z" fill="#5ABB47"/>
    <path d="M124.175 44.8311H122.779L120.384 41.0686L122.06 40.9989" fill="#5ABB47"/>
    <path d="M126.13 49.0811H125.053L126.609 52.5649L127.647 52.5301" fill="#5ABB47"/>
    <path d="M129.402 61.0312H129.123L128.325 57.7564L133.712 57.5126" fill="#5ABB47"/>
    <path d="M391 207.91C391 207.91 391 117.574 390.721 72.3886C390.721 66.2918 389.883 60.0906 387.808 54.0984C382.7 39.4663 370.65 26.6109 349.741 16.9607C313.311 0.133762 271.693 -3.80297 226.324 3.51308C220.578 4.45372 215.271 6.19564 209.047 7.76337C211.68 8.73884 213.236 9.29626 215.232 10.0279C216.229 9.78399 217.267 9.57496 218.264 9.33109C247.073 1.806 276.8 1.5273 306.288 7.31047C345.073 14.9401 370.291 29.8857 380.865 51.9733C384.815 60.23 384.576 68.6957 384.616 77.0917C384.775 120.709 384.616 164.327 384.616 207.945V209.861H390.96" fill="#5ABB47"/>
    <path d="M369.932 207.352C369.932 207.352 370.012 115.936 370.091 70.2281C370.091 56.4321 363.667 43.7161 347.227 33.1252C322.927 17.4828 291.843 10.3758 254.336 12.8145C245.437 13.4067 236.739 14.9744 226.763 16.1938C226.045 15.7757 224.688 14.9744 222.374 13.6506C229.676 12.2919 235.941 10.759 242.525 9.95772C291.045 4.20939 339.965 16.4377 363.787 40.1278C370.73 47.0257 374.241 54.516 375.318 62.285C376.396 70.0191 376.835 77.7532 376.835 85.4873C376.915 124.994 376.715 164.501 376.635 204.007V209.86H369.852V207.282" fill="#5ABB47"/>
    <path d="M362.63 209.896H355.846V206.865C355.926 161.296 355.966 115.728 356.166 70.1592C356.245 50.8936 340.963 36.4705 311.036 26.8203C289.37 19.8526 266.067 18.4242 241.846 22.3958C240.689 22.57 239.532 22.7442 238.016 22.9881C236.659 22.0474 235.342 21.1416 233.467 19.8178C237.218 19.121 240.33 18.4591 243.562 18.0062C293.08 11.3869 335.536 27.0642 353.931 47.2704C359.717 53.611 362.031 60.4393 362.151 67.407C362.55 89.5642 362.51 111.756 362.59 133.948C362.67 155.2 362.63 176.416 362.67 197.668C362.67 201.709 362.67 205.75 362.67 209.966L362.63 209.896Z" fill="#5ABB47"/>
    <path d="M244.639 29.1193L241.447 26.3322L243.363 26.0187C248.63 25.6355 252.42 25.2174 257.089 25.0084C277.878 24.0677 297.47 26.0187 314.827 32.7076C333.302 39.8147 343.237 49.9178 345.871 62.0067C347.427 69.1486 347.307 76.395 347.307 83.6065C347.427 124.785 347.387 165.964 347.387 207.178V209.861H340.644V206.342C340.644 162.272 340.644 118.166 340.604 74.0956C340.604 67.337 339.886 60.6132 335.496 54.2029C325.002 38.9089 304.333 30.7915 275.204 29.1193C265.668 28.5619 255.533 29.0845 245.916 29.0845L244.639 29.189" fill="#5ABB47"/>
    <path d="M250.465 33.7879C253.019 33.5092 255.333 33.126 257.647 33.0215C276.92 32.1854 294.876 34.0318 309.999 41.1388C322.648 47.0614 330.788 54.4471 331.307 63.7838C331.985 76.5695 332.543 89.39 332.583 102.176C332.703 131.161 332.504 160.147 332.384 189.132C332.384 195.473 332.224 201.813 332.105 208.154L325.162 209.896V207.771C325.241 173.107 325.281 138.477 325.401 103.813C325.401 93.8493 326.039 83.8507 325.64 73.8869C325.441 68.4521 324.842 62.9128 322.448 57.6522C318.378 48.7336 306.687 43.1246 291.724 39.5363C280.112 36.7492 267.942 35.9828 255.293 37.0279L252.54 37.5505L249.467 33.9621" fill="#5ABB47"/>
    <path d="M316.463 209.791V207.108C316.463 185.892 316.463 164.64 316.463 143.424C316.463 118.758 316.623 94.0927 316.463 69.4272C316.463 64.5846 315.825 59.6724 311.595 55.2479C302.856 46.1203 288.332 41.9397 270.217 41.0687C266.027 40.8597 261.797 41.0687 256.889 41.0687C257.767 42.6713 258.326 43.6816 259.004 44.8661C263.274 44.8661 267.304 44.7616 271.334 44.8661C289.449 45.3539 305.091 52.3912 308.562 61.9718C309.839 65.5253 310.278 69.1833 310.278 72.8065C310.398 85.2089 310.119 97.6114 310.079 110.014C309.999 142.553 309.959 175.127 309.919 207.666L316.503 209.826L316.463 209.791Z" fill="#5ABB47"/>
    <path d="M302.457 209.931H295.674V207.074C295.674 164.257 295.634 121.476 295.514 78.6944C295.514 74.7925 294.916 70.8906 294.836 66.9887C294.637 57.0249 279.593 52.7398 267.344 52.5656C265.787 52.5656 264.191 52.5656 262.396 52.5656C261.917 51.4508 261.438 50.4405 260.879 49.1166C264.87 49.1166 268.461 49.0121 272.052 49.1166C287.654 49.6741 300.223 56.2585 300.981 64.8287C301.899 75.3151 302.298 85.8363 302.378 96.3575C302.537 133.077 302.417 169.832 302.417 206.551C302.417 207.596 302.417 208.676 302.417 209.965L302.457 209.931Z" fill="#5ABB47"/>
    <path d="M264.191 61.0311C264.032 59.8815 263.912 58.906 263.752 57.9654C275.803 56.0492 285.738 59.986 286.217 67.1975C286.856 76.9523 286.856 86.7418 286.816 96.4966C286.776 132.554 286.576 168.612 286.457 204.635C286.457 206.307 286.457 207.979 286.457 209.791H280.112V206.656C280.112 162.167 280.112 117.713 280.112 73.2246C280.112 71.0646 280.152 68.9046 279.594 66.7795C278.317 62.2505 275.244 60.9266 266.985 60.9963C266.266 60.9963 265.508 60.9963 264.191 60.9963V61.0311Z" fill="#5ABB47"/>
    <path d="M309.879 207.631H316.463V209.895H309.879" fill="#5ABB47"/>
    <path d="M332.105 208.154H325.162V209.896H332.105V208.154Z" fill="#5ABB47"/>
    <path d="M214.952 10.1323L215.271 10.0278L209.047 7.76331" fill="#5ABB47"/>
    <path d="M238.016 22.9878L237.377 23.1271L232.868 19.9569L233.467 19.8175L238.016 22.9878Z" fill="#5ABB47"/>
    <path d="M262.675 28.8062L244.919 29.3984L244.639 29.1197L245.916 29.0152L262.675 28.8062Z" fill="#5ABB47"/>
    <path d="M258.964 44.7963H257.568L255.173 41.0686L256.889 40.9989" fill="#5ABB47"/>
    <path d="M260.919 49.0461H259.882L261.398 52.5648L262.476 52.53" fill="#5ABB47"/>
    <path d="M264.191 61.0312H263.952L263.154 57.7216L268.541 57.5126" fill="#5ABB47"/>
</svg>
